<svg width="599" height="136" viewBox="0 0 599 136" fill="none" xmlns="http://www.w3.org/2000/svg">
<mask id="path-1-outside-1_26_214" maskUnits="userSpaceOnUse" x="0" y="24" width="601" height="83" fill="black">
<rect fill="white" y="24" width="601" height="83"/>
<path d="M40.793 102C33.4596 102 27.1596 100.533 21.893 97.6C16.693 94.6 12.693 90.4 9.89297 85C7.09297 79.5333 5.69297 73.1 5.69297 65.7C5.69297 60.1667 6.49297 55.2 8.09297 50.8C9.69297 46.3333 11.993 42.5333 14.993 39.4C17.993 36.2 21.6596 33.7667 25.993 32.1C30.393 30.3667 35.3263 29.5 40.793 29.5C44.4596 29.5 48.0596 29.9667 51.593 30.9C55.1263 31.8333 58.2263 33.1667 60.893 34.9C62.293 35.7667 63.2263 36.8333 63.693 38.1C64.1596 39.3 64.2596 40.5 63.993 41.7C63.7263 42.8333 63.1596 43.8 62.293 44.6C61.493 45.4 60.4596 45.8667 59.193 46C57.993 46.0667 56.6596 45.6333 55.193 44.7C53.1263 43.3667 50.893 42.4 48.493 41.8C46.093 41.2 43.6596 40.9 41.193 40.9C36.4596 40.9 32.4596 41.8667 29.193 43.8C25.9263 45.7333 23.4596 48.5333 21.793 52.2C20.1263 55.8667 19.293 60.3667 19.293 65.7C19.293 70.9667 20.1263 75.4667 21.793 79.2C23.4596 82.9333 25.9263 85.7667 29.193 87.7C32.4596 89.6333 36.4596 90.6 41.193 90.6C43.7263 90.6 46.2263 90.3 48.693 89.7C51.1596 89.0333 53.493 88.0333 55.693 86.7C57.1596 85.8333 58.4596 85.4667 59.593 85.6C60.793 85.6667 61.793 86.0667 62.593 86.8C63.393 87.5333 63.9263 88.4667 64.193 89.6C64.4596 90.6667 64.393 91.8 63.993 93C63.593 94.1333 62.793 95.1333 61.593 96C58.9263 97.9333 55.7263 99.4333 51.993 100.5C48.3263 101.5 44.593 102 40.793 102ZM281.936 102C274.136 102 267.536 100.533 262.136 97.6C256.803 94.6667 252.736 90.5 249.936 85.1C247.136 79.7 245.736 73.3 245.736 65.9C245.736 60.3 246.536 55.2667 248.136 50.8C249.803 46.3333 252.169 42.5333 255.236 39.4C258.369 36.2 262.169 33.7667 266.636 32.1C271.103 30.3667 276.169 29.5 281.836 29.5C285.569 29.5 289.303 29.9667 293.036 30.9C296.836 31.7667 300.403 33.2667 303.736 35.4C304.869 36.1333 305.603 37.0333 305.936 38.1C306.336 39.1667 306.403 40.2667 306.136 41.4C305.869 42.4667 305.369 43.4 304.636 44.2C303.903 45 302.969 45.5 301.836 45.7C300.769 45.9 299.569 45.6333 298.236 44.9C295.703 43.4333 293.136 42.3667 290.536 41.7C287.936 41.0333 285.036 40.7 281.836 40.7C276.903 40.7 272.736 41.7 269.336 43.7C265.936 45.6333 263.369 48.4667 261.636 52.2C259.969 55.9333 259.136 60.5 259.136 65.9C259.136 74.1 261.103 80.3333 265.036 84.6C268.969 88.8667 274.803 91 282.536 91C285.203 91 287.903 90.7333 290.636 90.2C293.369 89.6667 296.036 88.9333 298.636 88L296.136 93.7V72.4H285.136C283.469 72.4 282.169 71.9667 281.236 71.1C280.369 70.2333 279.936 69.0667 279.936 67.6C279.936 66.0667 280.369 64.9 281.236 64.1C282.169 63.3 283.469 62.9 285.136 62.9H301.636C303.303 62.9 304.569 63.3667 305.436 64.3C306.369 65.1667 306.836 66.4333 306.836 68.1V92.4C306.836 93.8667 306.536 95.1 305.936 96.1C305.403 97.1 304.503 97.8333 303.236 98.3C300.303 99.3667 296.936 100.267 293.136 101C289.336 101.667 285.603 102 281.936 102ZM499.955 101.8C497.889 101.8 496.289 101.233 495.155 100.1C494.089 98.9 493.555 97.2667 493.555 95.2V41.2H474.055C472.322 41.2 470.955 40.7333 469.955 39.8C469.022 38.8 468.555 37.4667 468.555 35.8C468.555 34.0667 469.022 32.7667 469.955 31.9C470.955 30.9667 472.322 30.5 474.055 30.5H525.855C527.589 30.5 528.922 30.9667 529.855 31.9C530.855 32.7667 531.355 34.0667 531.355 35.8C531.355 37.4667 530.855 38.8 529.855 39.8C528.922 40.7333 527.589 41.2 525.855 41.2H506.355V95.2C506.355 97.2667 505.822 98.9 504.755 100.1C503.689 101.233 502.089 101.8 499.955 101.8Z"/>
<path d="M112.316 102C105.516 102 99.549 100.5 94.4156 97.5C89.349 94.5 85.4156 90.3 82.6156 84.9C79.8156 79.4333 78.4156 73.0333 78.4156 65.7C78.4156 60.1667 79.2156 55.2 80.8156 50.8C82.4156 46.3333 84.6823 42.5333 87.6156 39.4C90.6156 36.2 94.1823 33.7667 98.3156 32.1C102.516 30.3667 107.182 29.5 112.316 29.5C119.182 29.5 125.149 31 130.216 34C135.282 36.9333 139.216 41.1 142.016 46.5C144.816 51.9 146.216 58.2667 146.216 65.6C146.216 71.1333 145.416 76.1333 143.816 80.6C142.216 85.0667 139.916 88.9 136.916 92.1C133.982 95.3 130.416 97.7667 126.216 99.5C122.082 101.167 117.449 102 112.316 102ZM112.316 91C116.649 91 120.316 90 123.316 88C126.382 86 128.716 83.1 130.316 79.3C131.982 75.5 132.816 70.9667 132.816 65.7C132.816 57.7 131.016 51.5 127.416 47.1C123.882 42.7 118.849 40.5 112.316 40.5C108.049 40.5 104.382 41.5 101.316 43.5C98.249 45.4333 95.8823 48.3 94.2156 52.1C92.6156 55.8333 91.8156 60.3667 91.8156 65.7C91.8156 73.6333 93.6156 79.8333 97.2156 84.3C100.816 88.7667 105.849 91 112.316 91ZM335.069 101.8C333.002 101.8 331.402 101.233 330.269 100.1C329.202 98.9 328.669 97.2667 328.669 95.2V37C328.669 34.8667 329.235 33.2667 330.369 32.2C331.502 31.0667 333.102 30.5 335.169 30.5H359.269C367.002 30.5 372.969 32.3667 377.169 36.1C381.369 39.7667 383.469 44.9333 383.469 51.6C383.469 55.9333 382.502 59.6667 380.569 62.8C378.702 65.9333 375.969 68.3333 372.369 70C368.769 71.6667 364.402 72.5 359.269 72.5L360.169 71H363.469C366.202 71 368.569 71.6667 370.569 73C372.635 74.3333 374.435 76.4333 375.969 79.3L383.469 93.2C384.269 94.6 384.635 95.9667 384.569 97.3C384.502 98.6333 384.002 99.7333 383.069 100.6C382.135 101.4 380.769 101.8 378.969 101.8C377.169 101.8 375.702 101.433 374.569 100.7C373.435 99.9 372.435 98.7 371.569 97.1L361.469 78.5C360.269 76.2333 358.835 74.7333 357.169 74C355.569 73.2 353.502 72.8 350.969 72.8H341.469V95.2C341.469 97.2667 340.935 98.9 339.869 100.1C338.802 101.233 337.202 101.8 335.069 101.8ZM341.469 63.3H357.069C361.669 63.3 365.135 62.3667 367.469 60.5C369.869 58.5667 371.069 55.7 371.069 51.9C371.069 48.1667 369.869 45.3667 367.469 43.5C365.135 41.5667 361.669 40.6 357.069 40.6H341.469V63.3Z"/>
<path d="M172.231 101.8C170.298 101.8 168.798 101.267 167.731 100.2C166.731 99.1333 166.231 97.6 166.231 95.6V36.1C166.231 34.0333 166.731 32.4667 167.731 31.4C168.798 30.2667 170.165 29.7 171.831 29.7C173.365 29.7 174.498 30 175.231 30.6C176.031 31.1333 176.965 32.0667 178.031 33.4L216.331 83.1H213.731V35.8C213.731 33.8667 214.231 32.3667 215.231 31.3C216.298 30.2333 217.798 29.7 219.731 29.7C221.665 29.7 223.131 30.2333 224.131 31.3C225.131 32.3667 225.631 33.8667 225.631 35.8V95.8C225.631 97.6667 225.165 99.1333 224.231 100.2C223.298 101.267 222.031 101.8 220.431 101.8C218.898 101.8 217.665 101.5 216.731 100.9C215.865 100.3 214.898 99.3333 213.831 98L175.631 48.3H178.131V95.6C178.131 97.6 177.631 99.1333 176.631 100.2C175.631 101.267 174.165 101.8 172.231 101.8ZM567.621 102C564.688 102 561.754 101.767 558.821 101.3C555.888 100.9 553.121 100.267 550.521 99.4C547.921 98.4667 545.588 97.3333 543.521 96C542.321 95.2 541.488 94.2333 541.021 93.1C540.554 91.9667 540.388 90.8667 540.521 89.8C540.721 88.6667 541.154 87.7 541.821 86.9C542.554 86.0333 543.454 85.5 544.521 85.3C545.588 85.1 546.754 85.4 548.021 86.2C550.954 87.9333 554.054 89.2 557.321 90C560.588 90.8 564.021 91.2 567.621 91.2C572.888 91.2 576.721 90.3333 579.121 88.6C581.521 86.8 582.721 84.5 582.721 81.7C582.721 79.3667 581.854 77.5333 580.121 76.2C578.454 74.8667 575.554 73.7667 571.421 72.9L560.421 70.6C554.088 69.2667 549.354 67.0333 546.221 63.9C543.154 60.7 541.621 56.5 541.621 51.3C541.621 48.0333 542.288 45.0667 543.621 42.4C544.954 39.7333 546.821 37.4333 549.221 35.5C551.688 33.5667 554.588 32.1 557.921 31.1C561.321 30.0333 565.054 29.5 569.121 29.5C573.121 29.5 576.921 30 580.521 31C584.121 32 587.354 33.4667 590.221 35.4C591.288 36.1333 591.988 37.0333 592.321 38.1C592.721 39.1667 592.821 40.2333 592.621 41.3C592.421 42.3 591.954 43.1667 591.221 43.9C590.488 44.6333 589.554 45.0667 588.421 45.2C587.354 45.3333 586.121 45 584.721 44.2C582.254 42.8 579.754 41.8 577.221 41.2C574.688 40.6 571.954 40.3 569.021 40.3C565.954 40.3 563.321 40.7333 561.121 41.6C558.921 42.4667 557.221 43.7 556.021 45.3C554.888 46.8333 554.321 48.6667 554.321 50.8C554.321 53.2 555.121 55.1333 556.721 56.6C558.321 58 561.054 59.1 564.921 59.9L575.821 62.2C582.421 63.6 587.321 65.8 590.521 68.8C593.788 71.8 595.421 75.8 595.421 80.8C595.421 84 594.754 86.9 593.421 89.5C592.154 92.1 590.288 94.3333 587.821 96.2C585.421 98.0667 582.521 99.5 579.121 100.5C575.721 101.5 571.888 102 567.621 102Z"/>
<path d="M403.654 101.8C402.054 101.8 400.754 101.433 399.754 100.7C398.821 99.9667 398.254 99 398.054 97.8C397.854 96.5333 398.087 95.1333 398.754 93.6L425.154 35.1C426.021 33.1667 427.054 31.8 428.254 31C429.521 30.1333 430.954 29.7 432.554 29.7C434.087 29.7 435.454 30.1333 436.654 31C437.921 31.8 438.987 33.1667 439.854 35.1L466.354 93.6C467.087 95.1333 467.354 96.5333 467.154 97.8C466.954 99.0667 466.387 100.067 465.454 100.8C464.521 101.467 463.287 101.8 461.754 101.8C459.887 101.8 458.421 101.367 457.354 100.5C456.354 99.5667 455.454 98.1667 454.654 96.3L448.154 81.2L453.554 84.7H411.354L416.754 81.2L410.354 96.3C409.487 98.2333 408.587 99.6333 407.654 100.5C406.721 101.367 405.387 101.8 403.654 101.8ZM432.354 44.4L418.354 77.7L415.754 74.5H449.154L446.654 77.7L432.554 44.4H432.354Z"/>
</mask>
<path d="M40.793 102C33.4596 102 27.1596 100.533 21.893 97.6C16.693 94.6 12.693 90.4 9.89297 85C7.09297 79.5333 5.69297 73.1 5.69297 65.7C5.69297 60.1667 6.49297 55.2 8.09297 50.8C9.69297 46.3333 11.993 42.5333 14.993 39.4C17.993 36.2 21.6596 33.7667 25.993 32.1C30.393 30.3667 35.3263 29.5 40.793 29.5C44.4596 29.5 48.0596 29.9667 51.593 30.9C55.1263 31.8333 58.2263 33.1667 60.893 34.9C62.293 35.7667 63.2263 36.8333 63.693 38.1C64.1596 39.3 64.2596 40.5 63.993 41.7C63.7263 42.8333 63.1596 43.8 62.293 44.6C61.493 45.4 60.4596 45.8667 59.193 46C57.993 46.0667 56.6596 45.6333 55.193 44.7C53.1263 43.3667 50.893 42.4 48.493 41.8C46.093 41.2 43.6596 40.9 41.193 40.9C36.4596 40.9 32.4596 41.8667 29.193 43.8C25.9263 45.7333 23.4596 48.5333 21.793 52.2C20.1263 55.8667 19.293 60.3667 19.293 65.7C19.293 70.9667 20.1263 75.4667 21.793 79.2C23.4596 82.9333 25.9263 85.7667 29.193 87.7C32.4596 89.6333 36.4596 90.6 41.193 90.6C43.7263 90.6 46.2263 90.3 48.693 89.7C51.1596 89.0333 53.493 88.0333 55.693 86.7C57.1596 85.8333 58.4596 85.4667 59.593 85.6C60.793 85.6667 61.793 86.0667 62.593 86.8C63.393 87.5333 63.9263 88.4667 64.193 89.6C64.4596 90.6667 64.393 91.8 63.993 93C63.593 94.1333 62.793 95.1333 61.593 96C58.9263 97.9333 55.7263 99.4333 51.993 100.5C48.3263 101.5 44.593 102 40.793 102ZM281.936 102C274.136 102 267.536 100.533 262.136 97.6C256.803 94.6667 252.736 90.5 249.936 85.1C247.136 79.7 245.736 73.3 245.736 65.9C245.736 60.3 246.536 55.2667 248.136 50.8C249.803 46.3333 252.169 42.5333 255.236 39.4C258.369 36.2 262.169 33.7667 266.636 32.1C271.103 30.3667 276.169 29.5 281.836 29.5C285.569 29.5 289.303 29.9667 293.036 30.9C296.836 31.7667 300.403 33.2667 303.736 35.4C304.869 36.1333 305.603 37.0333 305.936 38.1C306.336 39.1667 306.403 40.2667 306.136 41.4C305.869 42.4667 305.369 43.4 304.636 44.2C303.903 45 302.969 45.5 301.836 45.7C300.769 45.9 299.569 45.6333 298.236 44.9C295.703 43.4333 293.136 42.3667 290.536 41.7C287.936 41.0333 285.036 40.7 281.836 40.7C276.903 40.7 272.736 41.7 269.336 43.7C265.936 45.6333 263.369 48.4667 261.636 52.2C259.969 55.9333 259.136 60.5 259.136 65.9C259.136 74.1 261.103 80.3333 265.036 84.6C268.969 88.8667 274.803 91 282.536 91C285.203 91 287.903 90.7333 290.636 90.2C293.369 89.6667 296.036 88.9333 298.636 88L296.136 93.7V72.4H285.136C283.469 72.4 282.169 71.9667 281.236 71.1C280.369 70.2333 279.936 69.0667 279.936 67.6C279.936 66.0667 280.369 64.9 281.236 64.1C282.169 63.3 283.469 62.9 285.136 62.9H301.636C303.303 62.9 304.569 63.3667 305.436 64.3C306.369 65.1667 306.836 66.4333 306.836 68.1V92.4C306.836 93.8667 306.536 95.1 305.936 96.1C305.403 97.1 304.503 97.8333 303.236 98.3C300.303 99.3667 296.936 100.267 293.136 101C289.336 101.667 285.603 102 281.936 102ZM499.955 101.8C497.889 101.8 496.289 101.233 495.155 100.1C494.089 98.9 493.555 97.2667 493.555 95.2V41.2H474.055C472.322 41.2 470.955 40.7333 469.955 39.8C469.022 38.8 468.555 37.4667 468.555 35.8C468.555 34.0667 469.022 32.7667 469.955 31.9C470.955 30.9667 472.322 30.5 474.055 30.5H525.855C527.589 30.5 528.922 30.9667 529.855 31.9C530.855 32.7667 531.355 34.0667 531.355 35.8C531.355 37.4667 530.855 38.8 529.855 39.8C528.922 40.7333 527.589 41.2 525.855 41.2H506.355V95.2C506.355 97.2667 505.822 98.9 504.755 100.1C503.689 101.233 502.089 101.8 499.955 101.8Z" fill="#F46523"/>
<path d="M112.316 102C105.516 102 99.549 100.5 94.4156 97.5C89.349 94.5 85.4156 90.3 82.6156 84.9C79.8156 79.4333 78.4156 73.0333 78.4156 65.7C78.4156 60.1667 79.2156 55.2 80.8156 50.8C82.4156 46.3333 84.6823 42.5333 87.6156 39.4C90.6156 36.2 94.1823 33.7667 98.3156 32.1C102.516 30.3667 107.182 29.5 112.316 29.5C119.182 29.5 125.149 31 130.216 34C135.282 36.9333 139.216 41.1 142.016 46.5C144.816 51.9 146.216 58.2667 146.216 65.6C146.216 71.1333 145.416 76.1333 143.816 80.6C142.216 85.0667 139.916 88.9 136.916 92.1C133.982 95.3 130.416 97.7667 126.216 99.5C122.082 101.167 117.449 102 112.316 102ZM112.316 91C116.649 91 120.316 90 123.316 88C126.382 86 128.716 83.1 130.316 79.3C131.982 75.5 132.816 70.9667 132.816 65.7C132.816 57.7 131.016 51.5 127.416 47.1C123.882 42.7 118.849 40.5 112.316 40.5C108.049 40.5 104.382 41.5 101.316 43.5C98.249 45.4333 95.8823 48.3 94.2156 52.1C92.6156 55.8333 91.8156 60.3667 91.8156 65.7C91.8156 73.6333 93.6156 79.8333 97.2156 84.3C100.816 88.7667 105.849 91 112.316 91ZM335.069 101.8C333.002 101.8 331.402 101.233 330.269 100.1C329.202 98.9 328.669 97.2667 328.669 95.2V37C328.669 34.8667 329.235 33.2667 330.369 32.2C331.502 31.0667 333.102 30.5 335.169 30.5H359.269C367.002 30.5 372.969 32.3667 377.169 36.1C381.369 39.7667 383.469 44.9333 383.469 51.6C383.469 55.9333 382.502 59.6667 380.569 62.8C378.702 65.9333 375.969 68.3333 372.369 70C368.769 71.6667 364.402 72.5 359.269 72.5L360.169 71H363.469C366.202 71 368.569 71.6667 370.569 73C372.635 74.3333 374.435 76.4333 375.969 79.3L383.469 93.2C384.269 94.6 384.635 95.9667 384.569 97.3C384.502 98.6333 384.002 99.7333 383.069 100.6C382.135 101.4 380.769 101.8 378.969 101.8C377.169 101.8 375.702 101.433 374.569 100.7C373.435 99.9 372.435 98.7 371.569 97.1L361.469 78.5C360.269 76.2333 358.835 74.7333 357.169 74C355.569 73.2 353.502 72.8 350.969 72.8H341.469V95.2C341.469 97.2667 340.935 98.9 339.869 100.1C338.802 101.233 337.202 101.8 335.069 101.8ZM341.469 63.3H357.069C361.669 63.3 365.135 62.3667 367.469 60.5C369.869 58.5667 371.069 55.7 371.069 51.9C371.069 48.1667 369.869 45.3667 367.469 43.5C365.135 41.5667 361.669 40.6 357.069 40.6H341.469V63.3Z" fill="#FED105"/>
<path d="M172.231 101.8C170.298 101.8 168.798 101.267 167.731 100.2C166.731 99.1333 166.231 97.6 166.231 95.6V36.1C166.231 34.0333 166.731 32.4667 167.731 31.4C168.798 30.2667 170.165 29.7 171.831 29.7C173.365 29.7 174.498 30 175.231 30.6C176.031 31.1333 176.965 32.0667 178.031 33.4L216.331 83.1H213.731V35.8C213.731 33.8667 214.231 32.3667 215.231 31.3C216.298 30.2333 217.798 29.7 219.731 29.7C221.665 29.7 223.131 30.2333 224.131 31.3C225.131 32.3667 225.631 33.8667 225.631 35.8V95.8C225.631 97.6667 225.165 99.1333 224.231 100.2C223.298 101.267 222.031 101.8 220.431 101.8C218.898 101.8 217.665 101.5 216.731 100.9C215.865 100.3 214.898 99.3333 213.831 98L175.631 48.3H178.131V95.6C178.131 97.6 177.631 99.1333 176.631 100.2C175.631 101.267 174.165 101.8 172.231 101.8ZM567.621 102C564.688 102 561.754 101.767 558.821 101.3C555.888 100.9 553.121 100.267 550.521 99.4C547.921 98.4667 545.588 97.3333 543.521 96C542.321 95.2 541.488 94.2333 541.021 93.1C540.554 91.9667 540.388 90.8667 540.521 89.8C540.721 88.6667 541.154 87.7 541.821 86.9C542.554 86.0333 543.454 85.5 544.521 85.3C545.588 85.1 546.754 85.4 548.021 86.2C550.954 87.9333 554.054 89.2 557.321 90C560.588 90.8 564.021 91.2 567.621 91.2C572.888 91.2 576.721 90.3333 579.121 88.6C581.521 86.8 582.721 84.5 582.721 81.7C582.721 79.3667 581.854 77.5333 580.121 76.2C578.454 74.8667 575.554 73.7667 571.421 72.9L560.421 70.6C554.088 69.2667 549.354 67.0333 546.221 63.9C543.154 60.7 541.621 56.5 541.621 51.3C541.621 48.0333 542.288 45.0667 543.621 42.4C544.954 39.7333 546.821 37.4333 549.221 35.5C551.688 33.5667 554.588 32.1 557.921 31.1C561.321 30.0333 565.054 29.5 569.121 29.5C573.121 29.5 576.921 30 580.521 31C584.121 32 587.354 33.4667 590.221 35.4C591.288 36.1333 591.988 37.0333 592.321 38.1C592.721 39.1667 592.821 40.2333 592.621 41.3C592.421 42.3 591.954 43.1667 591.221 43.9C590.488 44.6333 589.554 45.0667 588.421 45.2C587.354 45.3333 586.121 45 584.721 44.2C582.254 42.8 579.754 41.8 577.221 41.2C574.688 40.6 571.954 40.3 569.021 40.3C565.954 40.3 563.321 40.7333 561.121 41.6C558.921 42.4667 557.221 43.7 556.021 45.3C554.888 46.8333 554.321 48.6667 554.321 50.8C554.321 53.2 555.121 55.1333 556.721 56.6C558.321 58 561.054 59.1 564.921 59.9L575.821 62.2C582.421 63.6 587.321 65.8 590.521 68.8C593.788 71.8 595.421 75.8 595.421 80.8C595.421 84 594.754 86.9 593.421 89.5C592.154 92.1 590.288 94.3333 587.821 96.2C585.421 98.0667 582.521 99.5 579.121 100.5C575.721 101.5 571.888 102 567.621 102Z" fill="#045698"/>
<path d="M403.654 101.8C402.054 101.8 400.754 101.433 399.754 100.7C398.821 99.9667 398.254 99 398.054 97.8C397.854 96.5333 398.087 95.1333 398.754 93.6L425.154 35.1C426.021 33.1667 427.054 31.8 428.254 31C429.521 30.1333 430.954 29.7 432.554 29.7C434.087 29.7 435.454 30.1333 436.654 31C437.921 31.8 438.987 33.1667 439.854 35.1L466.354 93.6C467.087 95.1333 467.354 96.5333 467.154 97.8C466.954 99.0667 466.387 100.067 465.454 100.8C464.521 101.467 463.287 101.8 461.754 101.8C459.887 101.8 458.421 101.367 457.354 100.5C456.354 99.5667 455.454 98.1667 454.654 96.3L448.154 81.2L453.554 84.7H411.354L416.754 81.2L410.354 96.3C409.487 98.2333 408.587 99.6333 407.654 100.5C406.721 101.367 405.387 101.8 403.654 101.8ZM432.354 44.4L418.354 77.7L415.754 74.5H449.154L446.654 77.7L432.554 44.4H432.354Z" fill="#346A2E"/>
<path d="M21.893 97.6L19.3944 101.931L19.4271 101.95L19.4601 101.968L21.893 97.6ZM9.89297 85L5.44275 87.2794L5.44845 87.2905L5.4542 87.3016L9.89297 85ZM8.09297 50.8L12.7919 52.5087L12.796 52.4974L12.8001 52.4861L8.09297 50.8ZM14.993 39.4L18.6045 42.8578L18.6227 42.8389L18.6407 42.8197L14.993 39.4ZM25.993 32.1L27.7879 36.7667L27.8068 36.7595L27.8256 36.752L25.993 32.1ZM51.593 30.9L50.316 35.7342L50.316 35.7342L51.593 30.9ZM60.893 34.9L58.168 39.0922L58.2143 39.1223L58.2612 39.1513L60.893 34.9ZM63.693 38.1L59.0013 39.8285L59.0167 39.8705L59.0329 39.9122L63.693 38.1ZM63.993 41.7L68.8601 42.8452L68.8672 42.815L68.8739 42.7847L63.993 41.7ZM62.293 44.6L58.9016 40.926L58.8281 40.9938L58.7574 41.0645L62.293 44.6ZM59.193 46L59.4703 50.9923L59.5936 50.9855L59.7164 50.9725L59.193 46ZM55.193 44.7L52.4823 48.9015L52.4954 48.9099L52.5086 48.9183L55.193 44.7ZM48.493 41.8L49.7057 36.9493L49.7056 36.9493L48.493 41.8ZM29.193 43.8L26.6464 39.4971L26.6464 39.4971L29.193 43.8ZM21.793 52.2L17.2411 50.131L17.2411 50.131L21.793 52.2ZM21.793 79.2L17.2273 81.2383L17.2273 81.2383L21.793 79.2ZM29.193 87.7L26.6464 92.0029L26.6464 92.0029L29.193 87.7ZM48.693 89.7L49.8747 94.5583L49.9363 94.5434L49.9975 94.5268L48.693 89.7ZM55.693 86.7L53.1493 82.3954L53.1253 82.4096L53.1015 82.424L55.693 86.7ZM59.593 85.6L59.0088 90.5658L59.1618 90.5838L59.3156 90.5923L59.593 85.6ZM62.593 86.8L59.2144 90.4858L59.2144 90.4858L62.593 86.8ZM64.193 89.6L59.3259 90.7452L59.3338 90.779L59.3423 90.8127L64.193 89.6ZM63.993 93L68.7079 94.6641L68.7225 94.6227L68.7364 94.5811L63.993 93ZM61.593 96L58.6655 91.9466L58.6581 91.9519L61.593 96ZM51.993 100.5L53.3086 105.324L53.3376 105.316L53.3666 105.308L51.993 100.5ZM40.793 97C34.128 97 28.7035 95.67 24.3259 93.2318L19.4601 101.968C25.6158 105.397 32.7913 107 40.793 107V97ZM24.3916 93.2691C20.0304 90.753 16.6983 87.2624 14.3317 82.6984L5.4542 87.3016C8.68766 93.5376 13.3556 98.447 19.3944 101.931L24.3916 93.2691ZM14.3432 82.7206C11.9713 78.0898 10.693 72.4681 10.693 65.7H0.692969C0.692969 73.7319 2.21463 80.9769 5.44275 87.2794L14.3432 82.7206ZM10.693 65.7C10.693 60.6459 11.4236 56.2715 12.7919 52.5087L3.394 49.0913C1.5623 54.1285 0.692969 59.6874 0.692969 65.7H10.693ZM12.8001 52.4861C14.1857 48.6179 16.134 45.4382 18.6045 42.8578L11.3814 35.9421C7.85196 39.6285 5.2002 44.0488 3.38585 49.1139L12.8001 52.4861ZM18.6407 42.8197C21.095 40.2018 24.1161 38.1789 27.7879 36.7667L24.1981 27.4333C19.2032 29.3544 14.891 32.1982 11.3453 35.9803L18.6407 42.8197ZM27.8256 36.752C31.5584 35.2815 35.857 34.5 40.793 34.5V24.5C34.7956 24.5 29.2276 25.4518 24.1603 27.448L27.8256 36.752ZM40.793 34.5C44.0301 34.5 47.2008 34.9113 50.316 35.7342L52.8699 26.0658C48.9185 25.022 44.8892 24.5 40.793 24.5V34.5ZM50.316 35.7342C53.4108 36.5517 56.0076 37.688 58.168 39.0922L63.6179 30.7078C60.445 28.6454 56.8418 27.115 52.8699 26.0658L50.316 35.7342ZM58.2612 39.1513C58.9267 39.5633 58.9994 39.8235 59.0013 39.8285L68.3847 36.3715C67.4532 33.8432 65.6593 31.97 63.5247 30.6487L58.2612 39.1513ZM59.0329 39.9122C59.1588 40.2359 59.1535 40.4288 59.112 40.6153L68.8739 42.7847C69.3658 40.5712 69.1604 38.3641 68.353 36.2878L59.0329 39.9122ZM59.1259 40.5548C59.0909 40.7034 59.0452 40.7934 58.9016 40.926L65.6844 48.274C67.2741 46.8066 68.3617 44.9632 68.8601 42.8452L59.1259 40.5548ZM58.7574 41.0645C58.7674 41.0545 58.7843 41.0395 58.8071 41.0238C58.8298 41.0082 58.849 40.9981 58.86 40.9931C58.8706 40.9884 58.8649 40.9922 58.8371 40.9994C58.8087 41.0068 58.7546 41.0185 58.6695 41.0275L59.7164 50.9725C61.9704 50.7353 64.117 49.847 65.8285 48.1355L58.7574 41.0645ZM58.9156 41.0077C59.1318 40.9957 58.8396 41.0941 57.8773 40.4817L52.5086 48.9183C54.4796 50.1726 56.8542 51.1376 59.4703 50.9923L58.9156 41.0077ZM57.9036 40.4985C55.3738 38.8664 52.634 37.6814 49.7057 36.9493L47.2803 46.6507C49.152 47.1186 50.8788 47.8669 52.4823 48.9015L57.9036 40.4985ZM49.7056 36.9493C46.9102 36.2504 44.0696 35.9 41.193 35.9V45.9C43.2496 45.9 45.2757 46.1496 47.2803 46.6507L49.7056 36.9493ZM41.193 35.9C35.7829 35.9 30.8532 37.0074 26.6464 39.4971L31.7396 48.1029C34.0661 46.726 37.1364 45.9 41.193 45.9V35.9ZM26.6464 39.4971C22.443 41.9848 19.3043 45.5921 17.2411 50.131L26.3448 54.269C27.615 51.4746 29.4096 49.4819 31.7396 48.1029L26.6464 39.4971ZM17.2411 50.131C15.1998 54.6219 14.293 59.8733 14.293 65.7H24.293C24.293 60.8601 25.0528 57.1114 26.3448 54.269L17.2411 50.131ZM14.293 65.7C14.293 71.4747 15.2044 76.7071 17.2273 81.2383L26.3587 77.1617C25.0482 74.2262 24.293 70.4587 24.293 65.7H14.293ZM17.2273 81.2383C19.2819 85.8405 22.4185 89.5007 26.6464 92.0029L31.7396 83.3971C29.4341 82.0326 27.6374 80.0262 26.3587 77.1617L17.2273 81.2383ZM26.6464 92.0029C30.8532 94.4926 35.7829 95.6 41.193 95.6V85.6C37.1364 85.6 34.0661 84.774 31.7396 83.3971L26.6464 92.0029ZM41.193 95.6C44.1253 95.6 47.022 95.2522 49.8747 94.5583L47.5112 84.8417C45.4306 85.3478 43.3273 85.6 41.193 85.6V95.6ZM49.9975 94.5268C52.92 93.737 55.6862 92.5507 58.2845 90.976L53.1015 82.424C51.2997 83.516 49.3993 84.3297 47.3884 84.8732L49.9975 94.5268ZM58.2366 91.0046C58.6901 90.7367 58.9826 90.6275 59.1253 90.5872C59.2582 90.5497 59.201 90.5884 59.0088 90.5658L60.1772 80.6342C57.5378 80.3237 55.1152 81.2337 53.1493 82.3954L58.2366 91.0046ZM59.3156 90.5923C59.3774 90.5957 59.4098 90.6019 59.4179 90.6037C59.4254 90.6053 59.4129 90.6031 59.386 90.5924C59.3587 90.5814 59.3257 90.5652 59.2914 90.5437C59.2572 90.5221 59.2312 90.5012 59.2144 90.4858L65.9716 83.1142C64.2272 81.5152 62.092 80.7311 59.8703 80.6077L59.3156 90.5923ZM59.2144 90.4858C59.2368 90.5064 59.2442 90.5174 59.2518 90.5307C59.2609 90.5466 59.2936 90.608 59.3259 90.7452L69.0601 88.4548C68.5811 86.4192 67.5662 84.5759 65.9716 83.1142L59.2144 90.4858ZM59.3423 90.8127C59.3452 90.8244 59.3951 90.9821 59.2496 91.4189L68.7364 94.5811C69.3908 92.6179 69.5741 90.5089 69.0437 88.3873L59.3423 90.8127ZM59.278 91.3359C59.2764 91.3404 59.2616 91.3853 59.1886 91.4765C59.1106 91.574 58.955 91.7375 58.6655 91.9466L64.5204 100.053C66.3524 98.7303 67.8977 96.9598 68.7079 94.6641L59.278 91.3359ZM58.6581 91.9519C56.5396 93.4879 53.89 94.7579 50.6194 95.6924L53.3666 105.308C57.5626 104.109 61.313 102.379 64.5278 100.048L58.6581 91.9519ZM50.6774 95.6762C47.4394 96.5593 44.1485 97 40.793 97V107C45.0375 107 49.2132 106.441 53.3086 105.324L50.6774 95.6762ZM94.4156 97.5L91.8682 101.802L91.8805 101.81L91.8928 101.817L94.4156 97.5ZM82.6156 84.9L78.1654 87.1794L78.1711 87.1905L78.1769 87.2016L82.6156 84.9ZM80.8156 50.8L85.5146 52.5087L85.5187 52.4974L85.5227 52.4861L80.8156 50.8ZM87.6156 39.4L83.9679 35.9803L83.9655 35.9829L87.6156 39.4ZM98.3156 32.1L100.185 36.7372L100.204 36.7296L100.223 36.7219L98.3156 32.1ZM130.216 34L127.668 38.3024L127.689 38.3149L127.71 38.3271L130.216 34ZM142.016 46.5L146.454 44.1984L146.454 44.1984L142.016 46.5ZM143.816 80.6L139.109 78.9139L139.109 78.9139L143.816 80.6ZM136.916 92.1L133.268 88.6803L133.249 88.7007L133.23 88.7214L136.916 92.1ZM126.216 99.5L128.085 104.137L128.104 104.13L128.123 104.122L126.216 99.5ZM123.316 88L120.584 83.8119L120.563 83.8257L120.542 83.8397L123.316 88ZM130.316 79.3L125.737 77.2917L125.722 77.3256L125.707 77.3597L130.316 79.3ZM127.416 47.1L123.517 50.2307L123.531 50.2485L123.546 50.2662L127.416 47.1ZM101.316 43.5L103.982 47.7296L104.015 47.7091L104.047 47.688L101.316 43.5ZM94.2156 52.1L89.6367 50.0917L89.6282 50.111L89.6199 50.1304L94.2156 52.1ZM97.2156 84.3L101.109 81.1624L101.109 81.1624L97.2156 84.3ZM112.316 97C106.273 97 101.202 95.6746 96.9385 93.1831L91.8928 101.817C97.8962 105.325 104.759 107 112.316 107V97ZM96.9631 93.1976C92.7292 90.6907 89.4386 87.1965 87.0544 82.5984L78.1769 87.2016C81.3927 93.4035 85.9687 98.3093 91.8682 101.802L96.9631 93.1976ZM87.0658 82.6206C84.6909 77.9838 83.4156 72.3934 83.4156 65.7H73.4156C73.4156 73.6733 74.9404 80.8829 78.1654 87.1794L87.0658 82.6206ZM83.4156 65.7C83.4156 60.6459 84.1463 56.2715 85.5146 52.5087L76.1167 49.0913C74.285 54.1285 73.4156 59.6874 73.4156 65.7H83.4156ZM85.5227 52.4861C86.9168 48.5945 88.8463 45.4015 91.2657 42.8171L83.9655 35.9829C80.5182 39.6652 77.9145 44.0722 76.1085 49.1139L85.5227 52.4861ZM91.2633 42.8197C93.7581 40.1586 96.715 38.1366 100.185 36.7372L96.4458 27.4628C91.6496 29.3968 87.4732 32.2414 83.9679 35.9803L91.2633 42.8197ZM100.223 36.7219C103.745 35.2686 107.752 34.5 112.316 34.5V24.5C106.612 24.5 101.287 25.4648 96.4082 27.4781L100.223 36.7219ZM112.316 34.5C118.437 34.5 123.493 35.8302 127.668 38.3024L132.763 29.6976C126.805 26.1698 119.928 24.5 112.316 24.5V34.5ZM127.71 38.3271C131.92 40.764 135.197 44.2124 137.577 48.8016L146.454 44.1984C143.234 37.9875 138.645 33.1026 132.721 29.6729L127.71 38.3271ZM137.577 48.8016C139.94 53.3584 141.216 58.9045 141.216 65.6H151.216C151.216 57.6288 149.692 50.4415 146.454 44.1984L137.577 48.8016ZM141.216 65.6C141.216 70.6523 140.485 75.0699 139.109 78.9139L148.523 82.2861C150.346 77.1968 151.216 71.6144 151.216 65.6H141.216ZM139.109 78.9139C137.72 82.7895 135.763 86.0192 133.268 88.6803L140.563 95.5197C144.069 91.7808 146.711 87.3439 148.523 82.2861L139.109 78.9139ZM133.23 88.7214C130.814 91.3566 127.864 93.4107 124.308 94.8781L128.123 104.122C132.967 102.123 137.15 99.2434 140.601 95.4786L133.23 88.7214ZM124.346 94.8628C120.89 96.2563 116.904 97 112.316 97V107C117.993 107 123.275 106.077 128.085 104.137L124.346 94.8628ZM112.316 96C117.434 96 122.114 94.8101 126.089 92.1602L120.542 83.8397C118.517 85.1899 115.864 86 112.316 86V96ZM126.047 92.1881C130.053 89.5757 132.987 85.8398 134.924 81.2403L125.707 77.3597C124.444 80.3602 122.712 82.4243 120.584 83.8119L126.047 92.1881ZM134.895 81.3083C136.903 76.7293 137.816 71.4786 137.816 65.7H127.816C127.816 70.4548 127.062 74.2707 125.737 77.2917L134.895 81.3083ZM137.816 65.7C137.816 57.0085 135.864 49.5294 131.285 43.9338L123.546 50.2662C126.168 53.4706 127.816 58.3915 127.816 65.7H137.816ZM131.314 43.9693C126.676 38.1929 120.096 35.5 112.316 35.5V45.5C117.602 45.5 121.089 47.2071 123.517 50.2307L131.314 43.9693ZM112.316 35.5C107.243 35.5 102.591 36.6992 98.5843 39.3119L104.047 47.688C106.174 46.3008 108.855 45.5 112.316 45.5V35.5ZM98.6491 39.2704C94.6196 41.8107 91.6448 45.5132 89.6367 50.0917L98.7946 54.1083C100.12 51.0867 101.878 49.0559 103.982 47.7296L98.6491 39.2704ZM89.6199 50.1304C87.6838 54.6481 86.8156 59.8913 86.8156 65.7H96.8156C96.8156 60.842 97.5475 57.0186 98.8114 54.0696L89.6199 50.1304ZM86.8156 65.7C86.8156 74.3427 88.7753 81.7956 93.3226 87.4376L101.109 81.1624C98.4559 77.8711 96.8156 72.924 96.8156 65.7H86.8156ZM93.3226 87.4376C98.0005 93.2416 104.554 96 112.316 96V86C107.144 86 103.631 84.2917 101.109 81.1624L93.3226 87.4376ZM167.731 100.2L164.084 103.62L164.139 103.679L164.196 103.736L167.731 100.2ZM167.731 31.4L164.09 27.9732L164.084 27.9803L167.731 31.4ZM175.231 30.6L172.065 34.4698L172.254 34.6246L172.458 34.7602L175.231 30.6ZM178.031 33.4L181.992 30.348L181.964 30.312L181.936 30.2765L178.031 33.4ZM216.331 83.1V88.1H226.497L220.292 80.048L216.331 83.1ZM213.731 83.1H208.731V88.1H213.731V83.1ZM215.231 31.3L211.696 27.7645L211.639 27.8215L211.584 27.8803L215.231 31.3ZM224.131 31.3L220.484 34.7197L220.484 34.7197L224.131 31.3ZM224.231 100.2L220.468 96.9075L220.468 96.9075L224.231 100.2ZM216.731 100.9L213.885 105.011L213.956 105.06L214.027 105.106L216.731 100.9ZM213.831 98L209.867 101.047L209.897 101.086L209.927 101.123L213.831 98ZM175.631 48.3V43.3H165.482L171.667 51.347L175.631 48.3ZM178.131 48.3H183.131V43.3H178.131V48.3ZM176.631 100.2L172.984 96.7803L172.984 96.7803L176.631 100.2ZM172.231 96.8C171.717 96.8 171.442 96.7284 171.331 96.6889C171.241 96.657 171.246 96.6437 171.267 96.6645L164.196 103.736C166.445 105.984 169.363 106.8 172.231 106.8V96.8ZM171.379 96.7803C171.43 96.8346 171.406 96.8424 171.36 96.6999C171.307 96.5372 171.231 96.1947 171.231 95.6H161.231C161.231 98.3966 161.937 101.33 164.084 103.62L171.379 96.7803ZM171.231 95.6V36.1H161.231V95.6H171.231ZM171.231 36.1C171.231 34.7776 171.551 34.6364 171.379 34.8197L164.084 27.9803C161.912 30.297 161.231 33.2891 161.231 36.1H171.231ZM171.372 34.8268C171.415 34.7815 171.442 34.7615 171.451 34.755C171.46 34.749 171.465 34.7464 171.471 34.7437C171.475 34.742 171.572 34.7 171.831 34.7V24.7C168.895 24.7 166.174 25.759 164.09 27.9732L171.372 34.8268ZM171.831 34.7C172.054 34.7 172.224 34.711 172.347 34.7249C172.471 34.7389 172.536 34.7543 172.552 34.7585C172.588 34.768 172.366 34.7161 172.065 34.4698L178.397 26.7302C176.365 25.0672 173.854 24.7 171.831 24.7V34.7ZM172.458 34.7602C172.62 34.8686 173.173 35.3315 174.127 36.5235L181.936 30.2765C180.756 28.8018 179.442 27.398 178.005 26.4397L172.458 34.7602ZM174.071 36.452L212.371 86.152L220.292 80.048L181.992 30.348L174.071 36.452ZM216.331 78.1H213.731V88.1H216.331V78.1ZM218.731 83.1V35.8H208.731V83.1H218.731ZM218.731 35.8C218.731 35.2554 218.803 34.9473 218.85 34.8061C218.89 34.6843 218.912 34.6846 218.879 34.7197L211.584 27.8803C209.465 30.1404 208.731 33.0165 208.731 35.8H218.731ZM218.767 34.8355C218.746 34.8563 218.741 34.843 218.831 34.8111C218.942 34.7716 219.217 34.7 219.731 34.7V24.7C216.863 24.7 213.945 25.5156 211.696 27.7645L218.767 34.8355ZM219.731 34.7C220.249 34.7 220.5 34.7726 220.573 34.799C220.606 34.811 220.601 34.8128 220.573 34.7948C220.544 34.776 220.512 34.7495 220.484 34.7197L227.779 27.8803C225.556 25.5093 222.58 24.7 219.731 24.7V34.7ZM220.484 34.7197C220.451 34.6846 220.472 34.6843 220.513 34.8061C220.56 34.9473 220.631 35.2554 220.631 35.8H230.631C230.631 33.0165 229.898 30.1404 227.779 27.8803L220.484 34.7197ZM220.631 35.8V95.8H230.631V35.8H220.631ZM220.631 95.8C220.631 96.3245 220.565 96.6322 220.517 96.784C220.474 96.9194 220.445 96.9343 220.468 96.9075L227.994 103.493C229.949 101.258 230.631 98.4872 230.631 95.8H220.631ZM220.468 96.9075C220.468 96.9075 220.47 96.906 220.472 96.9032C220.475 96.9005 220.479 96.8966 220.484 96.8917C220.495 96.8819 220.51 96.8696 220.528 96.8563C220.567 96.828 220.607 96.806 220.641 96.7918C220.674 96.7781 220.682 96.7792 220.654 96.7843C220.625 96.7898 220.554 96.8 220.431 96.8V106.8C223.266 106.8 225.983 105.791 227.994 103.493L220.468 96.9075ZM220.431 96.8C219.504 96.8 219.309 96.6131 219.435 96.6941L214.027 105.106C216.02 106.387 218.292 106.8 220.431 106.8V96.8ZM219.577 96.789C219.278 96.5821 218.662 96.0346 217.736 94.8765L209.927 101.123C211.134 102.632 212.451 104.018 213.885 105.011L219.577 96.789ZM217.796 94.953L179.596 45.253L171.667 51.347L209.867 101.047L217.796 94.953ZM175.631 53.3H178.131V43.3H175.631V53.3ZM173.131 48.3V95.6H183.131V48.3H173.131ZM173.131 95.6C173.131 96.1947 173.056 96.5372 173.003 96.6999C172.956 96.8424 172.933 96.8346 172.984 96.7803L180.279 103.62C182.425 101.33 183.131 98.3966 183.131 95.6H173.131ZM172.984 96.7803C173.012 96.7505 173.044 96.7239 173.073 96.7052C173.101 96.6872 173.106 96.689 173.073 96.701C173 96.7274 172.749 96.8 172.231 96.8V106.8C175.08 106.8 178.056 105.991 180.279 103.62L172.984 96.7803ZM262.136 97.6L259.726 101.981L259.738 101.987L259.749 101.994L262.136 97.6ZM249.936 85.1L245.497 87.4016L245.497 87.4016L249.936 85.1ZM248.136 50.8L243.451 49.052L243.44 49.0829L243.429 49.1139L248.136 50.8ZM255.236 39.4L251.663 35.9019L251.663 35.9027L255.236 39.4ZM266.636 32.1L268.384 36.7845L268.414 36.7731L268.445 36.7613L266.636 32.1ZM293.036 30.9L291.823 35.7507L291.874 35.7633L291.924 35.7748L293.036 30.9ZM303.736 35.4L306.452 31.2021L306.442 31.1954L306.431 31.1886L303.736 35.4ZM305.936 38.1L301.164 39.5914L301.205 39.7248L301.254 39.8556L305.936 38.1ZM306.136 41.4L310.987 42.6127L310.995 42.579L311.003 42.5452L306.136 41.4ZM304.636 44.2L300.95 40.8214L300.95 40.8214L304.636 44.2ZM301.836 45.7L300.967 40.7761L300.941 40.7807L300.914 40.7856L301.836 45.7ZM298.236 44.9L295.731 49.2271L295.778 49.2546L295.826 49.2811L298.236 44.9ZM290.536 41.7L291.778 36.8567L291.778 36.8567L290.536 41.7ZM269.336 43.7L271.807 48.0465L271.839 48.0283L271.871 48.0097L269.336 43.7ZM261.636 52.2L257.101 50.0944L257.085 50.128L257.07 50.1617L261.636 52.2ZM265.036 84.6L261.36 87.989L261.36 87.989L265.036 84.6ZM290.636 90.2L289.678 85.2925L290.636 90.2ZM298.636 88L303.215 90.0083L307.881 79.3687L296.947 83.294L298.636 88ZM296.136 93.7H291.136L300.715 95.7083L296.136 93.7ZM296.136 72.4H301.136V67.4H296.136V72.4ZM281.236 71.1L277.7 74.6355L277.766 74.701L277.834 74.764L281.236 71.1ZM281.236 64.1L277.982 60.3037L277.912 60.3636L277.845 60.426L281.236 64.1ZM305.436 64.3L301.772 67.7023L301.898 67.838L302.034 67.964L305.436 64.3ZM305.936 96.1L301.648 93.5275L301.584 93.6357L301.524 93.7471L305.936 96.1ZM303.236 98.3L304.945 102.999L304.955 102.995L304.964 102.992L303.236 98.3ZM293.136 101L294 105.925L294.042 105.917L294.083 105.909L293.136 101ZM281.936 97C274.75 97 269.019 95.6487 264.523 93.2064L259.749 101.994C266.053 105.418 273.522 107 281.936 107V97ZM264.546 93.2189C260.079 90.7623 256.719 87.3191 254.375 82.7984L245.497 87.4016C248.753 93.6809 253.526 98.5711 259.726 101.981L264.546 93.2189ZM254.375 82.7984C252.015 78.2476 250.736 72.6703 250.736 65.9H240.736C240.736 73.9297 242.257 81.1524 245.497 87.4016L254.375 82.7984ZM250.736 65.9C250.736 60.7735 251.468 56.3241 252.843 52.4861L243.429 49.1139C241.604 54.2093 240.736 59.8265 240.736 65.9H250.736ZM252.82 52.548C254.265 48.6778 256.273 45.4892 258.809 42.8973L251.663 35.9027C248.066 39.5774 245.341 43.9889 243.451 49.052L252.82 52.548ZM258.808 42.8981C261.395 40.2562 264.56 38.2114 268.384 36.7845L264.888 27.4155C259.779 29.3219 255.343 32.1438 251.663 35.9019L258.808 42.8981ZM268.445 36.7613C272.24 35.2887 276.677 34.5 281.836 34.5V24.5C275.661 24.5 269.965 25.4447 264.827 27.4387L268.445 36.7613ZM281.836 34.5C285.148 34.5 288.474 34.9135 291.823 35.7507L294.249 26.0493C290.131 25.0199 285.991 24.5 281.836 24.5V34.5ZM291.924 35.7748C295.153 36.5113 298.185 37.7839 301.041 39.6114L306.431 31.1886C302.62 28.7494 298.519 27.022 294.148 26.0252L291.924 35.7748ZM301.02 39.5979C301.218 39.7259 301.272 39.7981 301.26 39.7834C301.254 39.776 301.236 39.7531 301.216 39.7151C301.195 39.6766 301.177 39.634 301.164 39.5914L310.708 36.6086C309.958 34.2081 308.354 32.4327 306.452 31.2021L301.02 39.5979ZM301.254 39.8556C301.299 39.9736 301.314 40.0629 301.269 40.2548L311.003 42.5452C311.491 40.4705 311.373 38.3597 310.618 36.3444L301.254 39.8556ZM301.285 40.1873C301.218 40.4573 301.113 40.6435 300.95 40.8214L308.322 47.5786C309.625 46.1565 310.521 44.476 310.987 42.6127L301.285 40.1873ZM300.95 40.8214C300.949 40.8223 300.957 40.8139 300.973 40.8012C300.99 40.7884 301.008 40.7767 301.025 40.7676C301.042 40.7586 301.05 40.7562 301.044 40.758C301.039 40.76 301.014 40.7677 300.967 40.7761L302.705 50.6239C304.852 50.2451 306.798 49.2405 308.322 47.5786L300.95 40.8214ZM300.914 40.7856C301.128 40.7456 301.248 40.7752 301.221 40.7691C301.178 40.7597 300.991 40.7089 300.646 40.5189L295.826 49.2811C297.772 50.3512 300.17 51.0995 302.757 50.6144L300.914 40.7856ZM300.741 40.5729C297.848 38.8978 294.859 37.6466 291.778 36.8567L289.294 46.5433C291.413 47.0867 293.557 47.9689 295.731 49.2271L300.741 40.5729ZM291.778 36.8567C288.703 36.0683 285.377 35.7 281.836 35.7V45.7C284.695 45.7 287.169 45.9983 289.294 46.5433L291.778 36.8567ZM281.836 35.7C276.232 35.7 271.14 36.8381 266.801 39.3903L271.871 48.0097C274.332 46.5619 277.573 45.7 281.836 45.7V35.7ZM266.864 39.3535C262.511 41.8289 259.248 45.4702 257.101 50.0944L266.171 54.3056C267.491 51.4632 269.361 49.4378 271.807 48.0465L266.864 39.3535ZM257.07 50.1617C255.041 54.707 254.136 60.0122 254.136 65.9H264.136C264.136 60.9878 264.897 57.1596 266.202 54.2383L257.07 50.1617ZM254.136 65.9C254.136 74.8375 256.279 82.478 261.36 87.989L268.712 81.211C265.926 78.1887 264.136 73.3625 264.136 65.9H254.136ZM261.36 87.989C266.525 93.5925 273.892 96 282.536 96V86C275.713 86 271.413 84.1408 268.712 81.211L261.36 87.989ZM282.536 96C285.538 96 288.559 95.6996 291.593 95.1075L289.678 85.2925C287.247 85.767 284.867 86 282.536 86V96ZM291.593 95.1075C294.573 94.526 297.485 93.7256 300.325 92.706L296.947 83.294C294.587 84.1411 292.165 84.8073 289.678 85.2925L291.593 95.1075ZM294.057 85.9917L291.557 91.6917L300.715 95.7083L303.215 90.0083L294.057 85.9917ZM301.136 93.7V72.4H291.136V93.7H301.136ZM296.136 67.4H285.136V77.4H296.136V67.4ZM285.136 67.4C284.728 67.4 284.536 67.3461 284.492 67.3316C284.473 67.3251 284.486 67.3276 284.52 67.3475C284.555 67.368 284.597 67.3979 284.638 67.436L277.834 74.764C279.949 76.7278 282.608 77.4 285.136 77.4V67.4ZM284.771 67.5645C284.806 67.5992 284.845 67.6455 284.88 67.7004C284.915 67.7552 284.936 67.8028 284.948 67.8341C284.972 67.8975 284.936 67.8428 284.936 67.6H274.936C274.936 70.1134 275.715 72.6506 277.7 74.6355L284.771 67.5645ZM284.936 67.6C284.936 67.2945 284.98 67.2297 284.948 67.3159C284.931 67.3617 284.897 67.4366 284.838 67.5259C284.779 67.6162 284.706 67.7011 284.627 67.774L277.845 60.426C275.667 62.4356 274.936 65.1132 274.936 67.6H284.936ZM284.49 67.8963C284.383 67.9881 284.317 67.9987 284.381 67.9789C284.462 67.9541 284.693 67.9 285.136 67.9V57.9C282.702 57.9 280.1 58.4884 277.982 60.3037L284.49 67.8963ZM285.136 67.9H301.636V57.9H285.136V67.9ZM301.636 67.9C302.013 67.9 302.14 67.9538 302.107 67.9417C302.088 67.9346 302.037 67.9129 301.968 67.8677C301.898 67.8219 301.83 67.7649 301.772 67.7023L309.1 60.8977C307.018 58.6562 304.242 57.9 301.636 57.9V67.9ZM302.034 67.964C301.971 67.9058 301.914 67.8382 301.868 67.7683C301.823 67.6994 301.801 67.6479 301.794 67.6285C301.782 67.5956 301.836 67.7231 301.836 68.1H311.836C311.836 65.4944 311.08 62.7175 308.838 60.636L302.034 67.964ZM301.836 68.1V92.4H311.836V68.1H301.836ZM301.836 92.4C301.836 93.1915 301.676 93.4813 301.648 93.5275L310.223 98.6725C311.396 96.7187 311.836 94.5419 311.836 92.4H301.836ZM301.524 93.7471C301.547 93.7035 301.578 93.6574 301.614 93.6137C301.65 93.5702 301.682 93.5405 301.703 93.5238C301.744 93.4899 301.705 93.5355 301.507 93.6083L304.964 102.992C307.15 102.186 309.131 100.735 310.348 98.4529L301.524 93.7471ZM301.527 93.601C298.892 94.5592 295.788 95.3959 292.189 96.0906L294.083 105.909C298.084 105.137 301.713 104.174 304.945 102.999L301.527 93.601ZM292.272 96.0752C288.742 96.6944 285.298 97 281.936 97V107C285.907 107 289.929 106.639 294 105.925L292.272 96.0752ZM330.269 100.1L326.532 103.422L326.629 103.532L326.733 103.636L330.269 100.1ZM330.369 32.2L333.796 35.841L333.851 35.7891L333.904 35.7355L330.369 32.2ZM377.169 36.1L373.847 39.837L373.864 39.8519L373.88 39.8666L377.169 36.1ZM380.569 62.8L376.314 60.1745L376.293 60.2076L376.273 60.241L380.569 62.8ZM372.369 70L374.469 74.5373L374.469 74.5373L372.369 70ZM359.269 72.5L354.981 69.9275L350.438 77.5H359.269V72.5ZM360.169 71V66H357.338L355.881 68.4275L360.169 71ZM370.569 73L367.795 77.1603L367.827 77.1811L367.858 77.2015L370.569 73ZM375.969 79.3L371.56 81.6583L371.564 81.6663L371.568 81.6743L375.969 79.3ZM383.469 93.2L379.068 95.5743L379.097 95.6278L379.128 95.6807L383.469 93.2ZM384.569 97.3L389.563 97.5497L384.569 97.3ZM383.069 100.6L386.323 104.396L386.398 104.332L386.471 104.264L383.069 100.6ZM374.569 100.7L371.685 104.785L371.768 104.843L371.852 104.898L374.569 100.7ZM371.569 97.1L375.965 94.7186L375.963 94.714L371.569 97.1ZM361.469 78.5L357.05 80.8394L357.062 80.8628L357.075 80.886L361.469 78.5ZM357.169 74L354.933 78.4721L355.043 78.5271L355.155 78.5766L357.169 74ZM341.469 72.8V67.8H336.469V72.8H341.469ZM339.869 100.1L343.51 103.527L343.559 103.475L343.606 103.422L339.869 100.1ZM341.469 63.3H336.469V68.3H341.469V63.3ZM367.469 60.5L370.592 64.4043L370.599 64.3991L370.605 64.3938L367.469 60.5ZM367.469 43.5L364.279 47.3501L364.338 47.3994L364.399 47.4468L367.469 43.5ZM341.469 40.6V35.6H336.469V40.6H341.469ZM335.069 96.8C334.484 96.8 334.15 96.7191 333.988 96.6619C333.848 96.6122 333.813 96.5736 333.804 96.5645L326.733 103.636C329.054 105.957 332.077 106.8 335.069 106.8V96.8ZM334.006 96.7782C333.964 96.7317 333.669 96.4036 333.669 95.2H323.669C323.669 98.1298 324.44 101.068 326.532 103.422L334.006 96.7782ZM333.669 95.2V37H323.669V95.2H333.669ZM333.669 37C333.669 36.3622 333.755 36.0156 333.807 35.8692C333.849 35.7501 333.86 35.7805 333.796 35.841L326.942 28.559C324.476 30.8799 323.669 34.0158 323.669 37H333.669ZM333.904 35.7355C333.913 35.7264 333.948 35.6878 334.088 35.6381C334.25 35.5809 334.584 35.5 335.169 35.5V25.5C332.177 25.5 329.154 26.3435 326.833 28.6645L333.904 35.7355ZM335.169 35.5H359.269V25.5H335.169V35.5ZM359.269 35.5C366.24 35.5 370.857 37.1794 373.847 39.837L380.491 32.3629C375.08 27.5539 367.764 25.5 359.269 25.5V35.5ZM373.88 39.8666C376.779 42.3975 378.469 46.0675 378.469 51.6H388.469C388.469 43.7992 385.958 37.1358 380.457 32.3334L373.88 39.8666ZM378.469 51.6C378.469 55.1723 377.679 57.9607 376.314 60.1745L384.824 65.4255C387.325 61.3726 388.469 56.6944 388.469 51.6H378.469ZM376.273 60.241C374.968 62.4326 373.038 64.1804 370.268 65.4627L374.469 74.5373C378.9 72.4863 382.437 69.4341 384.864 65.359L376.273 60.241ZM370.268 65.4627C367.49 66.7488 363.882 67.5 359.269 67.5V77.5C364.923 77.5 370.047 76.5845 374.469 74.5373L370.268 65.4627ZM363.556 75.0725L364.456 73.5725L355.881 68.4275L354.981 69.9275L363.556 75.0725ZM360.169 76H363.469V66H360.169V76ZM363.469 76C365.355 76 366.726 76.4471 367.795 77.1603L373.342 68.8397C370.412 66.8862 367.05 66 363.469 66V76ZM367.858 77.2015C369.018 77.9499 370.302 79.3074 371.56 81.6583L380.378 76.9417C378.568 73.5593 376.253 70.7167 373.279 68.7985L367.858 77.2015ZM371.568 81.6743L379.068 95.5743L387.869 90.8257L380.369 76.9257L371.568 81.6743ZM379.128 95.6807C379.553 96.4254 379.585 96.8527 379.575 97.0503L389.563 97.5497C389.686 95.0806 388.984 92.7746 387.81 90.7193L379.128 95.6807ZM379.575 97.0503C379.572 97.106 379.567 97.1276 379.568 97.1222C379.569 97.1159 379.576 97.0914 379.592 97.056C379.608 97.0203 379.628 96.9874 379.647 96.9613C379.665 96.9357 379.675 96.9278 379.666 96.936L386.471 104.264C388.41 102.464 389.434 100.116 389.563 97.5497L379.575 97.0503ZM379.815 96.8037C379.965 96.6747 380.049 96.6692 379.939 96.7013C379.814 96.738 379.513 96.8 378.969 96.8V106.8C381.422 106.8 384.143 106.264 386.323 104.396L379.815 96.8037ZM378.969 96.8C377.819 96.8 377.381 96.5641 377.285 96.5021L371.852 104.898C374.023 106.303 376.519 106.8 378.969 106.8V96.8ZM377.452 96.6152C377.112 96.3751 376.575 95.8445 375.965 94.7186L367.172 99.4814C368.296 101.555 369.759 103.425 371.685 104.785L377.452 96.6152ZM375.963 94.714L365.863 76.114L357.075 80.886L367.175 99.486L375.963 94.714ZM365.888 76.1606C364.372 73.297 362.228 70.7635 359.182 69.4234L355.155 78.5766C355.443 78.7031 356.166 79.1696 357.05 80.8394L365.888 76.1606ZM359.405 69.5279C356.883 68.267 353.976 67.8 350.969 67.8V77.8C353.028 77.8 354.254 78.133 354.933 78.4721L359.405 69.5279ZM350.969 67.8H341.469V77.8H350.969V67.8ZM336.469 72.8V95.2H346.469V72.8H336.469ZM336.469 95.2C336.469 96.4036 336.173 96.7317 336.132 96.7782L343.606 103.422C345.698 101.068 346.469 98.1298 346.469 95.2H336.469ZM336.228 96.6732C336.288 96.6089 336.319 96.6197 336.2 96.6619C336.053 96.7137 335.707 96.8 335.069 96.8V106.8C338.053 106.8 341.189 105.993 343.51 103.527L336.228 96.6732ZM341.469 68.3H357.069V58.3H341.469V68.3ZM357.069 68.3C362.223 68.3 367.006 67.2734 370.592 64.4043L364.345 56.5957C363.265 57.4599 361.114 58.3 357.069 58.3V68.3ZM370.605 64.3938C374.456 61.2921 376.069 56.8252 376.069 51.9H366.069C366.069 54.5748 365.282 55.8412 364.332 56.6062L370.605 64.3938ZM376.069 51.9C376.069 47.0135 374.434 42.5832 370.538 39.5532L364.399 47.4468C365.303 48.1501 366.069 49.3199 366.069 51.9H376.069ZM370.659 39.6499C367.066 36.6733 362.256 35.6 357.069 35.6V45.6C361.082 45.6 363.204 46.46 364.279 47.3501L370.659 39.6499ZM357.069 35.6H341.469V45.6H357.069V35.6ZM336.469 40.6V63.3H346.469V40.6H336.469ZM399.754 100.7L396.665 104.632L396.73 104.683L396.797 104.732L399.754 100.7ZM398.054 97.8L393.115 98.5798L393.118 98.6009L393.122 98.622L398.054 97.8ZM398.754 93.6L394.196 91.5433L394.182 91.5747L394.169 91.6064L398.754 93.6ZM425.154 35.1L429.711 37.1567L429.716 37.1453L425.154 35.1ZM428.254 31L431.027 35.1602L431.052 35.1435L431.077 35.1265L428.254 31ZM436.654 31L433.726 35.0534L433.852 35.1444L433.984 35.2274L436.654 31ZM439.854 35.1L435.291 37.1453L435.295 37.1542L435.299 37.1631L439.854 35.1ZM466.354 93.6L461.799 95.6631L461.821 95.7104L461.843 95.7573L466.354 93.6ZM465.454 100.8L468.36 104.869L468.453 104.802L468.543 104.732L465.454 100.8ZM457.354 100.5L453.942 104.155L454.068 104.272L454.201 104.381L457.354 100.5ZM454.654 96.3L459.25 94.3304L459.246 94.3231L454.654 96.3ZM448.154 81.2L450.873 77.0042L437.046 68.0423L443.561 83.1769L448.154 81.2ZM453.554 84.7V89.7H470.461L456.273 80.5042L453.554 84.7ZM411.354 84.7L408.634 80.5042L394.447 89.7H411.354V84.7ZM416.754 81.2L421.357 83.1512L427.723 68.1318L414.034 77.0042L416.754 81.2ZM410.354 96.3L414.916 98.3453L414.937 98.2984L414.957 98.2512L410.354 96.3ZM407.654 100.5L404.252 96.836L404.252 96.836L407.654 100.5ZM432.354 44.4V39.4H429.032L427.745 42.4622L432.354 44.4ZM418.354 77.7L414.473 80.853L419.731 87.3245L422.963 79.6378L418.354 77.7ZM415.754 74.5V69.5H405.249L411.873 77.653L415.754 74.5ZM449.154 74.5L453.094 77.5782L459.405 69.5H449.154V74.5ZM446.654 77.7L442.05 79.6496L445.363 87.4742L450.594 80.7782L446.654 77.7ZM432.554 44.4L437.158 42.4504L435.867 39.4H432.554V44.4ZM403.654 96.8C402.808 96.8 402.634 96.6113 402.711 96.668L396.797 104.732C398.874 106.255 401.3 106.8 403.654 106.8V96.8ZM402.843 96.7684C402.837 96.7637 402.849 96.7728 402.872 96.7981C402.895 96.8239 402.92 96.8575 402.942 96.8964C402.965 96.9352 402.979 96.9679 402.986 96.9884C402.993 97.0081 402.991 97.0069 402.986 96.978L393.122 98.622C393.521 101.018 394.724 103.107 396.665 104.632L402.843 96.7684ZM402.993 97.0202C402.98 96.9387 402.938 96.5154 403.339 95.5936L394.169 91.6064C393.236 93.7513 392.728 96.128 393.115 98.5798L402.993 97.0202ZM403.311 95.6567L429.711 37.1567L420.596 33.0433L394.196 91.5433L403.311 95.6567ZM429.716 37.1453C430.368 35.6923 430.897 35.2473 431.027 35.1602L425.48 26.8397C423.211 28.3527 421.673 30.6411 420.591 33.0547L429.716 37.1453ZM431.077 35.1265C431.476 34.854 431.916 34.7 432.554 34.7V24.7C429.992 24.7 427.565 25.4127 425.43 26.8735L431.077 35.1265ZM432.554 34.7C433.076 34.7 433.411 34.8253 433.726 35.0534L439.581 26.9466C437.497 25.4414 435.098 24.7 432.554 24.7V34.7ZM433.984 35.2274C434.141 35.3263 434.667 35.753 435.291 37.1453L444.416 33.0547C443.307 30.5803 441.701 28.2737 439.324 26.7726L433.984 35.2274ZM435.299 37.1631L461.799 95.6631L470.908 91.5369L444.408 33.0368L435.299 37.1631ZM461.843 95.7573C462.059 96.2078 462.153 96.5303 462.192 96.7356C462.23 96.9323 462.216 97.0157 462.215 97.0202L472.093 98.5798C472.495 96.0346 471.895 93.5963 470.865 91.4427L461.843 95.7573ZM462.215 97.0202C462.206 97.0774 462.198 97.1008 462.199 97.098C462.2 97.0943 462.209 97.0707 462.229 97.0349C462.249 96.9987 462.275 96.9617 462.304 96.9281C462.333 96.8949 462.356 96.8754 462.365 96.8684L468.543 104.732C470.552 103.153 471.713 100.983 472.093 98.5798L462.215 97.0202ZM462.548 96.7313C462.706 96.618 462.591 96.8 461.754 96.8V106.8C463.983 106.8 466.335 106.315 468.36 104.869L462.548 96.7313ZM461.754 96.8C460.626 96.8 460.409 96.54 460.507 96.6194L454.201 104.381C456.432 106.193 459.149 106.8 461.754 106.8V96.8ZM460.765 96.8447C460.457 96.5571 459.897 95.8411 459.25 94.3304L450.058 98.2696C451.011 100.492 452.25 102.576 453.942 104.155L460.765 96.8447ZM459.246 94.3231L452.746 79.2231L443.561 83.1769L450.061 98.2769L459.246 94.3231ZM445.434 85.3958L450.834 88.8958L456.273 80.5042L450.873 77.0042L445.434 85.3958ZM453.554 79.7H411.354V89.7H453.554V79.7ZM414.073 88.8958L419.473 85.3958L414.034 77.0042L408.634 80.5042L414.073 88.8958ZM412.15 79.2488L405.75 94.3488L414.957 98.2512L421.357 83.1512L412.15 79.2488ZM405.791 94.2547C405.041 95.9291 404.473 96.6306 404.252 96.836L411.056 104.164C412.702 102.636 413.934 100.538 414.916 98.3453L405.791 94.2547ZM404.252 96.836C404.369 96.7271 404.455 96.7048 404.408 96.7198C404.343 96.7412 404.115 96.8 403.654 96.8V106.8C406.187 106.8 408.908 106.159 411.056 104.164L404.252 96.836ZM427.745 42.4622L413.745 75.7622L422.963 79.6378L436.963 46.3378L427.745 42.4622ZM422.234 74.547L419.634 71.347L411.873 77.653L414.473 80.853L422.234 74.547ZM415.754 79.5H449.154V69.5H415.754V79.5ZM445.214 71.4218L442.714 74.6218L450.594 80.7782L453.094 77.5782L445.214 71.4218ZM451.258 75.7504L437.158 42.4504L427.95 46.3495L442.05 79.6496L451.258 75.7504ZM432.554 39.4H432.354V49.4H432.554V39.4ZM495.155 100.1L491.418 103.422L491.516 103.532L491.62 103.636L495.155 100.1ZM493.555 41.2H498.555V36.2H493.555V41.2ZM469.955 39.8L466.3 43.2116L466.418 43.3376L466.544 43.4553L469.955 39.8ZM469.955 31.9L473.358 35.564L473.367 35.5553L469.955 31.9ZM529.855 31.9L526.32 35.4355L526.446 35.5616L526.581 35.6784L529.855 31.9ZM506.355 41.2V36.2H501.355V41.2H506.355ZM504.755 100.1L508.396 103.527L508.445 103.475L508.493 103.422L504.755 100.1ZM499.955 96.8C499.371 96.8 499.036 96.7191 498.875 96.6619C498.734 96.6122 498.7 96.5736 498.691 96.5645L491.62 103.636C493.941 105.957 496.964 106.8 499.955 106.8V96.8ZM498.893 96.7782C498.851 96.7317 498.555 96.4036 498.555 95.2H488.555C488.555 98.1298 489.326 101.068 491.418 103.422L498.893 96.7782ZM498.555 95.2V41.2H488.555V95.2H498.555ZM493.555 36.2H474.055V46.2H493.555V36.2ZM474.055 36.2C473.632 36.2 473.417 36.1425 473.346 36.1182C473.293 36.1 473.323 36.1032 473.367 36.1447L466.544 43.4553C468.698 45.4662 471.408 46.2 474.055 46.2V36.2ZM473.611 36.3884C473.632 36.4117 473.637 36.4328 473.625 36.3982C473.607 36.3482 473.555 36.1696 473.555 35.8H463.555C463.555 38.4416 464.322 41.0926 466.3 43.2116L473.611 36.3884ZM473.555 35.8C473.555 35.3685 473.615 35.2041 473.611 35.2143C473.608 35.2237 473.589 35.2729 473.543 35.3448C473.495 35.4182 473.432 35.4946 473.358 35.564L466.553 28.236C464.274 30.3528 463.555 33.197 463.555 35.8H473.555ZM473.367 35.5553C473.323 35.5968 473.293 35.6 473.346 35.5817C473.417 35.5575 473.632 35.5 474.055 35.5V25.5C471.408 25.5 468.698 26.2338 466.544 28.2447L473.367 35.5553ZM474.055 35.5H525.855V25.5H474.055V35.5ZM525.855 35.5C526.283 35.5 526.473 35.5585 526.504 35.5693C526.516 35.5737 526.495 35.5675 526.453 35.5415C526.41 35.5149 526.363 35.4786 526.32 35.4355L533.391 28.3645C531.254 26.2271 528.484 25.5 525.855 25.5V35.5ZM526.581 35.6784C526.515 35.6218 526.453 35.5526 526.401 35.4773C526.349 35.403 526.323 35.345 526.314 35.3199C526.297 35.2761 526.355 35.4024 526.355 35.8H536.355C536.355 33.0947 535.542 30.2117 533.13 28.1216L526.581 35.6784ZM526.355 35.8C526.355 36.134 526.306 36.2759 526.299 36.2944C526.295 36.3046 526.297 36.2982 526.306 36.2837C526.315 36.2691 526.322 36.262 526.32 36.2645L533.391 43.3355C535.495 41.2319 536.355 38.5379 536.355 35.8H526.355ZM526.32 36.2645C526.363 36.2214 526.41 36.1851 526.453 36.1585C526.495 36.1325 526.516 36.1262 526.504 36.1307C526.473 36.1415 526.283 36.2 525.855 36.2V46.2C528.484 46.2 531.254 45.4729 533.391 43.3355L526.32 36.2645ZM525.855 36.2H506.355V46.2H525.855V36.2ZM501.355 41.2V95.2H511.355V41.2H501.355ZM501.355 95.2C501.355 96.4036 501.06 96.7317 501.018 96.7782L508.493 103.422C510.585 101.068 511.355 98.1298 511.355 95.2H501.355ZM501.114 96.6732C501.175 96.6089 501.205 96.6197 501.086 96.6619C500.94 96.7137 500.593 96.8 499.955 96.8V106.8C502.94 106.8 506.076 105.993 508.396 103.527L501.114 96.6732ZM558.821 101.3L559.607 96.3621L559.552 96.3534L559.497 96.3458L558.821 101.3ZM550.521 99.4L548.832 104.106L548.886 104.125L548.94 104.143L550.521 99.4ZM543.521 96L540.748 100.16L540.779 100.181L540.81 100.201L543.521 96ZM541.021 93.1L536.398 95.0037L536.398 95.0037L541.021 93.1ZM540.521 89.8L535.597 88.9311L535.575 89.055L535.56 89.1798L540.521 89.8ZM541.821 86.9L538.004 83.6703L537.992 83.6846L537.98 83.6991L541.821 86.9ZM544.521 85.3L545.443 90.2144L545.443 90.2144L544.521 85.3ZM548.021 86.2L545.351 90.4274L545.414 90.467L545.477 90.5046L548.021 86.2ZM579.121 88.6L582.049 92.6534L582.085 92.627L582.121 92.6L579.121 88.6ZM580.121 76.2L576.998 80.1043L577.035 80.1341L577.073 80.1631L580.121 76.2ZM571.421 72.9L572.447 68.0064L572.444 68.0058L571.421 72.9ZM560.421 70.6L559.391 75.4928L559.398 75.4942L560.421 70.6ZM546.221 63.9L542.611 67.3595L542.648 67.3979L542.686 67.4355L546.221 63.9ZM543.621 42.4L548.093 44.6361L548.093 44.6361L543.621 42.4ZM549.221 35.5L546.137 31.5647L546.11 31.5853L546.084 31.6062L549.221 35.5ZM557.921 31.1L559.358 35.8891L559.388 35.8801L559.418 35.8707L557.921 31.1ZM580.521 31L581.859 26.1824L581.859 26.1824L580.521 31ZM590.221 35.4L593.054 31.2798L593.035 31.2671L593.017 31.2546L590.221 35.4ZM592.321 38.1L587.549 39.5914L587.59 39.7248L587.639 39.8556L592.321 38.1ZM592.621 41.3L597.524 42.2806L597.53 42.251L597.535 42.2214L592.621 41.3ZM588.421 45.2L587.837 40.2342L587.819 40.2364L587.801 40.2386L588.421 45.2ZM584.721 44.2L587.202 39.8588L587.195 39.8552L587.189 39.8516L584.721 44.2ZM577.221 41.2L576.069 46.0654L576.069 46.0654L577.221 41.2ZM561.121 41.6L562.954 46.252L562.954 46.252L561.121 41.6ZM556.021 45.3L552.021 42.3L552.011 42.314L552 42.328L556.021 45.3ZM556.721 56.6L553.342 60.2858L553.385 60.3248L553.429 60.3629L556.721 56.6ZM564.921 59.9L565.953 55.0077L565.944 55.0057L565.934 55.0037L564.921 59.9ZM575.821 62.2L576.859 57.3088L576.853 57.3077L575.821 62.2ZM590.521 68.8L587.101 72.4477L587.12 72.4653L587.139 72.4826L590.521 68.8ZM593.421 89.5L588.972 87.2184L588.949 87.264L588.926 87.3102L593.421 89.5ZM587.821 96.2L584.804 92.213L584.778 92.2329L584.751 92.2532L587.821 96.2ZM579.121 100.5L580.532 105.297L580.532 105.297L579.121 100.5ZM567.621 97C564.954 97 562.283 96.788 559.607 96.3621L558.036 106.238C561.225 106.745 564.421 107 567.621 107V97ZM559.497 96.3458C556.847 95.9845 554.385 95.4176 552.102 94.6566L548.94 104.143C551.857 105.116 554.929 105.816 558.146 106.254L559.497 96.3458ZM552.21 94.694C549.926 93.8739 547.942 92.9018 546.232 91.7985L540.81 100.201C543.234 101.765 545.916 103.059 548.832 104.106L552.21 94.694ZM546.295 91.8397C545.772 91.4917 545.67 91.2571 545.644 91.1962L536.398 95.0037C537.306 97.2095 538.87 98.9083 540.748 100.16L546.295 91.8397ZM545.644 91.1963C545.46 90.7474 545.47 90.5164 545.482 90.4202L535.56 89.1798C535.305 91.217 535.649 93.1859 536.398 95.0037L545.644 91.1963ZM545.445 90.6689C545.51 90.3015 545.611 90.1626 545.662 90.1009L537.98 83.6991C536.698 85.2374 535.932 87.0318 535.597 88.9311L545.445 90.6689ZM545.638 90.1297C545.659 90.1054 545.665 90.101 545.656 90.1088C545.647 90.117 545.626 90.133 545.595 90.1515C545.564 90.17 545.531 90.1857 545.499 90.1974C545.468 90.209 545.448 90.2134 545.443 90.2144L543.6 80.3856C541.348 80.8079 539.443 81.9696 538.004 83.6703L545.638 90.1297ZM545.443 90.2144C545.321 90.2372 545.209 90.2429 545.116 90.2387C545.025 90.2347 544.968 90.2218 544.951 90.2175C544.935 90.2134 544.961 90.2185 545.03 90.2498C545.1 90.2814 545.207 90.3363 545.351 90.4274L550.691 81.9726C548.767 80.7572 546.313 79.8769 543.6 80.3856L545.443 90.2144ZM545.477 90.5046C548.827 92.484 552.383 93.9384 556.132 94.8565L558.51 85.1435C555.726 84.4616 553.082 83.3827 550.565 81.8954L545.477 90.5046ZM556.132 94.8565C559.814 95.7583 563.648 96.2 567.621 96.2V86.2C564.394 86.2 561.362 85.8417 558.51 85.1435L556.132 94.8565ZM567.621 96.2C573.218 96.2 578.355 95.3206 582.049 92.6534L576.194 84.5466C575.087 85.346 572.558 86.2 567.621 86.2V96.2ZM582.121 92.6C585.676 89.9341 587.721 86.2001 587.721 81.7H577.721C577.721 82.7999 577.367 83.6658 576.121 84.6L582.121 92.6ZM587.721 81.7C587.721 77.9348 586.226 74.5878 583.17 72.2369L577.073 80.1631C577.483 80.4788 577.721 80.7985 577.721 81.7H587.721ZM583.245 72.2957C580.617 70.1933 576.738 68.9061 572.447 68.0064L570.395 77.7936C574.371 78.6273 576.292 79.5401 576.998 80.1043L583.245 72.2957ZM572.444 68.0058L561.444 65.7058L559.398 75.4942L570.398 77.7942L572.444 68.0058ZM561.451 65.7072C555.653 64.4867 551.956 62.5643 549.757 60.3645L542.686 67.4355C546.752 71.5024 552.522 74.0466 559.391 75.4927L561.451 65.7072ZM549.831 60.4405C547.809 58.3307 546.621 55.4499 546.621 51.3H536.621C536.621 57.5501 538.5 63.0693 542.611 67.3595L549.831 60.4405ZM546.621 51.3C546.621 48.7341 547.139 46.5439 548.093 44.6361L539.149 40.1639C537.436 43.5894 536.621 47.3326 536.621 51.3H546.621ZM548.093 44.6361C549.095 42.6333 550.497 40.8924 552.358 39.3938L546.084 31.6062C543.145 33.9743 540.814 36.8334 539.149 40.1639L548.093 44.6361ZM552.306 39.4353C554.23 37.9272 556.556 36.7296 559.358 35.8891L556.484 26.3109C552.619 27.4704 549.146 29.2062 546.137 31.5647L552.306 39.4353ZM559.418 35.8707C562.271 34.9757 565.492 34.5 569.121 34.5V24.5C564.617 24.5 560.372 25.0909 556.424 26.3293L559.418 35.8707ZM569.121 34.5C572.701 34.5 576.048 34.9469 579.183 35.8176L581.859 26.1824C577.794 25.0531 573.542 24.5 569.121 24.5V34.5ZM579.183 35.8176C582.306 36.6851 585.04 37.9364 587.425 39.5454L593.017 31.2546C589.669 28.9969 585.936 27.3149 581.859 26.1824L579.183 35.8176ZM587.388 39.5202C587.555 39.6347 587.604 39.7006 587.599 39.6947C587.598 39.6925 587.588 39.6796 587.576 39.6569C587.564 39.634 587.555 39.6109 587.549 39.5914L597.093 36.6086C596.375 34.3088 594.89 32.5425 593.054 31.2798L587.388 39.5202ZM587.639 39.8556C587.736 40.1123 587.73 40.2542 587.707 40.3786L597.535 42.2214C597.912 40.2124 597.707 38.2211 597.003 36.3444L587.639 39.8556ZM587.718 40.3194C587.714 40.3382 587.712 40.3452 587.712 40.3433C587.713 40.3413 587.715 40.3359 587.719 40.3295C587.722 40.3231 587.724 40.3213 587.721 40.325C587.718 40.3289 587.708 40.3423 587.686 40.3645L594.757 47.4355C596.175 46.0168 597.127 44.2658 597.524 42.2806L587.718 40.3194ZM587.686 40.3645C587.704 40.3458 587.731 40.322 587.766 40.2976C587.801 40.2731 587.836 40.2538 587.866 40.24C587.929 40.2104 587.934 40.2229 587.837 40.2342L589.005 50.1658C591.136 49.9151 593.148 49.0446 594.757 47.4355L587.686 40.3645ZM587.801 40.2386C588.021 40.2111 588.106 40.2518 588.001 40.2232C587.886 40.1922 587.624 40.0999 587.202 39.8588L582.24 48.5412C584.133 49.6229 586.484 50.4811 589.041 50.1614L587.801 40.2386ZM587.189 39.8516C584.347 38.2386 581.407 37.053 578.373 36.3346L576.069 46.0654C578.102 46.547 580.162 47.3614 582.253 48.5484L587.189 39.8516ZM578.373 36.3346C575.418 35.6347 572.294 35.3 569.021 35.3V45.3C571.615 45.3 573.957 45.5653 576.069 46.0654L578.373 36.3346ZM569.021 35.3C565.504 35.3 562.217 35.7943 559.288 36.948L562.954 46.252C564.425 45.6724 566.404 45.3 569.021 45.3V35.3ZM559.288 36.948C556.386 38.0914 553.871 39.8336 552.021 42.3L560.021 48.3C560.571 47.5664 561.456 46.8419 562.954 46.252L559.288 36.948ZM552 42.328C550.156 44.8231 549.321 47.7301 549.321 50.8H559.321C559.321 49.6032 559.62 48.8435 560.042 48.272L552 42.328ZM549.321 50.8C549.321 54.4367 550.594 57.7661 553.342 60.2858L560.1 52.9142C559.648 52.5006 559.321 51.9633 559.321 50.8H549.321ZM553.429 60.3629C556.025 62.6349 559.808 63.9479 563.908 64.7963L565.934 55.0037C562.301 54.2521 560.617 53.3651 560.014 52.8371L553.429 60.3629ZM563.889 64.7923L574.789 67.0923L576.853 57.3077L565.953 55.0077L563.889 64.7923ZM574.784 67.0912C580.933 68.3956 584.834 70.3217 587.101 72.4477L593.941 65.1523C589.809 61.2783 583.909 58.8044 576.859 57.3088L574.784 67.0912ZM587.139 72.4826C589.238 74.4101 590.421 77.0028 590.421 80.8H600.421C600.421 74.5972 598.338 69.1899 593.903 65.1173L587.139 72.4826ZM590.421 80.8C590.421 83.2834 589.91 85.3899 588.972 87.2184L597.87 91.7816C599.599 88.4101 600.421 84.7166 600.421 80.8H590.421ZM588.926 87.3102C588.028 89.1545 586.688 90.787 584.804 92.213L590.838 100.187C593.887 97.8797 596.281 95.0455 597.916 91.6898L588.926 87.3102ZM584.751 92.2532C582.921 93.6769 580.607 94.8512 577.71 95.7032L580.532 105.297C584.435 104.149 587.921 102.456 590.891 100.147L584.751 92.2532ZM577.71 95.7032C574.851 96.5443 571.504 97 567.621 97V107C572.271 107 576.592 106.456 580.532 105.297L577.71 95.7032Z" fill="black" mask="url(#path-1-outside-1_26_214)"/>
</svg>
