<svg width="515" height="205" viewBox="0 0 515 205" fill="none" xmlns="http://www.w3.org/2000/svg">
<mask id="path-1-outside-1_15_207" maskUnits="userSpaceOnUse" x="6" y="40" width="508" height="119" fill="black">
<rect fill="white" x="6" y="40" width="508" height="119"/>
<path d="M20.677 153.2C17.877 153.2 15.727 152.4 14.227 150.8C12.727 149.2 11.977 147 11.977 144.2V54.05C11.977 51.15 12.777 48.95 14.377 47.45C15.977 45.85 18.177 45.05 20.977 45.05C23.477 45.05 25.427 45.55 26.827 46.55C28.327 47.45 29.677 49.05 30.877 51.35L67.927 119.9H63.127L100.177 51.35C101.377 49.05 102.677 47.45 104.077 46.55C105.477 45.55 107.427 45.05 109.927 45.05C112.727 45.05 114.877 45.85 116.377 47.45C117.877 48.95 118.627 51.15 118.627 54.05V144.2C118.627 147 117.877 149.2 116.377 150.8C114.977 152.4 112.827 153.2 109.927 153.2C107.127 153.2 104.977 152.4 103.477 150.8C101.977 149.2 101.227 147 101.227 144.2V74.75H104.527L73.027 132.2C72.027 133.9 70.977 135.15 69.877 135.95C68.777 136.75 67.277 137.15 65.377 137.15C63.477 137.15 61.927 136.75 60.727 135.95C59.527 135.05 58.477 133.8 57.577 132.2L25.777 74.6H29.377V144.2C29.377 147 28.627 149.2 27.127 150.8C25.727 152.4 23.577 153.2 20.677 153.2ZM278.364 153.2C275.264 153.2 272.814 152.35 271.014 150.65C269.314 148.85 268.464 146.3 268.464 143V56.45C268.464 53.15 269.314 50.65 271.014 48.95C272.814 47.15 275.364 46.25 278.664 46.25H331.014C333.614 46.25 335.564 46.9 336.864 48.2C338.164 49.5 338.814 51.35 338.814 53.75C338.814 56.25 338.164 58.2 336.864 59.6C335.564 60.9 333.614 61.55 331.014 61.55H287.664V91.4H327.864C330.364 91.4 332.264 92.05 333.564 93.35C334.964 94.65 335.664 96.5 335.664 98.9C335.664 101.4 334.964 103.35 333.564 104.75C332.264 106.05 330.364 106.7 327.864 106.7H287.664V143C287.664 149.8 284.564 153.2 278.364 153.2Z"/>
<path d="M151.502 153.2C148.402 153.2 146.002 152.35 144.302 150.65C142.702 148.85 141.902 146.4 141.902 143.3V54.95C141.902 51.75 142.702 49.3 144.302 47.6C146.002 45.9 148.402 45.05 151.502 45.05C154.602 45.05 156.952 45.9 158.552 47.6C160.252 49.3 161.102 51.75 161.102 54.95V143.3C161.102 146.4 160.302 148.85 158.702 150.65C157.102 152.35 154.702 153.2 151.502 153.2ZM447.121 152C443.821 152 441.271 151.15 439.471 149.45C437.771 147.65 436.921 145.1 436.921 141.8V56.45C436.921 53.15 437.771 50.65 439.471 48.95C441.271 47.15 443.821 46.25 447.121 46.25H500.671C503.171 46.25 505.071 46.9 506.371 48.2C507.771 49.5 508.471 51.35 508.471 53.75C508.471 56.25 507.771 58.2 506.371 59.6C505.071 60.9 503.171 61.55 500.671 61.55H455.371V90.65H497.371C499.971 90.65 501.921 91.3 503.221 92.6C504.521 93.9 505.171 95.8 505.171 98.3C505.171 100.8 504.521 102.7 503.221 104C501.921 105.3 499.971 105.95 497.371 105.95H455.371V136.7H500.671C503.171 136.7 505.071 137.35 506.371 138.65C507.771 139.95 508.471 141.85 508.471 144.35C508.471 146.85 507.771 148.75 506.371 150.05C505.071 151.35 503.171 152 500.671 152H447.121Z"/>
<path d="M194.136 153.2C191.036 153.2 188.586 152.35 186.786 150.65C185.086 148.85 184.236 146.3 184.236 143V56.45C184.236 53.15 185.086 50.65 186.786 48.95C188.586 47.15 191.136 46.25 194.436 46.25H246.786C249.386 46.25 251.336 46.9 252.636 48.2C253.936 49.5 254.586 51.35 254.586 53.75C254.586 56.25 253.936 58.2 252.636 59.6C251.336 60.9 249.386 61.55 246.786 61.55H203.436V91.4H243.636C246.136 91.4 248.036 92.05 249.336 93.35C250.736 94.65 251.436 96.5 251.436 98.9C251.436 101.4 250.736 103.35 249.336 104.75C248.036 106.05 246.136 106.7 243.636 106.7H203.436V143C203.436 149.8 200.336 153.2 194.136 153.2Z"/>
<path d="M362.443 152C359.343 152 356.943 151.15 355.243 149.45C353.543 147.65 352.693 145.2 352.693 142.1V55.55C352.693 52.35 353.493 49.95 355.093 48.35C356.793 46.65 359.193 45.8 362.293 45.8C365.393 45.8 367.743 46.65 369.343 48.35C371.043 49.95 371.893 52.35 371.893 55.55V135.65H415.393C418.093 135.65 420.143 136.35 421.543 137.75C423.043 139.15 423.793 141.15 423.793 143.75C423.793 146.35 423.043 148.4 421.543 149.9C420.143 151.3 418.093 152 415.393 152H362.443Z"/>
</mask>
<path d="M20.677 153.2C17.877 153.2 15.727 152.4 14.227 150.8C12.727 149.2 11.977 147 11.977 144.2V54.05C11.977 51.15 12.777 48.95 14.377 47.45C15.977 45.85 18.177 45.05 20.977 45.05C23.477 45.05 25.427 45.55 26.827 46.55C28.327 47.45 29.677 49.05 30.877 51.35L67.927 119.9H63.127L100.177 51.35C101.377 49.05 102.677 47.45 104.077 46.55C105.477 45.55 107.427 45.05 109.927 45.05C112.727 45.05 114.877 45.85 116.377 47.45C117.877 48.95 118.627 51.15 118.627 54.05V144.2C118.627 147 117.877 149.2 116.377 150.8C114.977 152.4 112.827 153.2 109.927 153.2C107.127 153.2 104.977 152.4 103.477 150.8C101.977 149.2 101.227 147 101.227 144.2V74.75H104.527L73.027 132.2C72.027 133.9 70.977 135.15 69.877 135.95C68.777 136.75 67.277 137.15 65.377 137.15C63.477 137.15 61.927 136.75 60.727 135.95C59.527 135.05 58.477 133.8 57.577 132.2L25.777 74.6H29.377V144.2C29.377 147 28.627 149.2 27.127 150.8C25.727 152.4 23.577 153.2 20.677 153.2ZM278.364 153.2C275.264 153.2 272.814 152.35 271.014 150.65C269.314 148.85 268.464 146.3 268.464 143V56.45C268.464 53.15 269.314 50.65 271.014 48.95C272.814 47.15 275.364 46.25 278.664 46.25H331.014C333.614 46.25 335.564 46.9 336.864 48.2C338.164 49.5 338.814 51.35 338.814 53.75C338.814 56.25 338.164 58.2 336.864 59.6C335.564 60.9 333.614 61.55 331.014 61.55H287.664V91.4H327.864C330.364 91.4 332.264 92.05 333.564 93.35C334.964 94.65 335.664 96.5 335.664 98.9C335.664 101.4 334.964 103.35 333.564 104.75C332.264 106.05 330.364 106.7 327.864 106.7H287.664V143C287.664 149.8 284.564 153.2 278.364 153.2Z" fill="#F46523"/>
<path d="M151.502 153.2C148.402 153.2 146.002 152.35 144.302 150.65C142.702 148.85 141.902 146.4 141.902 143.3V54.95C141.902 51.75 142.702 49.3 144.302 47.6C146.002 45.9 148.402 45.05 151.502 45.05C154.602 45.05 156.952 45.9 158.552 47.6C160.252 49.3 161.102 51.75 161.102 54.95V143.3C161.102 146.4 160.302 148.85 158.702 150.65C157.102 152.35 154.702 153.2 151.502 153.2ZM447.121 152C443.821 152 441.271 151.15 439.471 149.45C437.771 147.65 436.921 145.1 436.921 141.8V56.45C436.921 53.15 437.771 50.65 439.471 48.95C441.271 47.15 443.821 46.25 447.121 46.25H500.671C503.171 46.25 505.071 46.9 506.371 48.2C507.771 49.5 508.471 51.35 508.471 53.75C508.471 56.25 507.771 58.2 506.371 59.6C505.071 60.9 503.171 61.55 500.671 61.55H455.371V90.65H497.371C499.971 90.65 501.921 91.3 503.221 92.6C504.521 93.9 505.171 95.8 505.171 98.3C505.171 100.8 504.521 102.7 503.221 104C501.921 105.3 499.971 105.95 497.371 105.95H455.371V136.7H500.671C503.171 136.7 505.071 137.35 506.371 138.65C507.771 139.95 508.471 141.85 508.471 144.35C508.471 146.85 507.771 148.75 506.371 150.05C505.071 151.35 503.171 152 500.671 152H447.121Z" fill="#045698"/>
<path d="M194.136 153.2C191.036 153.2 188.586 152.35 186.786 150.65C185.086 148.85 184.236 146.3 184.236 143V56.45C184.236 53.15 185.086 50.65 186.786 48.95C188.586 47.15 191.136 46.25 194.436 46.25H246.786C249.386 46.25 251.336 46.9 252.636 48.2C253.936 49.5 254.586 51.35 254.586 53.75C254.586 56.25 253.936 58.2 252.636 59.6C251.336 60.9 249.386 61.55 246.786 61.55H203.436V91.4H243.636C246.136 91.4 248.036 92.05 249.336 93.35C250.736 94.65 251.436 96.5 251.436 98.9C251.436 101.4 250.736 103.35 249.336 104.75C248.036 106.05 246.136 106.7 243.636 106.7H203.436V143C203.436 149.8 200.336 153.2 194.136 153.2Z" fill="#346A2E"/>
<path d="M362.443 152C359.343 152 356.943 151.15 355.243 149.45C353.543 147.65 352.693 145.2 352.693 142.1V55.55C352.693 52.35 353.493 49.95 355.093 48.35C356.793 46.65 359.193 45.8 362.293 45.8C365.393 45.8 367.743 46.65 369.343 48.35C371.043 49.95 371.893 52.35 371.893 55.55V135.65H415.393C418.093 135.65 420.143 136.35 421.543 137.75C423.043 139.15 423.793 141.15 423.793 143.75C423.793 146.35 423.043 148.4 421.543 149.9C420.143 151.3 418.093 152 415.393 152H362.443Z" fill="#FED105"/>
<path d="M14.227 150.8L17.8746 147.38L17.8746 147.38L14.227 150.8ZM14.377 47.45L17.7967 51.0977L17.8555 51.0425L17.9125 50.9855L14.377 47.45ZM26.827 46.55L23.9208 50.6187L24.0832 50.7347L24.2545 50.8375L26.827 46.55ZM30.877 51.35L26.444 53.6628L26.4609 53.6952L26.4783 53.7274L30.877 51.35ZM67.927 119.9V124.9H76.3129L72.3256 117.523L67.927 119.9ZM63.127 119.9L58.7283 117.523L54.741 124.9H63.127V119.9ZM100.177 51.35L104.576 53.7274L104.593 53.6952L104.61 53.6628L100.177 51.35ZM104.077 46.55L106.781 50.7559L106.884 50.6898L106.983 50.6187L104.077 46.55ZM116.377 47.45L112.729 50.8697L112.784 50.9285L112.841 50.9855L116.377 47.45ZM116.377 150.8L112.729 147.38L112.671 147.443L112.614 147.507L116.377 150.8ZM103.477 150.8L99.8293 154.22L99.8293 154.22L103.477 150.8ZM101.227 74.75V69.75H96.227V74.75H101.227ZM104.527 74.75L108.911 77.1539L112.971 69.75H104.527V74.75ZM73.027 132.2L77.3366 134.735L77.3749 134.67L77.4112 134.604L73.027 132.2ZM69.877 135.95L72.8178 139.994L72.8178 139.994L69.877 135.95ZM60.727 135.95L57.727 139.95L57.838 140.033L57.9535 140.11L60.727 135.95ZM57.577 132.2L53.1997 134.617L53.2093 134.634L53.2191 134.651L57.577 132.2ZM25.777 74.6V69.6H17.3052L21.3997 77.0166L25.777 74.6ZM29.377 74.6H34.377V69.6H29.377V74.6ZM27.127 150.8L23.4793 147.38L23.4206 147.443L23.3641 147.507L27.127 150.8ZM20.677 148.2C18.8538 148.2 18.184 147.71 17.8746 147.38L10.5793 154.22C13.2699 157.09 16.9001 158.2 20.677 158.2V148.2ZM17.8746 147.38C17.4645 146.943 16.977 146.095 16.977 144.2H6.97695C6.97695 147.905 7.98938 151.457 10.5793 154.22L17.8746 147.38ZM16.977 144.2V54.05H6.97695V144.2H16.977ZM16.977 54.05C16.977 52.0658 17.501 51.3749 17.7967 51.0977L10.9573 43.8023C8.05294 46.5251 6.97695 50.2342 6.97695 54.05H16.977ZM17.9125 50.9855C18.3626 50.5354 19.1694 50.05 20.977 50.05V40.05C17.1846 40.05 13.5913 41.1646 10.8414 43.9145L17.9125 50.9855ZM20.977 50.05C22.8867 50.05 23.6743 50.4426 23.9208 50.6187L29.7332 42.4813C27.1796 40.6574 24.0673 40.05 20.977 40.05V50.05ZM24.2545 50.8375C24.6706 51.0871 25.4779 51.811 26.444 53.6628L35.3099 49.0372C33.876 46.289 31.9833 43.8129 29.3994 42.2625L24.2545 50.8375ZM26.4783 53.7274L63.5283 122.277L72.3256 117.523L35.2756 48.9726L26.4783 53.7274ZM67.927 114.9H63.127V124.9H67.927V114.9ZM67.5256 122.277L104.576 53.7274L95.7783 48.9726L58.7283 117.523L67.5256 122.277ZM104.61 53.6628C105.612 51.7412 106.411 50.9937 106.781 50.7559L101.373 42.3441C98.9432 43.9063 97.1415 46.3588 95.744 49.0372L104.61 53.6628ZM106.983 50.6187C107.23 50.4426 108.017 50.05 109.927 50.05V40.05C106.837 40.05 103.724 40.6574 101.171 42.4813L106.983 50.6187ZM109.927 50.05C111.75 50.05 112.42 50.5397 112.729 50.8697L120.025 44.0303C117.334 41.1603 113.704 40.05 109.927 40.05V50.05ZM112.841 50.9855C113.102 51.2461 113.627 51.9777 113.627 54.05H123.627C123.627 50.3223 122.652 46.6539 119.912 43.9145L112.841 50.9855ZM113.627 54.05V144.2H123.627V54.05H113.627ZM113.627 144.2C113.627 146.095 113.139 146.943 112.729 147.38L120.025 154.22C122.615 151.457 123.627 147.905 123.627 144.2H113.627ZM112.614 147.507C112.474 147.668 111.935 148.2 109.927 148.2V158.2C113.719 158.2 117.48 157.132 120.14 154.093L112.614 147.507ZM109.927 148.2C108.104 148.2 107.434 147.71 107.125 147.38L99.8293 154.22C102.52 157.09 106.15 158.2 109.927 158.2V148.2ZM107.125 147.38C106.715 146.943 106.227 146.095 106.227 144.2H96.227C96.227 147.905 97.2394 151.457 99.8293 154.22L107.125 147.38ZM106.227 144.2V74.75H96.227V144.2H106.227ZM101.227 79.75H104.527V69.75H101.227V79.75ZM100.143 72.3461L68.6427 129.796L77.4112 134.604L108.911 77.1539L100.143 72.3461ZM68.7173 129.665C67.9212 131.018 67.2901 131.649 66.9361 131.906L72.8178 139.994C74.6638 138.651 76.1327 136.782 77.3366 134.735L68.7173 129.665ZM66.9361 131.906C66.9703 131.881 66.6284 132.15 65.377 132.15V142.15C67.9255 142.15 70.5836 141.619 72.8178 139.994L66.9361 131.906ZM65.377 132.15C64.1557 132.15 63.6554 131.893 63.5005 131.79L57.9535 140.11C60.1985 141.607 62.7982 142.15 65.377 142.15V132.15ZM63.727 131.95C63.1918 131.549 62.5689 130.876 61.9348 129.749L53.2191 134.651C54.385 136.724 55.8621 138.551 57.727 139.95L63.727 131.95ZM61.9542 129.783L30.1542 72.1834L21.3997 77.0166L53.1997 134.617L61.9542 129.783ZM25.777 79.6H29.377V69.6H25.777V79.6ZM24.377 74.6V144.2H34.377V74.6H24.377ZM24.377 144.2C24.377 146.095 23.8894 146.943 23.4793 147.38L30.7746 154.22C33.3645 151.457 34.377 147.905 34.377 144.2H24.377ZM23.3641 147.507C23.2237 147.668 22.6847 148.2 20.677 148.2V158.2C24.4692 158.2 28.2302 157.132 30.8898 154.093L23.3641 147.507ZM144.302 150.65L140.565 153.972L140.662 154.082L140.766 154.186L144.302 150.65ZM144.302 47.6L140.766 44.0645L140.712 44.118L140.661 44.1732L144.302 47.6ZM158.552 47.6L154.911 51.0268L154.962 51.082L155.016 51.1355L158.552 47.6ZM158.702 150.65L162.343 154.077L162.391 154.025L162.439 153.972L158.702 150.65ZM151.502 148.2C149.326 148.2 148.349 147.627 147.837 147.114L140.766 154.186C143.654 157.073 147.477 158.2 151.502 158.2V148.2ZM148.039 147.328C147.464 146.682 146.902 145.537 146.902 143.3H136.902C136.902 147.263 137.939 151.018 140.565 153.972L148.039 147.328ZM146.902 143.3V54.95H136.902V143.3H146.902ZM146.902 54.95C146.902 52.5451 147.496 51.5013 147.943 51.0268L140.661 44.1732C137.907 47.0987 136.902 50.9549 136.902 54.95H146.902ZM147.837 51.1355C148.349 50.6232 149.326 50.05 151.502 50.05V40.05C147.477 40.05 143.654 41.1768 140.766 44.0645L147.837 51.1355ZM151.502 50.05C153.695 50.05 154.537 50.6294 154.911 51.0268L162.193 44.1732C159.367 41.1706 155.508 40.05 151.502 40.05V50.05ZM155.016 51.1355C155.5 51.6195 156.102 52.6223 156.102 54.95H166.102C166.102 50.8777 165.003 46.9805 162.087 44.0645L155.016 51.1355ZM156.102 54.95V143.3H166.102V54.95H156.102ZM156.102 143.3C156.102 145.537 155.539 146.682 154.965 147.328L162.439 153.972C165.064 151.018 166.102 147.263 166.102 143.3H156.102ZM155.061 147.223C154.715 147.591 153.851 148.2 151.502 148.2V158.2C155.552 158.2 159.488 157.109 162.343 154.077L155.061 147.223ZM186.786 150.65L183.15 154.083L183.249 154.187L183.352 154.285L186.786 150.65ZM186.786 48.95L183.25 45.4145L183.25 45.4145L186.786 48.95ZM252.636 48.2L256.171 44.6645L256.171 44.6645L252.636 48.2ZM252.636 59.6L256.171 63.1355L256.237 63.0701L256.3 63.0022L252.636 59.6ZM203.436 61.55V56.55H198.436V61.55H203.436ZM203.436 91.4H198.436V96.4H203.436V91.4ZM249.336 93.35L245.8 96.8855L245.865 96.951L245.933 97.014L249.336 93.35ZM203.436 106.7V101.7H198.436V106.7H203.436ZM194.136 148.2C191.975 148.2 190.872 147.632 190.219 147.015L183.352 154.285C186.299 157.068 190.096 158.2 194.136 158.2V148.2ZM190.421 147.217C189.856 146.619 189.236 145.459 189.236 143H179.236C179.236 147.141 180.315 151.081 183.15 154.083L190.421 147.217ZM189.236 143V56.45H179.236V143H189.236ZM189.236 56.45C189.236 53.9709 189.864 52.9426 190.321 52.4855L183.25 45.4145C180.307 48.3574 179.236 52.3291 179.236 56.45H189.236ZM190.321 52.4855C190.929 51.878 192.052 51.25 194.436 51.25V41.25C190.219 41.25 186.243 42.422 183.25 45.4145L190.321 52.4855ZM194.436 51.25H246.786V41.25H194.436V51.25ZM246.786 51.25C248.615 51.25 249.068 51.7039 249.1 51.7355L256.171 44.6645C253.603 42.0961 250.156 41.25 246.786 41.25V51.25ZM249.1 51.7355C249.201 51.8368 249.586 52.2545 249.586 53.75H259.586C259.586 50.4455 258.67 47.1632 256.171 44.6645L249.1 51.7355ZM249.586 53.75C249.586 55.3884 249.174 55.9793 248.972 56.1977L256.3 63.0022C258.697 60.4207 259.586 57.1116 259.586 53.75H249.586ZM249.1 56.0645C249.068 56.0961 248.615 56.55 246.786 56.55V66.55C250.156 66.55 253.603 65.7039 256.171 63.1355L249.1 56.0645ZM246.786 56.55H203.436V66.55H246.786V56.55ZM198.436 61.55V91.4H208.436V61.55H198.436ZM203.436 96.4H243.636V86.4H203.436V96.4ZM243.636 96.4C245.299 96.4 245.735 96.8203 245.8 96.8855L252.871 89.8145C250.336 87.2797 246.972 86.4 243.636 86.4V96.4ZM245.933 97.014C246.066 97.137 246.436 97.5102 246.436 98.9H256.436C256.436 95.4898 255.405 92.163 252.738 89.686L245.933 97.014ZM246.436 98.9C246.436 100.441 246.031 100.983 245.8 101.214L252.871 108.286C255.44 105.717 256.436 102.359 256.436 98.9H246.436ZM245.8 101.214C245.735 101.28 245.299 101.7 243.636 101.7V111.7C246.972 111.7 250.336 110.82 252.871 108.286L245.8 101.214ZM243.636 101.7H203.436V111.7H243.636V101.7ZM198.436 106.7V143H208.436V106.7H198.436ZM198.436 143C198.436 145.738 197.802 146.858 197.416 147.281C197.11 147.617 196.34 148.2 194.136 148.2V158.2C198.131 158.2 202.011 157.083 204.805 154.019C207.519 151.042 208.436 147.062 208.436 143H198.436ZM271.014 150.65L267.379 154.083L267.477 154.187L267.581 154.285L271.014 150.65ZM271.014 48.95L267.479 45.4145L267.479 45.4145L271.014 48.95ZM336.864 48.2L340.4 44.6645L340.4 44.6645L336.864 48.2ZM336.864 59.6L340.4 63.1355L340.465 63.0701L340.528 63.0022L336.864 59.6ZM287.664 61.55V56.55H282.664V61.55H287.664ZM287.664 91.4H282.664V96.4H287.664V91.4ZM333.564 93.35L330.029 96.8855L330.094 96.951L330.162 97.014L333.564 93.35ZM287.664 106.7V101.7H282.664V106.7H287.664ZM278.364 148.2C276.204 148.2 275.1 147.632 274.447 147.015L267.581 154.285C270.528 157.068 274.324 158.2 278.364 158.2V148.2ZM274.649 147.217C274.085 146.619 273.464 145.459 273.464 143H263.464C263.464 147.141 264.543 151.081 267.379 154.083L274.649 147.217ZM273.464 143V56.45H263.464V143H273.464ZM273.464 56.45C273.464 53.9709 274.093 52.9426 274.55 52.4855L267.479 45.4145C264.536 48.3574 263.464 52.3291 263.464 56.45H273.464ZM274.55 52.4855C275.157 51.878 276.28 51.25 278.664 51.25V41.25C274.448 41.25 270.471 42.422 267.479 45.4145L274.55 52.4855ZM278.664 51.25H331.014V41.25H278.664V51.25ZM331.014 51.25C332.843 51.25 333.297 51.7039 333.329 51.7355L340.4 44.6645C337.831 42.0961 334.385 41.25 331.014 41.25V51.25ZM333.329 51.7355C333.43 51.8368 333.814 52.2545 333.814 53.75H343.814C343.814 50.4455 342.898 47.1632 340.4 44.6645L333.329 51.7355ZM333.814 53.75C333.814 55.3884 333.403 55.9793 333.2 56.1977L340.528 63.0022C342.925 60.4207 343.814 57.1116 343.814 53.75H333.814ZM333.329 56.0645C333.297 56.0961 332.843 56.55 331.014 56.55V66.55C334.385 66.55 337.831 65.7039 340.4 63.1355L333.329 56.0645ZM331.014 56.55H287.664V66.55H331.014V56.55ZM282.664 61.55V91.4H292.664V61.55H282.664ZM287.664 96.4H327.864V86.4H287.664V96.4ZM327.864 96.4C329.527 96.4 329.963 96.8203 330.029 96.8855L337.1 89.8145C334.565 87.2797 331.201 86.4 327.864 86.4V96.4ZM330.162 97.014C330.294 97.137 330.664 97.5102 330.664 98.9H340.664C340.664 95.4898 339.634 92.163 336.966 89.686L330.162 97.014ZM330.664 98.9C330.664 100.441 330.26 100.983 330.029 101.214L337.1 108.286C339.668 105.717 340.664 102.359 340.664 98.9H330.664ZM330.029 101.214C329.963 101.28 329.527 101.7 327.864 101.7V111.7C331.201 111.7 334.565 110.82 337.1 108.286L330.029 101.214ZM327.864 101.7H287.664V111.7H327.864V101.7ZM282.664 106.7V143H292.664V106.7H282.664ZM282.664 143C282.664 145.738 282.03 146.858 281.644 147.281C281.338 147.617 280.568 148.2 278.364 148.2V158.2C282.36 158.2 286.24 157.083 289.034 154.019C291.748 151.042 292.664 147.062 292.664 143H282.664ZM355.243 149.45L351.608 152.883L351.657 152.935L351.707 152.986L355.243 149.45ZM355.093 48.35L351.557 44.8145L351.557 44.8145L355.093 48.35ZM369.343 48.35L365.702 51.7768L365.805 51.8872L365.916 51.991L369.343 48.35ZM371.893 135.65H366.893V140.65H371.893V135.65ZM421.543 137.75L418.007 141.286L418.068 141.346L418.131 141.405L421.543 137.75ZM421.543 149.9L425.078 153.436L425.078 153.436L421.543 149.9ZM362.443 147C360.267 147 359.29 146.427 358.778 145.914L351.707 152.986C354.595 155.873 358.418 157 362.443 157V147ZM358.878 146.017C358.261 145.364 357.693 144.26 357.693 142.1H347.693C347.693 146.14 348.824 149.936 351.608 152.883L358.878 146.017ZM357.693 142.1V55.55H347.693V142.1H357.693ZM357.693 55.55C357.693 53.1207 358.297 52.2171 358.628 51.8855L351.557 44.8145C348.689 47.6829 347.693 51.5793 347.693 55.55H357.693ZM358.628 51.8855C359.14 51.3732 360.117 50.8 362.293 50.8V40.8C358.268 40.8 354.445 41.9268 351.557 44.8145L358.628 51.8855ZM362.293 50.8C364.486 50.8 365.328 51.3794 365.702 51.7768L372.984 44.9232C370.158 41.9206 366.299 40.8 362.293 40.8V50.8ZM365.916 51.991C366.283 52.3368 366.893 53.2008 366.893 55.55H376.893C376.893 51.4992 375.802 47.5632 372.769 44.709L365.916 51.991ZM366.893 55.55V135.65H376.893V55.55H366.893ZM371.893 140.65H415.393V130.65H371.893V140.65ZM415.393 140.65C417.261 140.65 417.844 141.123 418.007 141.286L425.078 134.214C422.441 131.577 418.924 130.65 415.393 130.65V140.65ZM418.131 141.405C418.362 141.621 418.793 142.142 418.793 143.75H428.793C428.793 140.158 427.723 136.679 424.954 134.095L418.131 141.405ZM418.793 143.75C418.793 145.342 418.366 146.005 418.007 146.364L425.078 153.436C427.719 150.795 428.793 147.358 428.793 143.75H418.793ZM418.007 146.364C417.844 146.527 417.261 147 415.393 147V157C418.924 157 422.441 156.073 425.078 153.436L418.007 146.364ZM415.393 147H362.443V157H415.393V147ZM439.471 149.45L435.836 152.883L435.934 152.987L436.038 153.085L439.471 149.45ZM439.471 48.95L435.936 45.4145L435.936 45.4145L439.471 48.95ZM506.371 48.2L502.836 51.7355L502.901 51.801L502.969 51.864L506.371 48.2ZM455.371 61.55V56.55H450.371V61.55H455.371ZM455.371 90.65H450.371V95.65H455.371V90.65ZM503.221 92.6L506.757 89.0645L506.757 89.0645L503.221 92.6ZM503.221 104L506.757 107.536L506.757 107.536L503.221 104ZM455.371 105.95V100.95H450.371V105.95H455.371ZM455.371 136.7H450.371V141.7H455.371V136.7ZM506.371 138.65L502.836 142.186L502.901 142.251L502.969 142.314L506.371 138.65ZM506.371 150.05L502.969 146.386L502.901 146.449L502.836 146.514L506.371 150.05ZM447.121 147C444.662 147 443.502 146.379 442.904 145.815L436.038 153.085C439.04 155.921 442.98 157 447.121 157V147ZM443.106 146.017C442.542 145.419 441.921 144.259 441.921 141.8H431.921C431.921 145.941 433 149.881 435.836 152.883L443.106 146.017ZM441.921 141.8V56.45H431.921V141.8H441.921ZM441.921 56.45C441.921 53.9709 442.55 52.9426 443.007 52.4855L435.936 45.4145C432.993 48.3574 431.921 52.3291 431.921 56.45H441.921ZM443.007 52.4855C443.614 51.878 444.737 51.25 447.121 51.25V41.25C442.905 41.25 438.928 42.422 435.936 45.4145L443.007 52.4855ZM447.121 51.25H500.671V41.25H447.121V51.25ZM500.671 51.25C502.334 51.25 502.77 51.6703 502.836 51.7355L509.907 44.6645C507.372 42.1297 504.008 41.25 500.671 41.25V51.25ZM502.969 51.864C503.101 51.987 503.471 52.3602 503.471 53.75H513.471C513.471 50.3398 512.441 47.013 509.773 44.536L502.969 51.864ZM503.471 53.75C503.471 55.2906 503.067 55.833 502.836 56.0645L509.907 63.1355C512.475 60.567 513.471 57.2094 513.471 53.75H503.471ZM502.836 56.0645C502.77 56.1297 502.334 56.55 500.671 56.55V66.55C504.008 66.55 507.372 65.6703 509.907 63.1355L502.836 56.0645ZM500.671 56.55H455.371V66.55H500.671V56.55ZM450.371 61.55V90.65H460.371V61.55H450.371ZM455.371 95.65H497.371V85.65H455.371V95.65ZM497.371 95.65C499.2 95.65 499.654 96.1039 499.686 96.1355L506.757 89.0645C504.188 86.4961 500.742 85.65 497.371 85.65V95.65ZM499.686 96.1355C499.751 96.2007 500.171 96.6366 500.171 98.3H510.171C510.171 94.9634 509.291 91.5993 506.757 89.0645L499.686 96.1355ZM500.171 98.3C500.171 99.9634 499.751 100.399 499.686 100.464L506.757 107.536C509.291 105.001 510.171 101.637 510.171 98.3H500.171ZM499.686 100.464C499.654 100.496 499.2 100.95 497.371 100.95V110.95C500.742 110.95 504.188 110.104 506.757 107.536L499.686 100.464ZM497.371 100.95H455.371V110.95H497.371V100.95ZM450.371 105.95V136.7H460.371V105.95H450.371ZM455.371 141.7H500.671V131.7H455.371V141.7ZM500.671 141.7C502.334 141.7 502.77 142.12 502.836 142.186L509.907 135.114C507.372 132.58 504.008 131.7 500.671 131.7V141.7ZM502.969 142.314C503.061 142.399 503.471 142.789 503.471 144.35H513.471C513.471 140.911 512.482 137.501 509.773 134.986L502.969 142.314ZM503.471 144.35C503.471 145.911 503.061 146.301 502.969 146.386L509.773 153.714C512.482 151.199 513.471 147.789 513.471 144.35H503.471ZM502.836 146.514C502.77 146.58 502.334 147 500.671 147V157C504.008 157 507.372 156.12 509.907 153.586L502.836 146.514ZM500.671 147H447.121V157H500.671V147Z" fill="black" mask="url(#path-1-outside-1_15_207)"/>
</svg>
