<svg width="673" height="205" viewBox="0 0 673 205" fill="none" xmlns="http://www.w3.org/2000/svg">
<mask id="path-1-outside-1_7_205" maskUnits="userSpaceOnUse" x="1" y="39" width="671" height="120" fill="black">
<rect fill="white" x="1" y="39" width="671" height="120"/>
<path d="M48.7754 153.2C46.0754 153.2 43.8754 152.55 42.1754 151.25C40.5754 149.95 39.2754 147.9 38.2754 145.1L6.92539 56.45C5.82539 53.25 6.02539 50.55 7.52539 48.35C9.12539 46.15 11.7754 45.05 15.4754 45.05C18.1754 45.05 20.2754 45.7 21.7754 47C23.2754 48.2 24.4754 50.15 25.3754 52.85L52.3754 132.95H46.3754L74.5754 53C75.5754 50.3 76.8254 48.3 78.3254 47C79.8254 45.7 81.7754 45.05 84.1754 45.05C86.5754 45.05 88.4754 45.7 89.8754 47C91.2754 48.3 92.4754 50.35 93.4754 53.15L120.775 132.95H115.525L142.975 52.85C143.875 50.25 145.075 48.3 146.575 47C148.075 45.7 150.125 45.05 152.725 45.05C155.925 45.05 158.275 46.15 159.775 48.35C161.275 50.55 161.475 53.25 160.375 56.45L128.725 145.25C127.725 147.95 126.425 149.95 124.825 151.25C123.225 152.55 121.075 153.2 118.375 153.2C115.675 153.2 113.525 152.55 111.925 151.25C110.325 149.95 109.025 147.9 108.025 145.1L81.9254 70.7H85.3754L58.9754 145.25C57.9754 147.95 56.6754 149.95 55.0754 151.25C53.5754 152.55 51.4754 153.2 48.7754 153.2ZM406.736 152C403.436 152 400.886 151.15 399.086 149.45C397.386 147.65 396.536 145.1 396.536 141.8V56.45C396.536 53.15 397.386 50.65 399.086 48.95C400.886 47.15 403.436 46.25 406.736 46.25H435.836C453.536 46.25 467.186 50.8 476.786 59.9C486.486 69 491.336 82.05 491.336 99.05C491.336 107.55 490.086 115.1 487.586 121.7C485.186 128.2 481.586 133.7 476.786 138.2C472.086 142.7 466.286 146.15 459.386 148.55C452.586 150.85 444.736 152 435.836 152H406.736ZM415.736 136.1H434.636C440.836 136.1 446.186 135.35 450.686 133.85C455.286 132.25 459.086 129.95 462.086 126.95C465.186 123.85 467.486 120 468.986 115.4C470.486 110.7 471.236 105.25 471.236 99.05C471.236 86.65 468.186 77.4 462.086 71.3C455.986 65.2 446.836 62.15 434.636 62.15H415.736V136.1Z"/>
<path d="M223.331 153.5C213.131 153.5 204.181 151.25 196.481 146.75C188.881 142.25 182.981 135.95 178.781 127.85C174.581 119.65 172.481 110.05 172.481 99.05C172.481 90.75 173.681 83.3 176.081 76.7C178.481 70 181.881 64.3 186.281 59.6C190.781 54.8 196.131 51.15 202.331 48.65C208.631 46.05 215.631 44.75 223.331 44.75C233.631 44.75 242.581 47 250.181 51.5C257.781 55.9 263.681 62.15 267.881 70.25C272.081 78.35 274.181 87.9 274.181 98.9C274.181 107.2 272.981 114.7 270.581 121.4C268.181 128.1 264.731 133.85 260.231 138.65C255.831 143.45 250.481 147.15 244.181 149.75C237.981 152.25 231.031 153.5 223.331 153.5ZM223.331 137C229.831 137 235.331 135.5 239.831 132.5C244.431 129.5 247.931 125.15 250.331 119.45C252.831 113.75 254.081 106.95 254.081 99.05C254.081 87.05 251.381 77.75 245.981 71.15C240.681 64.55 233.131 61.25 223.331 61.25C216.931 61.25 211.431 62.75 206.831 65.75C202.231 68.65 198.681 72.95 196.181 78.65C193.781 84.25 192.581 91.05 192.581 99.05C192.581 110.95 195.281 120.25 200.681 126.95C206.081 133.65 213.631 137 223.331 137ZM605.223 152C601.923 152 599.373 151.15 597.573 149.45C595.873 147.65 595.023 145.1 595.023 141.8V56.45C595.023 53.15 595.873 50.65 597.573 48.95C599.373 47.15 601.923 46.25 605.223 46.25H658.773C661.273 46.25 663.173 46.9 664.473 48.2C665.873 49.5 666.573 51.35 666.573 53.75C666.573 56.25 665.873 58.2 664.473 59.6C663.173 60.9 661.273 61.55 658.773 61.55H613.473V90.65H655.473C658.073 90.65 660.023 91.3 661.323 92.6C662.623 93.9 663.273 95.8 663.273 98.3C663.273 100.8 662.623 102.7 661.323 104C660.023 105.3 658.073 105.95 655.473 105.95H613.473V136.7H658.773C661.273 136.7 663.173 137.35 664.473 138.65C665.873 139.95 666.573 141.85 666.573 144.35C666.573 146.85 665.873 148.75 664.473 150.05C663.173 151.35 661.273 152 658.773 152H605.223Z"/>
<path d="M303.304 153.2C300.204 153.2 297.804 152.35 296.104 150.65C294.504 148.85 293.704 146.4 293.704 143.3V56C293.704 52.8 294.554 50.4 296.254 48.8C297.954 47.1 300.354 46.25 303.454 46.25H339.604C351.204 46.25 360.154 49.05 366.454 54.65C372.754 60.15 375.904 67.9 375.904 77.9C375.904 84.4 374.454 90 371.554 94.7C368.754 99.4 364.654 103 359.254 105.5C353.854 108 347.304 109.25 339.604 109.25L340.954 107H345.904C350.004 107 353.554 108 356.554 110C359.654 112 362.354 115.15 364.654 119.45L375.904 140.3C377.104 142.4 377.654 144.45 377.554 146.45C377.454 148.45 376.704 150.1 375.304 151.4C373.904 152.6 371.854 153.2 369.154 153.2C366.454 153.2 364.254 152.65 362.554 151.55C360.854 150.35 359.354 148.55 358.054 146.15L342.904 118.25C341.104 114.85 338.954 112.6 336.454 111.5C334.054 110.3 330.954 109.7 327.154 109.7H312.904V143.3C312.904 146.4 312.104 148.85 310.504 150.65C308.904 152.35 306.504 153.2 303.304 153.2ZM312.904 95.45H336.304C343.204 95.45 348.404 94.05 351.904 91.25C355.504 88.35 357.304 84.05 357.304 78.35C357.304 72.75 355.504 68.55 351.904 65.75C348.404 62.85 343.204 61.4 336.304 61.4H312.904V95.45Z"/>
<path d="M520.544 152C517.444 152 515.044 151.15 513.344 149.45C511.644 147.65 510.794 145.2 510.794 142.1V55.55C510.794 52.35 511.594 49.95 513.194 48.35C514.894 46.65 517.294 45.8 520.394 45.8C523.494 45.8 525.844 46.65 527.444 48.35C529.144 49.95 529.994 52.35 529.994 55.55V135.65H573.494C576.194 135.65 578.244 136.35 579.644 137.75C581.144 139.15 581.894 141.15 581.894 143.75C581.894 146.35 581.144 148.4 579.644 149.9C578.244 151.3 576.194 152 573.494 152H520.544Z"/>
</mask>
<path d="M48.7754 153.2C46.0754 153.2 43.8754 152.55 42.1754 151.25C40.5754 149.95 39.2754 147.9 38.2754 145.1L6.92539 56.45C5.82539 53.25 6.02539 50.55 7.52539 48.35C9.12539 46.15 11.7754 45.05 15.4754 45.05C18.1754 45.05 20.2754 45.7 21.7754 47C23.2754 48.2 24.4754 50.15 25.3754 52.85L52.3754 132.95H46.3754L74.5754 53C75.5754 50.3 76.8254 48.3 78.3254 47C79.8254 45.7 81.7754 45.05 84.1754 45.05C86.5754 45.05 88.4754 45.7 89.8754 47C91.2754 48.3 92.4754 50.35 93.4754 53.15L120.775 132.95H115.525L142.975 52.85C143.875 50.25 145.075 48.3 146.575 47C148.075 45.7 150.125 45.05 152.725 45.05C155.925 45.05 158.275 46.15 159.775 48.35C161.275 50.55 161.475 53.25 160.375 56.45L128.725 145.25C127.725 147.95 126.425 149.95 124.825 151.25C123.225 152.55 121.075 153.2 118.375 153.2C115.675 153.2 113.525 152.55 111.925 151.25C110.325 149.95 109.025 147.9 108.025 145.1L81.9254 70.7H85.3754L58.9754 145.25C57.9754 147.95 56.6754 149.95 55.0754 151.25C53.5754 152.55 51.4754 153.2 48.7754 153.2ZM406.736 152C403.436 152 400.886 151.15 399.086 149.45C397.386 147.65 396.536 145.1 396.536 141.8V56.45C396.536 53.15 397.386 50.65 399.086 48.95C400.886 47.15 403.436 46.25 406.736 46.25H435.836C453.536 46.25 467.186 50.8 476.786 59.9C486.486 69 491.336 82.05 491.336 99.05C491.336 107.55 490.086 115.1 487.586 121.7C485.186 128.2 481.586 133.7 476.786 138.2C472.086 142.7 466.286 146.15 459.386 148.55C452.586 150.85 444.736 152 435.836 152H406.736ZM415.736 136.1H434.636C440.836 136.1 446.186 135.35 450.686 133.85C455.286 132.25 459.086 129.95 462.086 126.95C465.186 123.85 467.486 120 468.986 115.4C470.486 110.7 471.236 105.25 471.236 99.05C471.236 86.65 468.186 77.4 462.086 71.3C455.986 65.2 446.836 62.15 434.636 62.15H415.736V136.1Z" fill="#F46523"/>
<path d="M223.331 153.5C213.131 153.5 204.181 151.25 196.481 146.75C188.881 142.25 182.981 135.95 178.781 127.85C174.581 119.65 172.481 110.05 172.481 99.05C172.481 90.75 173.681 83.3 176.081 76.7C178.481 70 181.881 64.3 186.281 59.6C190.781 54.8 196.131 51.15 202.331 48.65C208.631 46.05 215.631 44.75 223.331 44.75C233.631 44.75 242.581 47 250.181 51.5C257.781 55.9 263.681 62.15 267.881 70.25C272.081 78.35 274.181 87.9 274.181 98.9C274.181 107.2 272.981 114.7 270.581 121.4C268.181 128.1 264.731 133.85 260.231 138.65C255.831 143.45 250.481 147.15 244.181 149.75C237.981 152.25 231.031 153.5 223.331 153.5ZM223.331 137C229.831 137 235.331 135.5 239.831 132.5C244.431 129.5 247.931 125.15 250.331 119.45C252.831 113.75 254.081 106.95 254.081 99.05C254.081 87.05 251.381 77.75 245.981 71.15C240.681 64.55 233.131 61.25 223.331 61.25C216.931 61.25 211.431 62.75 206.831 65.75C202.231 68.65 198.681 72.95 196.181 78.65C193.781 84.25 192.581 91.05 192.581 99.05C192.581 110.95 195.281 120.25 200.681 126.95C206.081 133.65 213.631 137 223.331 137ZM605.223 152C601.923 152 599.373 151.15 597.573 149.45C595.873 147.65 595.023 145.1 595.023 141.8V56.45C595.023 53.15 595.873 50.65 597.573 48.95C599.373 47.15 601.923 46.25 605.223 46.25H658.773C661.273 46.25 663.173 46.9 664.473 48.2C665.873 49.5 666.573 51.35 666.573 53.75C666.573 56.25 665.873 58.2 664.473 59.6C663.173 60.9 661.273 61.55 658.773 61.55H613.473V90.65H655.473C658.073 90.65 660.023 91.3 661.323 92.6C662.623 93.9 663.273 95.8 663.273 98.3C663.273 100.8 662.623 102.7 661.323 104C660.023 105.3 658.073 105.95 655.473 105.95H613.473V136.7H658.773C661.273 136.7 663.173 137.35 664.473 138.65C665.873 139.95 666.573 141.85 666.573 144.35C666.573 146.85 665.873 148.75 664.473 150.05C663.173 151.35 661.273 152 658.773 152H605.223Z" fill="#045698"/>
<path d="M303.304 153.2C300.204 153.2 297.804 152.35 296.104 150.65C294.504 148.85 293.704 146.4 293.704 143.3V56C293.704 52.8 294.554 50.4 296.254 48.8C297.954 47.1 300.354 46.25 303.454 46.25H339.604C351.204 46.25 360.154 49.05 366.454 54.65C372.754 60.15 375.904 67.9 375.904 77.9C375.904 84.4 374.454 90 371.554 94.7C368.754 99.4 364.654 103 359.254 105.5C353.854 108 347.304 109.25 339.604 109.25L340.954 107H345.904C350.004 107 353.554 108 356.554 110C359.654 112 362.354 115.15 364.654 119.45L375.904 140.3C377.104 142.4 377.654 144.45 377.554 146.45C377.454 148.45 376.704 150.1 375.304 151.4C373.904 152.6 371.854 153.2 369.154 153.2C366.454 153.2 364.254 152.65 362.554 151.55C360.854 150.35 359.354 148.55 358.054 146.15L342.904 118.25C341.104 114.85 338.954 112.6 336.454 111.5C334.054 110.3 330.954 109.7 327.154 109.7H312.904V143.3C312.904 146.4 312.104 148.85 310.504 150.65C308.904 152.35 306.504 153.2 303.304 153.2ZM312.904 95.45H336.304C343.204 95.45 348.404 94.05 351.904 91.25C355.504 88.35 357.304 84.05 357.304 78.35C357.304 72.75 355.504 68.55 351.904 65.75C348.404 62.85 343.204 61.4 336.304 61.4H312.904V95.45Z" fill="#346A2E"/>
<path d="M520.544 152C517.444 152 515.044 151.15 513.344 149.45C511.644 147.65 510.794 145.2 510.794 142.1V55.55C510.794 52.35 511.594 49.95 513.194 48.35C514.894 46.65 517.294 45.8 520.394 45.8C523.494 45.8 525.844 46.65 527.444 48.35C529.144 49.95 529.994 52.35 529.994 55.55V135.65H573.494C576.194 135.65 578.244 136.35 579.644 137.75C581.144 139.15 581.894 141.15 581.894 143.75C581.894 146.35 581.144 148.4 579.644 149.9C578.244 151.3 576.194 152 573.494 152H520.544Z" fill="#FED105"/>
<path d="M42.1754 151.25L39.0224 155.131L39.0796 155.177L39.1381 155.222L42.1754 151.25ZM38.2754 145.1L33.5615 146.767L33.5641 146.774L33.5667 146.782L38.2754 145.1ZM6.92539 56.45L2.19696 58.0754L2.20412 58.0962L2.21147 58.117L6.92539 56.45ZM7.52539 48.35L3.48171 45.4091L3.43704 45.4706L3.39425 45.5333L7.52539 48.35ZM21.7754 47L18.5007 50.7784L18.5751 50.8429L18.6519 50.9043L21.7754 47ZM25.3754 52.85L20.632 54.4311L20.6346 54.4391L20.6373 54.4471L25.3754 52.85ZM52.3754 132.95V137.95H59.3372L57.1135 131.353L52.3754 132.95ZM46.3754 132.95L41.6601 131.287L39.3099 137.95H46.3754V132.95ZM74.5754 53L69.8867 51.2634L69.8731 51.3L69.8601 51.3368L74.5754 53ZM93.4754 53.15L98.2062 51.5316L98.1954 51.4999L98.1841 51.4683L93.4754 53.15ZM120.775 132.95V137.95H127.77L125.506 131.332L120.775 132.95ZM115.525 132.95L110.795 131.329L108.526 137.95H115.525V132.95ZM142.975 52.85L138.25 51.2144L138.248 51.2217L138.245 51.2291L142.975 52.85ZM160.375 56.45L165.085 58.1287L165.095 58.1021L165.104 58.0754L160.375 56.45ZM128.725 145.25L133.414 146.987L133.425 146.958L133.435 146.929L128.725 145.25ZM124.825 151.25L121.672 147.369H121.672L124.825 151.25ZM111.925 151.25L115.078 147.369L111.925 151.25ZM108.025 145.1L103.307 146.755L103.312 146.768L103.317 146.782L108.025 145.1ZM81.9254 70.7V65.7H74.8726L77.2073 72.3551L81.9254 70.7ZM85.3754 70.7L90.0886 72.369L92.4503 65.7H85.3754V70.7ZM58.9754 145.25L63.6641 146.987L63.6766 146.953L63.6886 146.919L58.9754 145.25ZM55.0754 151.25L51.9224 147.369L51.8608 147.42L51.8007 147.472L55.0754 151.25ZM48.7754 148.2C46.8819 148.2 45.8344 147.754 45.2126 147.278L39.1381 155.222C41.9164 157.346 45.2689 158.2 48.7754 158.2V148.2ZM45.3284 147.369C44.6855 146.847 43.8049 145.716 42.9841 143.418L33.5667 146.782C34.7459 150.084 36.4653 153.053 39.0224 155.131L45.3284 147.369ZM42.9893 143.433L11.6393 54.783L2.21147 58.117L33.5615 146.767L42.9893 143.433ZM11.6538 54.8246C10.9134 52.6706 11.2811 51.7173 11.6565 51.1667L3.39425 45.5333C0.769664 49.3827 0.737404 53.8294 2.19696 58.0754L11.6538 54.8246ZM11.5691 51.2909C11.9133 50.8176 12.7513 50.05 15.4754 50.05V40.05C10.7994 40.05 6.33752 41.4824 3.48171 45.4091L11.5691 51.2909ZM15.4754 50.05C17.4077 50.05 18.1921 50.511 18.5007 50.7784L25.05 43.2215C22.3586 40.889 18.943 40.05 15.4754 40.05V50.05ZM18.6519 50.9043C19.1188 51.2779 19.8988 52.2316 20.632 54.4311L30.1188 51.2689C29.052 48.0684 27.4319 45.1221 24.8989 43.0957L18.6519 50.9043ZM20.6373 54.4471L47.6373 134.547L57.1135 131.353L30.1135 51.2529L20.6373 54.4471ZM52.3754 127.95H46.3754V137.95H52.3754V127.95ZM51.0907 134.613L79.2907 54.6632L69.8601 51.3368L41.6601 131.287L51.0907 134.613ZM79.2641 54.7366C80.0949 52.4935 80.9581 51.3348 81.6001 50.7784L75.0507 43.2215C72.6927 45.2652 71.0559 48.1065 69.8867 51.2634L79.2641 54.7366ZM81.6001 50.7784C82.0102 50.423 82.7154 50.05 84.1754 50.05V40.05C80.8354 40.05 77.6406 40.977 75.0507 43.2215L81.6001 50.7784ZM84.1754 50.05C85.6505 50.05 86.2185 50.4275 86.4731 50.664L93.2777 43.336C90.7323 40.9725 87.5003 40.05 84.1754 40.05V50.05ZM86.4731 50.664C87.0468 51.1966 87.9008 52.4072 88.7667 54.8317L98.1841 51.4683C97.05 48.2928 95.504 45.4034 93.2777 43.336L86.4731 50.664ZM88.7446 54.7684L116.045 134.568L125.506 131.332L98.2062 51.5316L88.7446 54.7684ZM120.775 127.95H115.525V137.95H120.775V127.95ZM120.255 134.571L147.705 54.4709L138.245 51.2291L110.795 131.329L120.255 134.571ZM147.7 54.4855C148.419 52.4094 149.221 51.3238 149.85 50.7784L143.301 43.2215C140.93 45.2761 139.332 48.0906 138.25 51.2144L147.7 54.4855ZM149.85 50.7784C150.19 50.4836 150.949 50.05 152.725 50.05V40.05C149.302 40.05 145.961 40.9164 143.301 43.2215L149.85 50.7784ZM152.725 50.05C154.654 50.05 155.272 50.6203 155.644 51.1667L163.907 45.5333C161.279 41.6797 157.197 40.05 152.725 40.05V50.05ZM155.644 51.1667C156.02 51.7173 156.387 52.6706 155.647 54.8246L165.104 58.0754C166.563 53.8294 166.531 49.3827 163.907 45.5333L155.644 51.1667ZM155.666 54.7713L124.016 143.571L133.435 146.929L165.085 58.1287L155.666 54.7713ZM124.037 143.513C123.23 145.691 122.355 146.814 121.672 147.369L127.978 155.131C130.495 153.086 132.221 150.209 133.414 146.987L124.037 143.513ZM121.672 147.369C121.207 147.747 120.286 148.2 118.375 148.2V158.2C121.865 158.2 125.244 157.353 127.978 155.131L121.672 147.369ZM118.375 148.2C116.465 148.2 115.544 147.747 115.078 147.369L108.772 155.131C111.507 157.353 114.886 158.2 118.375 158.2V148.2ZM115.078 147.369C114.435 146.847 113.555 145.716 112.734 143.418L103.317 146.782C104.496 150.084 106.215 153.053 108.772 155.131L115.078 147.369ZM112.743 143.445L86.6435 69.0449L77.2073 72.3551L103.307 146.755L112.743 143.445ZM81.9254 75.7H85.3754V65.7H81.9254V75.7ZM80.6622 69.0309L54.2622 143.581L63.6886 146.919L90.0886 72.369L80.6622 69.0309ZM54.2866 143.513C53.48 145.691 52.6054 146.814 51.9224 147.369L58.2284 155.131C60.7453 153.086 62.4708 150.209 63.6641 146.987L54.2866 143.513ZM51.8007 147.472C51.4921 147.739 50.7077 148.2 48.7754 148.2V158.2C52.243 158.2 55.6586 157.361 58.35 155.028L51.8007 147.472ZM196.481 146.75L193.933 151.052L193.946 151.06L193.958 151.067L196.481 146.75ZM178.781 127.85L174.331 130.129L174.336 130.14L174.342 130.152L178.781 127.85ZM176.081 76.7L180.78 78.4087L180.784 78.3974L180.788 78.3861L176.081 76.7ZM186.281 59.6L182.633 56.1803L182.631 56.1829L186.281 59.6ZM202.331 48.65L204.201 53.2872L204.22 53.2796L204.238 53.2719L202.331 48.65ZM250.181 51.5L247.633 55.8024L247.654 55.8149L247.676 55.8271L250.181 51.5ZM267.881 70.25L272.32 67.9484L267.881 70.25ZM270.581 121.4L265.874 119.714L270.581 121.4ZM260.231 138.65L256.583 135.23L256.564 135.251L256.545 135.271L260.231 138.65ZM244.181 149.75L246.051 154.387L246.07 154.38L246.088 154.372L244.181 149.75ZM239.831 132.5L237.1 128.312L237.078 128.326L237.057 128.34L239.831 132.5ZM250.331 119.45L245.752 117.442L245.737 117.476L245.723 117.51L250.331 119.45ZM245.981 71.15L242.082 74.2807L242.097 74.2985L242.111 74.3162L245.981 71.15ZM206.831 65.75L209.497 69.9796L209.53 69.9591L209.562 69.938L206.831 65.75ZM196.181 78.65L191.602 76.6417L191.593 76.661L191.585 76.6804L196.181 78.65ZM200.681 126.95L204.574 123.812L200.681 126.95ZM223.331 148.5C213.888 148.5 205.834 146.425 199.004 142.433L193.958 151.067C202.528 156.075 212.374 158.5 223.331 158.5V148.5ZM199.028 142.448C192.261 138.441 187.004 132.847 183.22 125.548L174.342 130.152C178.958 139.053 185.501 146.059 193.933 151.052L199.028 142.448ZM183.231 125.571C179.456 118.2 177.481 109.41 177.481 99.05H167.481C167.481 110.69 169.706 121.1 174.331 130.129L183.231 125.571ZM177.481 99.05C177.481 91.2292 178.612 84.3715 180.78 78.4087L171.382 74.9913C168.75 82.2285 167.481 90.2708 167.481 99.05H177.481ZM180.788 78.3861C182.982 72.2611 186.045 67.1681 189.931 63.0171L182.631 56.1829C177.717 61.4319 173.98 67.7388 171.374 75.0139L180.788 78.3861ZM189.929 63.0197C193.923 58.7586 198.664 55.5199 204.201 53.2872L200.461 44.0128C193.598 46.7801 187.638 50.8414 182.633 56.1803L189.929 63.0197ZM204.238 53.2719C209.86 50.9519 216.201 49.75 223.331 49.75V39.75C215.061 39.75 207.402 41.1481 200.423 44.0281L204.238 53.2719ZM223.331 49.75C232.885 49.75 240.925 51.8302 247.633 55.8024L252.728 47.1976C244.237 42.1698 234.376 39.75 223.331 39.75V49.75ZM247.676 55.8271C254.418 59.7307 259.663 65.2624 263.442 72.5516L272.32 67.9484C267.699 59.0375 261.144 52.0693 252.686 47.1729L247.676 55.8271ZM263.442 72.5516C267.205 79.8084 269.181 88.5379 269.181 98.9H279.181C279.181 87.2621 276.957 76.8915 272.32 67.9484L263.442 72.5516ZM269.181 98.9C269.181 106.719 268.051 113.637 265.874 119.714L275.288 123.086C277.911 115.763 279.181 107.681 279.181 98.9H269.181ZM265.874 119.714C263.685 125.823 260.578 130.969 256.583 135.23L263.879 142.07C268.884 136.731 272.676 130.377 275.288 123.086L265.874 119.714ZM256.545 135.271C252.663 139.507 247.929 142.794 242.273 145.128L246.088 154.372C253.033 151.506 258.999 147.393 263.917 142.029L256.545 135.271ZM242.311 145.113C236.788 147.34 230.486 148.5 223.331 148.5V158.5C231.575 158.5 239.173 157.16 246.051 154.387L242.311 145.113ZM223.331 142C230.616 142 237.13 140.31 242.604 136.66L237.057 128.34C233.532 130.69 229.046 132 223.331 132V142ZM242.562 136.688C248.101 133.076 252.202 127.89 254.939 121.39L245.723 117.51C243.659 122.41 240.761 125.924 237.1 128.312L242.562 136.688ZM254.91 121.458C257.751 114.979 259.081 107.462 259.081 99.05H249.081C249.081 106.438 247.91 112.521 245.752 117.442L254.91 121.458ZM259.081 99.05C259.081 86.3585 256.229 75.7794 249.851 67.9838L242.111 74.3162C246.533 79.7206 249.081 87.7415 249.081 99.05H259.081ZM249.879 68.0193C243.474 60.0429 234.378 56.25 223.331 56.25V66.25C231.884 66.25 237.888 69.0571 242.082 74.2807L249.879 68.0193ZM223.331 56.25C216.125 56.25 209.639 57.9492 204.1 61.5619L209.562 69.938C213.223 67.5508 217.737 66.25 223.331 66.25V56.25ZM204.164 61.5204C198.601 65.0274 194.443 70.1632 191.602 76.6417L200.76 80.6583C202.918 75.7367 205.86 72.2726 209.497 69.9796L204.164 61.5204ZM191.585 76.6804C188.849 83.0647 187.581 90.5746 187.581 99.05H197.581C197.581 91.5254 198.713 85.4352 200.777 80.6196L191.585 76.6804ZM187.581 99.05C187.581 111.659 190.441 122.212 196.788 130.088L204.574 123.812C200.121 118.288 197.581 110.241 197.581 99.05H187.581ZM196.788 130.088C203.266 138.125 212.336 142 223.331 142V132C214.926 132 208.896 129.175 204.574 123.812L196.788 130.088ZM296.104 150.65L292.367 153.972L292.465 154.082L292.569 154.186L296.104 150.65ZM296.254 48.8L299.681 52.441L299.736 52.3891L299.79 52.3355L296.254 48.8ZM366.454 54.65L363.132 58.387L363.149 58.4019L363.166 58.4166L366.454 54.65ZM371.554 94.7L367.299 92.0745L367.279 92.1076L367.259 92.141L371.554 94.7ZM359.254 105.5L361.355 110.037V110.037L359.254 105.5ZM339.604 109.25L335.317 106.678L330.773 114.25H339.604V109.25ZM340.954 107V102H338.123L336.667 104.428L340.954 107ZM356.554 110L353.781 114.16L353.812 114.181L353.844 114.201L356.554 110ZM364.654 119.45L360.245 121.808L360.25 121.816L360.254 121.824L364.654 119.45ZM375.904 140.3L371.504 142.674L371.533 142.728L371.563 142.781L375.904 140.3ZM377.554 146.45L382.548 146.7L377.554 146.45ZM375.304 151.4L378.558 155.196L378.634 155.132L378.707 155.064L375.304 151.4ZM362.554 151.55L359.671 155.635L359.753 155.693L359.838 155.748L362.554 151.55ZM358.054 146.15L362.451 143.769L362.448 143.764L358.054 146.15ZM342.904 118.25L338.485 120.589L338.498 120.613L338.51 120.636L342.904 118.25ZM336.454 111.5L334.218 115.972L334.328 116.027L334.441 116.077L336.454 111.5ZM312.904 109.7V104.7H307.904V109.7H312.904ZM310.504 150.65L314.145 154.077L314.194 154.025L314.241 153.972L310.504 150.65ZM312.904 95.45H307.904V100.45H312.904V95.45ZM351.904 91.25L355.028 95.1543L355.034 95.1491L355.041 95.1438L351.904 91.25ZM351.904 65.75L348.714 69.6001L348.774 69.6494L348.835 69.6968L351.904 65.75ZM312.904 61.4V56.4H307.904V61.4H312.904ZM303.304 148.2C301.129 148.2 300.152 147.627 299.64 147.114L292.569 154.186C295.456 157.073 299.279 158.2 303.304 158.2V148.2ZM299.841 147.328C299.267 146.682 298.704 145.537 298.704 143.3H288.704C288.704 147.263 289.742 151.018 292.367 153.972L299.841 147.328ZM298.704 143.3V56H288.704V143.3H298.704ZM298.704 56C298.704 53.6508 299.314 52.7868 299.681 52.441L292.827 45.159C289.795 48.0132 288.704 51.9492 288.704 56H298.704ZM299.79 52.3355C300.302 51.8232 301.279 51.25 303.454 51.25V41.25C299.429 41.25 295.606 42.3768 292.719 45.2645L299.79 52.3355ZM303.454 51.25H339.604V41.25H303.454V51.25ZM339.604 51.25C350.442 51.25 358.043 53.8628 363.132 58.387L369.776 50.9129C362.266 44.2372 351.966 41.25 339.604 41.25V51.25ZM363.166 58.4166C368.165 62.7808 370.904 69.0341 370.904 77.9H380.904C380.904 66.7658 377.344 57.5192 369.743 50.8834L363.166 58.4166ZM370.904 77.9C370.904 83.6389 369.632 88.2941 367.299 92.0745L375.809 97.3255C379.277 91.7059 380.904 85.1611 380.904 77.9H370.904ZM367.259 92.141C365.02 95.8992 361.723 98.847 357.154 100.963L361.355 110.037C367.585 107.153 372.489 102.901 375.85 97.259L367.259 92.141ZM357.154 100.963C352.576 103.082 346.784 104.25 339.604 104.25V114.25C347.825 114.25 355.133 112.918 361.355 110.037L357.154 100.963ZM343.892 111.822L345.242 109.572L336.667 104.428L335.317 106.678L343.892 111.822ZM340.954 112H345.904V102H340.954V112ZM345.904 112C349.157 112 351.711 112.78 353.781 114.16L359.328 105.84C355.397 103.22 350.852 102 345.904 102V112ZM353.844 114.201C356.037 115.617 358.221 118.024 360.245 121.808L369.063 117.092C366.487 112.276 363.271 108.383 359.265 105.799L353.844 114.201ZM360.254 121.824L371.504 142.674L380.305 137.926L369.055 117.076L360.254 121.824ZM371.563 142.781C372.389 144.225 372.604 145.336 372.561 146.2L382.548 146.7C382.705 143.564 381.82 140.575 380.246 137.819L371.563 142.781ZM372.561 146.2C372.522 146.968 372.297 147.369 371.902 147.736L378.707 155.064C381.112 152.831 382.386 149.932 382.548 146.7L372.561 146.2ZM372.05 147.604C371.896 147.736 371.201 148.2 369.154 148.2V158.2C372.507 158.2 375.912 157.464 378.558 155.196L372.05 147.604ZM369.154 148.2C367.104 148.2 365.933 147.781 365.271 147.352L359.838 155.748C362.576 157.519 365.805 158.2 369.154 158.2V148.2ZM365.438 147.465C364.531 146.825 363.494 145.695 362.451 143.769L353.658 148.531C355.215 151.405 357.178 153.875 359.671 155.635L365.438 147.465ZM362.448 143.764L347.298 115.864L338.51 120.636L353.66 148.536L362.448 143.764ZM347.323 115.911C345.207 111.914 342.347 108.63 338.468 106.923L334.441 116.077C335.562 116.57 337.001 117.786 338.485 120.589L347.323 115.911ZM338.69 107.028C335.369 105.367 331.428 104.7 327.154 104.7V114.7C330.48 114.7 332.74 115.233 334.218 115.972L338.69 107.028ZM327.154 104.7H312.904V114.7H327.154V104.7ZM307.904 109.7V143.3H317.904V109.7H307.904ZM307.904 143.3C307.904 145.537 307.342 146.682 306.767 147.328L314.241 153.972C316.867 151.018 317.904 147.263 317.904 143.3H307.904ZM306.863 147.223C306.518 147.591 305.653 148.2 303.304 148.2V158.2C307.355 158.2 311.291 157.109 314.145 154.077L306.863 147.223ZM312.904 100.45H336.304V90.45H312.904V100.45ZM336.304 100.45C343.759 100.45 350.275 98.9568 355.028 95.1543L348.781 87.3456C346.534 89.1432 342.65 90.45 336.304 90.45V100.45ZM355.041 95.1438C360.091 91.0754 362.304 85.1751 362.304 78.35H352.304C352.304 82.9248 350.917 85.6246 348.768 87.3562L355.041 95.1438ZM362.304 78.35C362.304 71.5968 360.07 65.7665 354.974 61.8032L348.835 69.6968C350.939 71.3335 352.304 73.9032 352.304 78.35H362.304ZM355.094 61.8999C350.335 57.9567 343.791 56.4 336.304 56.4V66.4C342.617 66.4 346.473 67.7433 348.714 69.6001L355.094 61.8999ZM336.304 56.4H312.904V66.4H336.304V56.4ZM307.904 61.4V95.45H317.904V61.4H307.904ZM399.086 149.45L395.451 152.883L395.549 152.987L395.653 153.085L399.086 149.45ZM399.086 48.95L395.551 45.4145L399.086 48.95ZM476.786 59.9L473.347 63.5288L473.356 63.5377L473.365 63.5465L476.786 59.9ZM487.586 121.7L482.911 119.929L482.903 119.948L482.896 119.968L487.586 121.7ZM476.786 138.2L473.367 134.552L473.347 134.57L473.328 134.588L476.786 138.2ZM459.386 148.55L460.988 153.286L461.009 153.28L461.029 153.272L459.386 148.55ZM415.736 136.1H410.736V141.1H415.736V136.1ZM450.686 133.85L452.267 138.593L452.298 138.583L452.329 138.572L450.686 133.85ZM462.086 126.95L458.551 123.414L462.086 126.95ZM468.986 115.4L473.74 116.95L473.745 116.935L473.75 116.92L468.986 115.4ZM462.086 71.3L458.551 74.8355L462.086 71.3ZM415.736 62.15V57.15H410.736V62.15H415.736ZM406.736 147C404.278 147 403.117 146.379 402.519 145.815L395.653 153.085C398.656 155.921 402.595 157 406.736 157V147ZM402.721 146.017C402.157 145.419 401.536 144.259 401.536 141.8H391.536C391.536 145.941 392.616 149.881 395.451 152.883L402.721 146.017ZM401.536 141.8V56.45H391.536V141.8H401.536ZM401.536 56.45C401.536 53.9709 402.165 52.9426 402.622 52.4855L395.551 45.4145C392.608 48.3574 391.536 52.3291 391.536 56.45H401.536ZM402.622 52.4855C403.229 51.878 404.352 51.25 406.736 51.25V41.25C402.52 41.25 398.543 42.422 395.551 45.4145L402.622 52.4855ZM406.736 51.25H435.836V41.25H406.736V51.25ZM435.836 51.25C452.699 51.25 464.954 55.5728 473.347 63.5288L480.226 56.2712C469.419 46.0271 454.373 41.25 435.836 41.25V51.25ZM473.365 63.5465C481.795 71.4549 486.336 83.0245 486.336 99.05H496.336C496.336 81.0755 491.177 66.5451 480.207 56.2535L473.365 63.5465ZM486.336 99.05C486.336 107.065 485.157 113.997 482.911 119.929L492.262 123.471C495.015 116.203 496.336 108.035 496.336 99.05H486.336ZM482.896 119.968C480.75 125.779 477.57 130.612 473.367 134.552L480.206 141.848C485.603 136.788 489.622 130.621 492.277 123.432L482.896 119.968ZM473.328 134.588C469.207 138.534 464.049 141.634 457.744 143.828L461.029 153.272C468.523 150.666 474.966 146.866 480.244 141.812L473.328 134.588ZM457.784 143.814C451.607 145.903 444.317 147 435.836 147V157C445.156 157 453.566 155.797 460.988 153.286L457.784 143.814ZM435.836 147H406.736V157H435.836V147ZM415.736 141.1H434.636V131.1H415.736V141.1ZM434.636 141.1C441.218 141.1 447.128 140.306 452.267 138.593L449.105 129.107C445.244 130.394 440.454 131.1 434.636 131.1V141.1ZM452.329 138.572C457.536 136.761 462.015 134.093 465.622 130.486L458.551 123.414C456.158 125.807 453.037 127.739 449.044 129.128L452.329 138.572ZM465.622 130.486C469.334 126.773 472.022 122.22 473.74 116.95L464.233 113.85C462.951 117.78 461.038 120.927 458.551 123.414L465.622 130.486ZM473.75 116.92C475.441 111.621 476.236 105.64 476.236 99.05H466.236C466.236 104.86 465.532 109.779 464.223 113.88L473.75 116.92ZM476.236 99.05C476.236 85.9067 473.004 75.1465 465.622 67.7645L458.551 74.8355C463.369 79.6535 466.236 87.3933 466.236 99.05H476.236ZM465.622 67.7645C458.253 60.3961 447.607 57.15 434.636 57.15V67.15C446.066 67.15 453.719 70.0039 458.551 74.8355L465.622 67.7645ZM434.636 57.15H415.736V67.15H434.636V57.15ZM410.736 62.15V136.1H420.736V62.15H410.736ZM513.344 149.45L509.709 152.883L509.758 152.935L509.809 152.986L513.344 149.45ZM513.194 48.35L509.659 44.8145V44.8145L513.194 48.35ZM527.444 48.35L523.803 51.7768L523.907 51.8871L524.017 51.991L527.444 48.35ZM529.994 135.65H524.994V140.65H529.994V135.65ZM579.644 137.75L576.109 141.286L576.17 141.346L576.233 141.405L579.644 137.75ZM579.644 149.9L583.18 153.436L579.644 149.9ZM520.544 147C518.369 147 517.392 146.427 516.88 145.914L509.809 152.986C512.696 155.873 516.519 157 520.544 157V147ZM516.979 146.017C516.363 145.364 515.794 144.26 515.794 142.1H505.794C505.794 146.14 506.926 149.936 509.709 152.883L516.979 146.017ZM515.794 142.1V55.55H505.794V142.1H515.794ZM515.794 55.55C515.794 53.1207 516.398 52.2171 516.73 51.8855L509.659 44.8145C506.79 47.6829 505.794 51.5793 505.794 55.55H515.794ZM516.73 51.8855C517.242 51.3732 518.219 50.8 520.394 50.8V40.8C516.369 40.8 512.546 41.9268 509.659 44.8145L516.73 51.8855ZM520.394 50.8C522.588 50.8 523.429 51.3794 523.803 51.7768L531.085 44.9232C528.259 41.9206 524.401 40.8 520.394 40.8V50.8ZM524.017 51.991C524.385 52.3368 524.994 53.2008 524.994 55.55H534.994C534.994 51.4992 533.904 47.5632 530.871 44.709L524.017 51.991ZM524.994 55.55V135.65H534.994V55.55H524.994ZM529.994 140.65H573.494V130.65H529.994V140.65ZM573.494 140.65C575.362 140.65 575.946 141.123 576.109 141.286L583.18 134.214C580.542 131.577 577.026 130.65 573.494 130.65V140.65ZM576.233 141.405C576.464 141.621 576.894 142.142 576.894 143.75H586.894C586.894 140.158 585.825 136.679 583.056 134.095L576.233 141.405ZM576.894 143.75C576.894 145.342 576.468 146.005 576.109 146.364L583.18 153.436C585.821 150.795 586.894 147.358 586.894 143.75H576.894ZM576.109 146.364C575.946 146.527 575.362 147 573.494 147V157C577.026 157 580.542 156.073 583.18 153.436L576.109 146.364ZM573.494 147H520.544V157H573.494V147ZM597.573 149.45L593.938 152.883L594.036 152.987L594.14 153.085L597.573 149.45ZM597.573 48.95L594.037 45.4145L597.573 48.95ZM664.473 48.2L660.937 51.7355L661.003 51.801L661.07 51.864L664.473 48.2ZM613.473 61.55V56.55H608.473V61.55H613.473ZM613.473 90.65H608.473V95.65H613.473V90.65ZM661.323 92.6L664.858 89.0645V89.0645L661.323 92.6ZM661.323 104L664.858 107.536L661.323 104ZM613.473 105.95V100.95H608.473V105.95H613.473ZM613.473 136.7H608.473V141.7H613.473V136.7ZM664.473 138.65L660.937 142.186L661.003 142.251L661.07 142.314L664.473 138.65ZM664.473 150.05L661.07 146.386L661.003 146.449L660.937 146.514L664.473 150.05ZM605.223 147C602.764 147 601.603 146.379 601.006 145.815L594.14 153.085C597.142 155.921 601.081 157 605.223 157V147ZM601.208 146.017C600.643 145.419 600.023 144.259 600.023 141.8H590.023C590.023 145.941 591.102 149.881 593.938 152.883L601.208 146.017ZM600.023 141.8V56.45H590.023V141.8H600.023ZM600.023 56.45C600.023 53.9709 600.651 52.9426 601.108 52.4855L594.037 45.4145C591.094 48.3574 590.023 52.3291 590.023 56.45H600.023ZM601.108 52.4855C601.716 51.878 602.839 51.25 605.223 51.25V41.25C601.007 41.25 597.03 42.422 594.037 45.4145L601.108 52.4855ZM605.223 51.25H658.773V41.25H605.223V51.25ZM658.773 51.25C660.436 51.25 660.872 51.6703 660.937 51.7355L668.008 44.6645C665.473 42.1297 662.109 41.25 658.773 41.25V51.25ZM661.07 51.864C661.203 51.987 661.573 52.3602 661.573 53.75H671.573C671.573 50.3398 670.542 47.013 667.875 44.536L661.07 51.864ZM661.573 53.75C661.573 55.2906 661.169 55.833 660.937 56.0645L668.008 63.1355C670.577 60.567 671.573 57.2094 671.573 53.75H661.573ZM660.937 56.0645C660.872 56.1297 660.436 56.55 658.773 56.55V66.55C662.109 66.55 665.473 65.6703 668.008 63.1355L660.937 56.0645ZM658.773 56.55H613.473V66.55H658.773V56.55ZM608.473 61.55V90.65H618.473V61.55H608.473ZM613.473 95.65H655.473V85.65H613.473V95.65ZM655.473 95.65C657.302 95.65 657.756 96.1039 657.787 96.1355L664.858 89.0645C662.29 86.4961 658.843 85.65 655.473 85.65V95.65ZM657.787 96.1355C657.852 96.2007 658.273 96.6366 658.273 98.3H668.273C668.273 94.9634 667.393 91.5993 664.858 89.0645L657.787 96.1355ZM658.273 98.3C658.273 99.9634 657.852 100.399 657.787 100.464L664.858 107.536C667.393 105.001 668.273 101.637 668.273 98.3H658.273ZM657.787 100.464C657.756 100.496 657.302 100.95 655.473 100.95V110.95C658.843 110.95 662.29 110.104 664.858 107.536L657.787 100.464ZM655.473 100.95H613.473V110.95H655.473V100.95ZM608.473 105.95V136.7H618.473V105.95H608.473ZM613.473 141.7H658.773V131.7H613.473V141.7ZM658.773 141.7C660.436 141.7 660.872 142.12 660.937 142.186L668.008 135.114C665.473 132.58 662.109 131.7 658.773 131.7V141.7ZM661.07 142.314C661.162 142.399 661.573 142.789 661.573 144.35H671.573C671.573 140.911 670.583 137.501 667.875 134.986L661.07 142.314ZM661.573 144.35C661.573 145.911 661.162 146.301 661.07 146.386L667.875 153.714C670.583 151.199 671.573 147.789 671.573 144.35H661.573ZM660.937 146.514C660.872 146.58 660.436 147 658.773 147V157C662.109 157 665.473 156.12 668.008 153.586L660.937 146.514ZM658.773 147H605.223V157H658.773V147Z" fill="black" mask="url(#path-1-outside-1_7_205)"/>
</svg>
