<svg width="458" height="136" viewBox="0 0 458 136" fill="none" xmlns="http://www.w3.org/2000/svg">
<mask id="path-1-outside-1_26_215" maskUnits="userSpaceOnUse" x="2" y="24" width="456" height="83" fill="black">
<rect fill="white" x="2" y="24" width="456" height="83"/>
<path d="M37.2031 102C32.3365 102 28.0365 101.367 24.3031 100.1C20.6365 98.8333 17.5365 96.9667 15.0031 94.5C12.4698 91.9667 10.5698 88.8333 9.30313 85.1C8.03646 81.3667 7.40313 77.0333 7.40313 72.1V36.2C7.40313 34 7.93646 32.3667 9.00313 31.3C10.1365 30.2333 11.7365 29.7 13.8031 29.7C15.8698 29.7 17.4365 30.2333 18.5031 31.3C19.6365 32.3667 20.2031 34 20.2031 36.2V72C20.2031 78.3333 21.6365 83.1 24.5031 86.3C27.4365 89.4333 31.6698 91 37.2031 91C42.7365 91 46.9365 89.4333 49.8031 86.3C52.6698 83.1 54.1031 78.3333 54.1031 72V36.2C54.1031 34 54.6365 32.3667 55.7031 31.3C56.8365 30.2333 58.4365 29.7 60.5031 29.7C62.5031 29.7 64.0365 30.2333 65.1031 31.3C66.2365 32.3667 66.8031 34 66.8031 36.2V72.1C66.8031 78.6333 65.6698 84.1333 63.4031 88.6C61.2031 93.0667 57.9031 96.4333 53.5031 98.7C49.1031 100.9 43.6698 102 37.2031 102ZM381.883 101.5C379.616 101.5 377.783 100.8 376.383 99.4C375.049 98 374.383 96.2 374.383 94C374.383 91.8667 375.049 90.1333 376.383 88.8C377.783 87.4 379.616 86.7 381.883 86.7C384.216 86.7 386.016 87.4 387.283 88.8C388.616 90.1333 389.283 91.8667 389.283 94C389.283 96.2 388.616 98 387.283 99.4C386.016 100.8 384.216 101.5 381.883 101.5Z"/>
<path d="M95.1313 101.8C93.0646 101.8 91.4646 101.233 90.3313 100.1C89.2646 98.9 88.7313 97.2667 88.7313 95.2V36.3C88.7313 34.1667 89.2646 32.5333 90.3313 31.4C91.4646 30.2667 93.0646 29.7 95.1313 29.7C97.1979 29.7 98.7646 30.2667 99.8313 31.4C100.965 32.5333 101.531 34.1667 101.531 36.3V59.9H137.831V36.3C137.831 34.1667 138.365 32.5333 139.431 31.4C140.565 30.2667 142.165 29.7 144.231 29.7C146.298 29.7 147.865 30.2667 148.931 31.4C150.065 32.5333 150.631 34.1667 150.631 36.3V95.2C150.631 97.2667 150.065 98.9 148.931 100.1C147.865 101.233 146.298 101.8 144.231 101.8C142.165 101.8 140.565 101.233 139.431 100.1C138.365 98.9 137.831 97.2667 137.831 95.2V70.6H101.531V95.2C101.531 97.2667 100.998 98.9 99.9313 100.1C98.8646 101.233 97.2646 101.8 95.1313 101.8Z"/>
<path d="M238.823 102C232.023 102 226.057 100.5 220.923 97.5C215.857 94.5 211.923 90.3 209.123 84.9C206.323 79.4333 204.923 73.0333 204.923 65.7C204.923 60.1667 205.723 55.2 207.323 50.8C208.923 46.3333 211.19 42.5333 214.123 39.4C217.123 36.2 220.69 33.7667 224.823 32.1C229.023 30.3667 233.69 29.5 238.823 29.5C245.69 29.5 251.657 31 256.723 34C261.79 36.9333 265.723 41.1 268.523 46.5C271.323 51.9 272.723 58.2667 272.723 65.6C272.723 71.1333 271.923 76.1333 270.323 80.6C268.723 85.0667 266.423 88.9 263.423 92.1C260.49 95.3 256.923 97.7667 252.723 99.5C248.59 101.167 243.957 102 238.823 102ZM238.823 91C243.157 91 246.823 90 249.823 88C252.89 86 255.223 83.1 256.823 79.3C258.49 75.5 259.323 70.9667 259.323 65.7C259.323 57.7 257.523 51.5 253.923 47.1C250.39 42.7 245.357 40.5 238.823 40.5C234.557 40.5 230.89 41.5 227.823 43.5C224.757 45.4333 222.39 48.3 220.723 52.1C219.123 55.8333 218.323 60.3667 218.323 65.7C218.323 73.6333 220.123 79.8333 223.723 84.3C227.323 88.7667 232.357 91 238.823 91ZM445.492 101.5C443.226 101.5 441.392 100.8 439.992 99.4C438.659 98 437.992 96.2 437.992 94C437.992 91.8667 438.659 90.1333 439.992 88.8C441.392 87.4 443.226 86.7 445.492 86.7C447.826 86.7 449.626 87.4 450.892 88.8C452.226 90.1333 452.892 91.8667 452.892 94C452.892 96.2 452.226 98 450.892 99.4C449.626 100.8 447.826 101.5 445.492 101.5Z"/>
<path d="M299.139 101.8C297.072 101.8 295.472 101.233 294.339 100.1C293.272 98.9 292.739 97.2667 292.739 95.2V36.3C292.739 34.1667 293.272 32.5333 294.339 31.4C295.472 30.2667 297.072 29.7 299.139 29.7C301.206 29.7 302.772 30.2667 303.839 31.4C304.972 32.5333 305.539 34.1667 305.539 36.3V59.9H341.839V36.3C341.839 34.1667 342.372 32.5333 343.439 31.4C344.572 30.2667 346.172 29.7 348.239 29.7C350.306 29.7 351.872 30.2667 352.939 31.4C354.072 32.5333 354.639 34.1667 354.639 36.3V95.2C354.639 97.2667 354.072 98.9 352.939 100.1C351.872 101.233 350.306 101.8 348.239 101.8C346.172 101.8 344.572 101.233 343.439 100.1C342.372 98.9 341.839 97.2667 341.839 95.2V70.6H305.539V95.2C305.539 97.2667 305.006 98.9 303.939 100.1C302.872 101.233 301.272 101.8 299.139 101.8ZM413.688 101.5C411.421 101.5 409.588 100.8 408.188 99.4C406.854 98 406.188 96.2 406.188 94C406.188 91.8667 406.854 90.1333 408.188 88.8C409.588 87.4 411.421 86.7 413.688 86.7C416.021 86.7 417.821 87.4 419.088 88.8C420.421 90.1333 421.088 91.8667 421.088 94C421.088 96.2 420.421 98 419.088 99.4C417.821 100.8 416.021 101.5 413.688 101.5Z"/>
</mask>
<path d="M37.2031 102C32.3365 102 28.0365 101.367 24.3031 100.1C20.6365 98.8333 17.5365 96.9667 15.0031 94.5C12.4698 91.9667 10.5698 88.8333 9.30313 85.1C8.03646 81.3667 7.40313 77.0333 7.40313 72.1V36.2C7.40313 34 7.93646 32.3667 9.00313 31.3C10.1365 30.2333 11.7365 29.7 13.8031 29.7C15.8698 29.7 17.4365 30.2333 18.5031 31.3C19.6365 32.3667 20.2031 34 20.2031 36.2V72C20.2031 78.3333 21.6365 83.1 24.5031 86.3C27.4365 89.4333 31.6698 91 37.2031 91C42.7365 91 46.9365 89.4333 49.8031 86.3C52.6698 83.1 54.1031 78.3333 54.1031 72V36.2C54.1031 34 54.6365 32.3667 55.7031 31.3C56.8365 30.2333 58.4365 29.7 60.5031 29.7C62.5031 29.7 64.0365 30.2333 65.1031 31.3C66.2365 32.3667 66.8031 34 66.8031 36.2V72.1C66.8031 78.6333 65.6698 84.1333 63.4031 88.6C61.2031 93.0667 57.9031 96.4333 53.5031 98.7C49.1031 100.9 43.6698 102 37.2031 102ZM381.883 101.5C379.616 101.5 377.783 100.8 376.383 99.4C375.049 98 374.383 96.2 374.383 94C374.383 91.8667 375.049 90.1333 376.383 88.8C377.783 87.4 379.616 86.7 381.883 86.7C384.216 86.7 386.016 87.4 387.283 88.8C388.616 90.1333 389.283 91.8667 389.283 94C389.283 96.2 388.616 98 387.283 99.4C386.016 100.8 384.216 101.5 381.883 101.5Z" fill="#346A2E"/>
<path d="M95.1313 101.8C93.0646 101.8 91.4646 101.233 90.3313 100.1C89.2646 98.9 88.7313 97.2667 88.7313 95.2V36.3C88.7313 34.1667 89.2646 32.5333 90.3313 31.4C91.4646 30.2667 93.0646 29.7 95.1313 29.7C97.1979 29.7 98.7646 30.2667 99.8313 31.4C100.965 32.5333 101.531 34.1667 101.531 36.3V59.9H137.831V36.3C137.831 34.1667 138.365 32.5333 139.431 31.4C140.565 30.2667 142.165 29.7 144.231 29.7C146.298 29.7 147.865 30.2667 148.931 31.4C150.065 32.5333 150.631 34.1667 150.631 36.3V95.2C150.631 97.2667 150.065 98.9 148.931 100.1C147.865 101.233 146.298 101.8 144.231 101.8C142.165 101.8 140.565 101.233 139.431 100.1C138.365 98.9 137.831 97.2667 137.831 95.2V70.6H101.531V95.2C101.531 97.2667 100.998 98.9 99.9313 100.1C98.8646 101.233 97.2646 101.8 95.1313 101.8Z" fill="#FED105"/>
<path d="M238.823 102C232.023 102 226.057 100.5 220.923 97.5C215.857 94.5 211.923 90.3 209.123 84.9C206.323 79.4333 204.923 73.0333 204.923 65.7C204.923 60.1667 205.723 55.2 207.323 50.8C208.923 46.3333 211.19 42.5333 214.123 39.4C217.123 36.2 220.69 33.7667 224.823 32.1C229.023 30.3667 233.69 29.5 238.823 29.5C245.69 29.5 251.657 31 256.723 34C261.79 36.9333 265.723 41.1 268.523 46.5C271.323 51.9 272.723 58.2667 272.723 65.6C272.723 71.1333 271.923 76.1333 270.323 80.6C268.723 85.0667 266.423 88.9 263.423 92.1C260.49 95.3 256.923 97.7667 252.723 99.5C248.59 101.167 243.957 102 238.823 102ZM238.823 91C243.157 91 246.823 90 249.823 88C252.89 86 255.223 83.1 256.823 79.3C258.49 75.5 259.323 70.9667 259.323 65.7C259.323 57.7 257.523 51.5 253.923 47.1C250.39 42.7 245.357 40.5 238.823 40.5C234.557 40.5 230.89 41.5 227.823 43.5C224.757 45.4333 222.39 48.3 220.723 52.1C219.123 55.8333 218.323 60.3667 218.323 65.7C218.323 73.6333 220.123 79.8333 223.723 84.3C227.323 88.7667 232.357 91 238.823 91ZM445.492 101.5C443.226 101.5 441.392 100.8 439.992 99.4C438.659 98 437.992 96.2 437.992 94C437.992 91.8667 438.659 90.1333 439.992 88.8C441.392 87.4 443.226 86.7 445.492 86.7C447.826 86.7 449.626 87.4 450.892 88.8C452.226 90.1333 452.892 91.8667 452.892 94C452.892 96.2 452.226 98 450.892 99.4C449.626 100.8 447.826 101.5 445.492 101.5Z" fill="#045698"/>
<path d="M299.139 101.8C297.072 101.8 295.472 101.233 294.339 100.1C293.272 98.9 292.739 97.2667 292.739 95.2V36.3C292.739 34.1667 293.272 32.5333 294.339 31.4C295.472 30.2667 297.072 29.7 299.139 29.7C301.206 29.7 302.772 30.2667 303.839 31.4C304.972 32.5333 305.539 34.1667 305.539 36.3V59.9H341.839V36.3C341.839 34.1667 342.372 32.5333 343.439 31.4C344.572 30.2667 346.172 29.7 348.239 29.7C350.306 29.7 351.872 30.2667 352.939 31.4C354.072 32.5333 354.639 34.1667 354.639 36.3V95.2C354.639 97.2667 354.072 98.9 352.939 100.1C351.872 101.233 350.306 101.8 348.239 101.8C346.172 101.8 344.572 101.233 343.439 100.1C342.372 98.9 341.839 97.2667 341.839 95.2V70.6H305.539V95.2C305.539 97.2667 305.006 98.9 303.939 100.1C302.872 101.233 301.272 101.8 299.139 101.8ZM413.688 101.5C411.421 101.5 409.588 100.8 408.188 99.4C406.854 98 406.188 96.2 406.188 94C406.188 91.8667 406.854 90.1333 408.188 88.8C409.588 87.4 411.421 86.7 413.688 86.7C416.021 86.7 417.821 87.4 419.088 88.8C420.421 90.1333 421.088 91.8667 421.088 94C421.088 96.2 420.421 98 419.088 99.4C417.821 100.8 416.021 101.5 413.688 101.5Z" fill="#F46523"/>
<path d="M24.3031 100.1L22.6705 104.826L22.6836 104.83L22.6966 104.835L24.3031 100.1ZM15.0031 94.5L11.4676 98.0355L11.4912 98.0591L11.515 98.0824L15.0031 94.5ZM9.30313 85.1L14.038 83.4935L14.038 83.4935L9.30313 85.1ZM9.00313 31.3L5.5763 27.659L5.52115 27.7109L5.4676 27.7645L9.00313 31.3ZM18.5031 31.3L14.9676 34.8355L15.0211 34.8891L15.0763 34.941L18.5031 31.3ZM24.5031 86.3L20.779 89.6362L20.8155 89.6771L20.853 89.7171L24.5031 86.3ZM49.8031 86.3L53.4922 89.6751L53.5098 89.6557L53.5273 89.6362L49.8031 86.3ZM55.7031 31.3L52.2763 27.659L52.2211 27.7109L52.1676 27.7645L55.7031 31.3ZM65.1031 31.3L61.5676 34.8355L61.6212 34.8891L61.6763 34.941L65.1031 31.3ZM63.4031 88.6L58.9444 86.3374L58.9309 86.364L58.9177 86.3908L63.4031 88.6ZM53.5031 98.7L55.7392 103.172L55.7661 103.159L55.7929 103.145L53.5031 98.7ZM37.2031 97C32.7597 97 29.0206 96.4206 25.9096 95.3651L22.6966 104.835C27.0524 106.313 31.9132 107 37.2031 107V97ZM25.9357 95.374C22.8958 94.3239 20.4482 92.8232 18.4912 90.9176L11.515 98.0824C14.6247 101.11 18.3771 103.343 22.6705 104.826L25.9357 95.374ZM18.5387 90.9645C16.6005 89.0263 15.0833 86.5743 14.038 83.4935L4.56823 86.7065C6.05629 91.0923 8.3391 94.907 11.4676 98.0355L18.5387 90.9645ZM14.038 83.4935C12.9847 80.3889 12.4031 76.6184 12.4031 72.1H2.40313C2.40313 77.4483 3.08825 82.3444 4.56823 86.7065L14.038 83.4935ZM12.4031 72.1V36.2H2.40313V72.1H12.4031ZM12.4031 36.2C12.4031 34.7187 12.766 34.6082 12.5387 34.8355L5.4676 27.7645C3.1069 30.1252 2.40313 33.2813 2.40313 36.2H12.4031ZM12.43 34.941C12.4345 34.9367 12.4439 34.9283 12.4665 34.9151C12.4903 34.9012 12.542 34.8742 12.6343 34.8434C12.8245 34.78 13.1906 34.7 13.8031 34.7V24.7C10.8909 24.7 7.90789 25.4646 5.5763 27.659L12.43 34.941ZM13.8031 34.7C14.4189 34.7 14.763 34.7809 14.9168 34.8332C15.0469 34.8775 15.0265 34.8944 14.9676 34.8355L22.0387 27.7645C19.7307 25.4565 16.6939 24.7 13.8031 24.7V34.7ZM15.0763 34.941C14.9927 34.8623 15.0057 34.8236 15.0543 34.9639C15.1127 35.1321 15.2031 35.5131 15.2031 36.2H25.2031C25.2031 33.2034 24.4243 30.0066 21.9299 27.659L15.0763 34.941ZM15.2031 36.2V72H25.2031V36.2H15.2031ZM15.2031 72C15.2031 78.993 16.776 85.1678 20.779 89.6362L28.2273 82.9638C26.497 81.0322 25.2031 77.6737 25.2031 72H15.2031ZM20.853 89.7171C24.9862 94.1321 30.7091 96 37.2031 96V86C32.6305 86 29.8867 84.7345 28.1532 82.8829L20.853 89.7171ZM37.2031 96C43.6906 96 49.4126 94.1342 53.4922 89.6751L46.1141 82.9249C44.4604 84.7325 41.7823 86 37.2031 86V96ZM53.5273 89.6362C57.5303 85.1678 59.1031 78.993 59.1031 72H49.1031C49.1031 77.6737 47.8093 81.0322 46.079 82.9638L53.5273 89.6362ZM59.1031 72V36.2H49.1031V72H59.1031ZM59.1031 36.2C59.1031 34.7187 59.466 34.6082 59.2387 34.8355L52.1676 27.7645C49.8069 30.1252 49.1031 33.2813 49.1031 36.2H59.1031ZM59.13 34.941C59.1345 34.9367 59.1439 34.9283 59.1665 34.9151C59.1903 34.9012 59.242 34.8742 59.3343 34.8434C59.5245 34.78 59.8906 34.7 60.5031 34.7V24.7C57.5909 24.7 54.6079 25.4646 52.2763 27.659L59.13 34.941ZM60.5031 34.7C61.0688 34.7 61.3783 34.7765 61.5105 34.8225C61.6201 34.8606 61.6076 34.8755 61.5676 34.8355L68.6387 27.7645C66.3594 25.4852 63.3819 24.7 60.5031 24.7V34.7ZM61.6763 34.941C61.5927 34.8623 61.6057 34.8236 61.6543 34.9639C61.7127 35.1321 61.8031 35.5131 61.8031 36.2H71.8031C71.8031 33.2034 71.0243 30.0066 68.53 27.659L61.6763 34.941ZM61.8031 36.2V72.1H71.8031V36.2H61.8031ZM61.8031 72.1C61.8031 78.0778 60.7637 82.7521 58.9444 86.3374L67.8619 90.8626C70.5758 85.5145 71.8031 79.1889 71.8031 72.1H61.8031ZM58.9177 86.3908C57.1881 89.9024 54.6547 92.4823 51.2133 94.2551L55.7929 103.145C61.1516 100.384 65.2182 96.2309 67.8886 90.8092L58.9177 86.3908ZM51.2671 94.2279C47.7444 95.9892 43.1281 97 37.2031 97V107C44.2115 107 50.4618 105.811 55.7392 103.172L51.2671 94.2279ZM90.3313 100.1L86.5942 103.422L86.6918 103.532L86.7957 103.636L90.3313 100.1ZM90.3313 31.4L86.7957 27.8645L86.7422 27.918L86.6902 27.9732L90.3313 31.4ZM99.8313 31.4L96.1902 34.8268L96.2422 34.882L96.2957 34.9355L99.8313 31.4ZM101.531 59.9H96.5313V64.9H101.531V59.9ZM137.831 59.9V64.9H142.831V59.9H137.831ZM139.431 31.4L135.896 27.8645L135.842 27.918L135.79 27.9732L139.431 31.4ZM148.931 31.4L145.29 34.8268L145.342 34.882L145.396 34.9355L148.931 31.4ZM148.931 100.1L145.296 96.6669L145.29 96.6732L148.931 100.1ZM139.431 100.1L135.694 103.422L135.792 103.532L135.896 103.636L139.431 100.1ZM137.831 70.6H142.831V65.6H137.831V70.6ZM101.531 70.6V65.6H96.5313V70.6H101.531ZM99.9313 100.1L103.572 103.527L103.621 103.475L103.668 103.422L99.9313 100.1ZM95.1313 96.8C94.547 96.8 94.2122 96.7191 94.0505 96.6619C93.9101 96.6122 93.8759 96.5736 93.8668 96.5645L86.7957 103.636C89.1167 105.957 92.1397 106.8 95.1313 106.8V96.8ZM94.0683 96.7782C94.027 96.7317 93.7313 96.4036 93.7313 95.2H83.7313C83.7313 98.1298 84.5022 101.068 86.5942 103.422L94.0683 96.7782ZM93.7313 95.2V36.3H83.7313V95.2H93.7313ZM93.7313 36.3C93.7313 34.9618 94.059 34.7347 93.9723 34.8268L86.6902 27.9732C84.4702 30.332 83.7313 33.3716 83.7313 36.3H93.7313ZM93.8668 34.9355C93.8759 34.9264 93.9101 34.8878 94.0505 34.8381C94.2122 34.7809 94.547 34.7 95.1313 34.7V24.7C92.1397 24.7 89.1167 25.5435 86.7957 27.8645L93.8668 34.9355ZM95.1313 34.7C95.7189 34.7 96.0309 34.7818 96.1556 34.8269C96.2543 34.8626 96.2322 34.8714 96.1902 34.8268L103.472 27.9732C101.18 25.5373 98.1044 24.7 95.1313 24.7V34.7ZM96.2957 34.9355C96.2989 34.9387 96.3045 34.9444 96.3149 34.9614C96.3261 34.9795 96.3518 35.0256 96.3825 35.1139C96.4459 35.2967 96.5313 35.6656 96.5313 36.3H106.531C106.531 33.2944 105.716 30.2138 103.367 27.8645L96.2957 34.9355ZM96.5313 36.3V59.9H106.531V36.3H96.5313ZM101.531 64.9H137.831V54.9H101.531V64.9ZM142.831 59.9V36.3H132.831V59.9H142.831ZM142.831 36.3C142.831 34.9618 143.159 34.7347 143.072 34.8268L135.79 27.9732C133.57 30.332 132.831 33.3716 132.831 36.3H142.831ZM142.967 34.9355C142.976 34.9264 143.01 34.8878 143.15 34.8381C143.312 34.7809 143.647 34.7 144.231 34.7V24.7C141.24 24.7 138.217 25.5435 135.896 27.8645L142.967 34.9355ZM144.231 34.7C144.819 34.7 145.131 34.7818 145.256 34.8269C145.354 34.8626 145.332 34.8714 145.29 34.8268L152.572 27.9732C150.28 25.5373 147.204 24.7 144.231 24.7V34.7ZM145.396 34.9355C145.399 34.9387 145.405 34.9444 145.415 34.9614C145.426 34.9795 145.452 35.0256 145.482 35.1139C145.546 35.2967 145.631 35.6656 145.631 36.3H155.631C155.631 33.2944 154.816 30.2138 152.467 27.8645L145.396 34.9355ZM145.631 36.3V95.2H155.631V36.3H145.631ZM145.631 95.2C145.631 96.3268 145.346 96.6139 145.296 96.6669L152.566 103.533C154.783 101.186 155.631 98.2065 155.631 95.2H145.631ZM145.29 96.6732C145.332 96.6286 145.354 96.6374 145.256 96.6731C145.131 96.7182 144.819 96.8 144.231 96.8V106.8C147.204 106.8 150.28 105.963 152.572 103.527L145.29 96.6732ZM144.231 96.8C143.647 96.8 143.312 96.7191 143.15 96.6619C143.01 96.6122 142.976 96.5736 142.967 96.5645L135.896 103.636C138.217 105.957 141.24 106.8 144.231 106.8V96.8ZM143.168 96.7782C143.127 96.7317 142.831 96.4036 142.831 95.2H132.831C132.831 98.1298 133.602 101.068 135.694 103.422L143.168 96.7782ZM142.831 95.2V70.6H132.831V95.2H142.831ZM137.831 65.6H101.531V75.6H137.831V65.6ZM96.5313 70.6V95.2H106.531V70.6H96.5313ZM96.5313 95.2C96.5313 96.4036 96.2355 96.7317 96.1942 96.7782L103.668 103.422C105.76 101.068 106.531 98.1298 106.531 95.2H96.5313ZM96.2903 96.6732C96.3507 96.6089 96.3811 96.6197 96.262 96.6619C96.1157 96.7137 95.769 96.8 95.1313 96.8V106.8C98.1154 106.8 101.251 105.993 103.572 103.527L96.2903 96.6732ZM220.923 97.5L218.376 101.802L218.388 101.81L218.401 101.817L220.923 97.5ZM209.123 84.9L204.673 87.1794L204.679 87.1905L204.685 87.2016L209.123 84.9ZM207.323 50.8L212.022 52.5087L212.027 52.4974L212.031 52.4861L207.323 50.8ZM214.123 39.4L210.476 35.9803L210.473 35.9829L214.123 39.4ZM224.823 32.1L226.693 36.7372L226.712 36.7296L226.731 36.7219L224.823 32.1ZM256.723 34L254.176 38.3024L254.197 38.3149L254.218 38.3271L256.723 34ZM268.523 46.5L272.962 44.1984L272.962 44.1984L268.523 46.5ZM270.323 80.6L265.616 78.9139L265.616 78.9139L270.323 80.6ZM263.423 92.1L259.776 88.6803L259.757 88.7007L259.738 88.7214L263.423 92.1ZM252.723 99.5L254.593 104.137L254.612 104.13L254.631 104.122L252.723 99.5ZM249.823 88L247.092 83.8119L247.071 83.8257L247.05 83.8397L249.823 88ZM256.823 79.3L252.244 77.2917L252.23 77.3256L252.215 77.3597L256.823 79.3ZM253.923 47.1L250.025 50.2307L250.039 50.2485L250.054 50.2662L253.923 47.1ZM227.823 43.5L230.49 47.7296L230.523 47.7091L230.555 47.688L227.823 43.5ZM220.723 52.1L216.144 50.0917L216.136 50.111L216.128 50.1304L220.723 52.1ZM223.723 84.3L227.616 81.1624L227.616 81.1624L223.723 84.3ZM238.823 97C232.781 97 227.71 95.6746 223.446 93.1831L218.401 101.817C224.404 105.325 231.266 107 238.823 107V97ZM223.471 93.1976C219.237 90.6907 215.946 87.1965 213.562 82.5984L204.685 87.2016C207.9 93.4035 212.477 98.3093 218.376 101.802L223.471 93.1976ZM213.574 82.6206C211.199 77.9838 209.923 72.3934 209.923 65.7H199.923C199.923 73.6733 201.448 80.8829 204.673 87.1794L213.574 82.6206ZM209.923 65.7C209.923 60.6459 210.654 56.2715 212.022 52.5087L202.624 49.0913C200.793 54.1285 199.923 59.6874 199.923 65.7H209.923ZM212.031 52.4861C213.425 48.5945 215.354 45.4015 217.774 42.8171L210.473 35.9829C207.026 39.6652 204.422 44.0722 202.616 49.1139L212.031 52.4861ZM217.771 42.8197C220.266 40.1586 223.223 38.1366 226.693 36.7372L222.954 27.4628C218.157 29.3968 213.981 32.2414 210.476 35.9803L217.771 42.8197ZM226.731 36.7219C230.252 35.2686 234.26 34.5 238.823 34.5V24.5C233.12 24.5 227.795 25.4648 222.916 27.4781L226.731 36.7219ZM238.823 34.5C244.945 34.5 250.001 35.8302 254.176 38.3024L259.271 29.6976C253.313 26.1698 246.436 24.5 238.823 24.5V34.5ZM254.218 38.3271C258.427 40.764 261.705 44.2124 264.085 48.8016L272.962 44.1984C269.742 37.9875 265.153 33.1026 259.229 29.6729L254.218 38.3271ZM264.085 48.8016C266.447 53.3584 267.723 58.9045 267.723 65.6H277.723C277.723 57.6288 276.199 50.4415 272.962 44.1984L264.085 48.8016ZM267.723 65.6C267.723 70.6523 266.993 75.0699 265.616 78.9139L275.031 82.2861C276.854 77.1968 277.723 71.6144 277.723 65.6H267.723ZM265.616 78.9139C264.228 82.7895 262.271 86.0192 259.776 88.6803L267.071 95.5197C270.576 91.7808 273.219 87.3439 275.031 82.2861L265.616 78.9139ZM259.738 88.7214C257.322 91.3566 254.372 93.4107 250.816 94.8781L254.631 104.122C259.475 102.123 263.658 99.2434 267.109 95.4786L259.738 88.7214ZM250.854 94.8628C247.398 96.2563 243.412 97 238.823 97V107C244.501 107 249.783 106.077 254.593 104.137L250.854 94.8628ZM238.823 96C243.942 96 248.622 94.8101 252.597 92.1602L247.05 83.8397C245.025 85.1899 242.372 86 238.823 86V96ZM252.555 92.1881C256.56 89.5757 259.495 85.8398 261.432 81.2403L252.215 77.3597C250.952 80.3602 249.22 82.4243 247.092 83.8119L252.555 92.1881ZM261.402 81.3083C263.411 76.7293 264.323 71.4786 264.323 65.7H254.323C254.323 70.4548 253.569 74.2707 252.244 77.2917L261.402 81.3083ZM264.323 65.7C264.323 57.0085 262.371 49.5294 257.793 43.9338L250.054 50.2662C252.675 53.4706 254.323 58.3915 254.323 65.7H264.323ZM257.822 43.9693C253.183 38.1929 246.604 35.5 238.823 35.5V45.5C244.11 45.5 247.597 47.2071 250.025 50.2307L257.822 43.9693ZM238.823 35.5C233.751 35.5 229.098 36.6992 225.092 39.3119L230.555 47.688C232.682 46.3008 235.363 45.5 238.823 45.5V35.5ZM225.157 39.2704C221.127 41.8107 218.153 45.5132 216.144 50.0917L225.302 54.1083C226.628 51.0867 228.386 49.0559 230.49 47.7296L225.157 39.2704ZM216.128 50.1304C214.192 54.6481 213.323 59.8913 213.323 65.7H223.323C223.323 60.842 224.055 57.0186 225.319 54.0696L216.128 50.1304ZM213.323 65.7C213.323 74.3427 215.283 81.7956 219.83 87.4376L227.616 81.1624C224.964 77.8711 223.323 72.924 223.323 65.7H213.323ZM219.83 87.4376C224.508 93.2416 231.062 96 238.823 96V86C233.652 86 230.139 84.2917 227.616 81.1624L219.83 87.4376ZM294.339 100.1L290.602 103.422L290.7 103.532L290.804 103.636L294.339 100.1ZM294.339 31.4L290.804 27.8645L290.75 27.918L290.698 27.9732L294.339 31.4ZM303.839 31.4L300.198 34.8268L300.25 34.882L300.304 34.9355L303.839 31.4ZM305.539 59.9H300.539V64.9H305.539V59.9ZM341.839 59.9V64.9H346.839V59.9H341.839ZM343.439 31.4L339.904 27.8645L339.85 27.918L339.798 27.9732L343.439 31.4ZM352.939 31.4L349.298 34.8268L349.35 34.882L349.404 34.9355L352.939 31.4ZM352.939 100.1L349.304 96.6669L349.298 96.6732L352.939 100.1ZM343.439 100.1L339.702 103.422L339.8 103.532L339.904 103.636L343.439 100.1ZM341.839 70.6H346.839V65.6H341.839V70.6ZM305.539 70.6V65.6H300.539V70.6H305.539ZM303.939 100.1L307.58 103.527L307.629 103.475L307.676 103.422L303.939 100.1ZM299.139 96.8C298.555 96.8 298.22 96.7191 298.058 96.6619C297.918 96.6122 297.884 96.5736 297.875 96.5645L290.804 103.636C293.125 105.957 296.147 106.8 299.139 106.8V96.8ZM298.076 96.7782C298.035 96.7317 297.739 96.4036 297.739 95.2H287.739C287.739 98.1298 288.51 101.068 290.602 103.422L298.076 96.7782ZM297.739 95.2V36.3H287.739V95.2H297.739ZM297.739 36.3C297.739 34.9618 298.067 34.7347 297.98 34.8268L290.698 27.9732C288.478 30.332 287.739 33.3716 287.739 36.3H297.739ZM297.875 34.9355C297.884 34.9264 297.918 34.8878 298.058 34.8381C298.22 34.7809 298.555 34.7 299.139 34.7V24.7C296.147 24.7 293.125 25.5435 290.804 27.8645L297.875 34.9355ZM299.139 34.7C299.727 34.7 300.039 34.7818 300.163 34.8269C300.262 34.8626 300.24 34.8714 300.198 34.8268L307.48 27.9732C305.187 25.5373 302.112 24.7 299.139 24.7V34.7ZM300.304 34.9355C300.307 34.9387 300.312 34.9444 300.323 34.9614C300.334 34.9795 300.36 35.0256 300.39 35.1139C300.454 35.2967 300.539 35.6656 300.539 36.3H310.539C310.539 33.2944 309.724 30.2138 307.375 27.8645L300.304 34.9355ZM300.539 36.3V59.9H310.539V36.3H300.539ZM305.539 64.9H341.839V54.9H305.539V64.9ZM346.839 59.9V36.3H336.839V59.9H346.839ZM346.839 36.3C346.839 34.9618 347.167 34.7347 347.08 34.8268L339.798 27.9732C337.578 30.332 336.839 33.3716 336.839 36.3H346.839ZM346.975 34.9355C346.984 34.9264 347.018 34.8878 347.158 34.8381C347.32 34.7809 347.655 34.7 348.239 34.7V24.7C345.247 24.7 342.225 25.5435 339.904 27.8645L346.975 34.9355ZM348.239 34.7C348.827 34.7 349.139 34.7818 349.263 34.8269C349.362 34.8626 349.34 34.8714 349.298 34.8268L356.58 27.9732C354.287 25.5373 351.212 24.7 348.239 24.7V34.7ZM349.404 34.9355C349.407 34.9387 349.412 34.9444 349.423 34.9614C349.434 34.9795 349.46 35.0256 349.49 35.1139C349.554 35.2967 349.639 35.6656 349.639 36.3H359.639C359.639 33.2944 358.824 30.2138 356.475 27.8645L349.404 34.9355ZM349.639 36.3V95.2H359.639V36.3H349.639ZM349.639 95.2C349.639 96.3268 349.354 96.6139 349.304 96.6669L356.574 103.533C358.791 101.186 359.639 98.2065 359.639 95.2H349.639ZM349.298 96.6732C349.34 96.6286 349.362 96.6374 349.263 96.6731C349.139 96.7182 348.827 96.8 348.239 96.8V106.8C351.212 106.8 354.287 105.963 356.58 103.527L349.298 96.6732ZM348.239 96.8C347.655 96.8 347.32 96.7191 347.158 96.6619C347.018 96.6122 346.984 96.5736 346.975 96.5645L339.904 103.636C342.225 105.957 345.247 106.8 348.239 106.8V96.8ZM347.176 96.7782C347.135 96.7317 346.839 96.4036 346.839 95.2H336.839C336.839 98.1298 337.61 101.068 339.702 103.422L347.176 96.7782ZM346.839 95.2V70.6H336.839V95.2H346.839ZM341.839 65.6H305.539V75.6H341.839V65.6ZM300.539 70.6V95.2H310.539V70.6H300.539ZM300.539 95.2C300.539 96.4036 300.243 96.7317 300.202 96.7782L307.676 103.422C309.768 101.068 310.539 98.1298 310.539 95.2H300.539ZM300.298 96.6732C300.359 96.6089 300.389 96.6197 300.27 96.6619C300.123 96.7137 299.777 96.8 299.139 96.8V106.8C302.123 106.8 305.259 105.993 307.58 103.527L300.298 96.6732ZM376.383 99.4L372.762 102.848L372.804 102.892L372.847 102.936L376.383 99.4ZM376.383 88.8L372.847 85.2645L372.847 85.2645L376.383 88.8ZM387.283 88.8L383.575 92.1546L383.659 92.2472L383.747 92.3355L387.283 88.8ZM387.283 99.4L383.662 95.9517L383.618 95.998L383.575 96.0454L387.283 99.4ZM381.883 96.5C380.734 96.5 380.243 96.1889 379.918 95.8645L372.847 102.936C375.323 105.411 378.499 106.5 381.883 106.5V96.5ZM380.004 95.9517C379.679 95.6112 379.383 95.1073 379.383 94H369.383C369.383 97.2927 370.42 100.389 372.762 102.848L380.004 95.9517ZM379.383 94C379.383 93.0029 379.649 92.605 379.918 92.3355L372.847 85.2645C370.45 87.6617 369.383 90.7304 369.383 94H379.383ZM379.918 92.3355C380.243 92.0111 380.734 91.7 381.883 91.7V81.7C378.499 81.7 375.323 82.7889 372.847 85.2645L379.918 92.3355ZM381.883 91.7C383.162 91.7 383.473 92.0419 383.575 92.1546L390.99 85.4454C388.559 82.7581 385.27 81.7 381.883 81.7V91.7ZM383.747 92.3355C384.017 92.605 384.283 93.0029 384.283 94H394.283C394.283 90.7304 393.216 87.6617 390.818 85.2645L383.747 92.3355ZM384.283 94C384.283 95.1073 383.986 95.6112 383.662 95.9517L390.904 102.848C393.246 100.389 394.283 97.2927 394.283 94H384.283ZM383.575 96.0454C383.473 96.1581 383.162 96.5 381.883 96.5V106.5C385.27 106.5 388.559 105.442 390.99 102.755L383.575 96.0454ZM408.188 99.4L404.567 102.848L404.609 102.892L404.652 102.936L408.188 99.4ZM408.188 88.8L404.652 85.2645L404.652 85.2645L408.188 88.8ZM419.088 88.8L415.38 92.1546L415.464 92.2472L415.552 92.3355L419.088 88.8ZM419.088 99.4L415.467 95.9517L415.423 95.998L415.38 96.0454L419.088 99.4ZM413.688 96.5C412.538 96.5 412.048 96.1889 411.723 95.8645L404.652 102.936C407.127 105.411 410.303 106.5 413.688 106.5V96.5ZM411.808 95.9517C411.484 95.6112 411.188 95.1073 411.188 94H401.188C401.188 97.2927 402.224 100.389 404.567 102.848L411.808 95.9517ZM411.188 94C411.188 93.0029 411.454 92.605 411.723 92.3355L404.652 85.2645C402.255 87.6617 401.188 90.7304 401.188 94H411.188ZM411.723 92.3355C412.048 92.0111 412.538 91.7 413.688 91.7V81.7C410.303 81.7 407.128 82.7889 404.652 85.2645L411.723 92.3355ZM413.688 91.7C414.967 91.7 415.278 92.0419 415.38 92.1546L422.795 85.4454C420.364 82.7581 417.075 81.7 413.688 81.7V91.7ZM415.552 92.3355C415.821 92.605 416.088 93.0029 416.088 94H426.088C426.088 90.7304 425.02 87.6617 422.623 85.2645L415.552 92.3355ZM416.088 94C416.088 95.1073 415.791 95.6112 415.467 95.9517L422.708 102.848C425.051 100.389 426.088 97.2927 426.088 94H416.088ZM415.38 96.0454C415.278 96.1581 414.967 96.5 413.688 96.5V106.5C417.075 106.5 420.364 105.442 422.795 102.755L415.38 96.0454ZM439.992 99.4L436.371 102.848L436.414 102.892L436.457 102.936L439.992 99.4ZM439.992 88.8L436.457 85.2645L436.457 85.2645L439.992 88.8ZM450.892 88.8L447.185 92.1546L447.268 92.2472L447.357 92.3355L450.892 88.8ZM450.892 99.4L447.271 95.9517L447.227 95.998L447.185 96.0454L450.892 99.4ZM445.492 96.5C444.343 96.5 443.852 96.1889 443.528 95.8645L436.457 102.936C438.932 105.411 442.108 106.5 445.492 106.5V96.5ZM443.613 95.9517C443.289 95.6112 442.992 95.1073 442.992 94H432.992C432.992 97.2927 434.029 100.389 436.371 102.848L443.613 95.9517ZM442.992 94C442.992 93.0029 443.258 92.605 443.528 92.3355L436.457 85.2645C434.059 87.6617 432.992 90.7304 432.992 94H442.992ZM443.528 92.3355C443.852 92.0111 444.343 91.7 445.492 91.7V81.7C442.108 81.7 438.932 82.7889 436.457 85.2645L443.528 92.3355ZM445.492 91.7C446.772 91.7 447.083 92.0419 447.185 92.1546L454.6 85.4454C452.168 82.7581 448.879 81.7 445.492 81.7V91.7ZM447.357 92.3355C447.626 92.605 447.892 93.0029 447.892 94H457.892C457.892 90.7304 456.825 87.6617 454.428 85.2645L447.357 92.3355ZM447.892 94C447.892 95.1073 447.596 95.6112 447.271 95.9517L454.513 102.848C456.855 100.389 457.892 97.2927 457.892 94H447.892ZM447.185 96.0454C447.083 96.1581 446.772 96.5 445.492 96.5V106.5C448.879 106.5 452.168 105.442 454.6 102.755L447.185 96.0454Z" fill="black" mask="url(#path-1-outside-1_26_215)"/>
</svg>
